<svg width="21" height="16" viewBox="0 0 21 16" fill="none" xmlns="http://www.w3.org/2000/svg">
<path fill-rule="evenodd" clip-rule="evenodd" d="M19.4837 9.52813H3.99894L8.46651 13.9957C8.92502 14.4542 8.92502 15.1976 8.46651 15.6561C8.00801 16.1146 7.26461 16.1146 6.8061 15.6561L0.343882 9.1939C0.113388 8.9634 -0.00123604 8.66092 1.00521e-05 8.35882C-0.00123614 8.05672 0.113388 7.75423 0.343882 7.52374L6.8061 1.06152C7.26461 0.603008 8.00801 0.603006 8.46651 1.06152C8.92502 1.52003 8.92502 2.26342 8.46651 2.72192L4.00848 7.17996H19.4837C20.1321 7.17996 20.6578 7.70562 20.6578 8.35405C20.6578 9.00248 20.1321 9.52813 19.4837 9.52813Z" fill="#0D4156"/>
</svg>
