<svg width="1212" height="1148" viewBox="0 0 1212 1148" fill="none" xmlns="http://www.w3.org/2000/svg">
<path d="M66.9053 815.679C60.5509 810.423 57.9086 803.152 54.9941 796.191C45.6247 773.831 38.8231 750.758 33.1881 727.376C29.2934 711.223 25.8312 695.001 24.0944 678.522C23.4385 672.316 22.2086 665.982 25.123 659.879C25.3839 659.336 25.164 658.53 24.9851 657.889C19.078 636.572 13.1485 615.262 7.20411 593.956C7.14821 593.76 6.84633 593.623 5.94815 592.834C4.82263 609.282 3.73437 625.15 2.59021 641.835C-0.745361 630.372 -0.57765 619.517 1.49823 608.884C5.73572 587.156 6.05996 565.3 5.97051 543.342C5.91461 529.087 7.89732 514.934 11.0726 500.956C11.2478 500.188 11.6913 499.467 12.2913 498.753C12.2876 510.429 12.146 522.084 10.7596 533.694C10.5881 535.125 9.57442 536.666 11.8366 537.506C14.0989 538.347 15.0791 536.909 16.1338 535.537C17.2369 534.092 17.2518 532.469 17.1549 530.805C15.3101 499.899 21.862 470.064 30.7171 440.516C38.689 413.909 48.759 387.847 55.0948 360.801C55.9147 357.301 58.3372 354.117 60.1112 350.601C58.4825 349.602 56.6153 351.215 54.7407 349.983C56.224 347.008 57.7409 343.969 59.8093 339.824C59.9323 341.594 60.0217 342.267 60.0143 342.939C60.0068 344.089 60.5472 344.85 61.8218 344.799C63.0927 344.747 62.8393 343.653 62.9734 342.915C63.6517 339.138 64.2853 335.357 64.9375 331.576C65.0046 331.178 65.2953 330.53 65.1388 330.427C60.6814 327.397 63.5399 323.28 65.4481 321.75C70.8931 317.379 70.0359 310.184 76.189 305.751C84.2056 299.98 86.833 290.305 88.5511 281.261C92.3116 261.457 101.349 244.217 113.354 227.395C132.406 200.691 156.027 177.453 176.912 152.177C181.168 147.027 186.516 142.777 193.161 140.231C194.466 139.73 195.718 138.673 197.522 139.431C194.667 143.548 189.341 145.765 187.664 150.812C192.807 145.422 199.206 141.637 205.825 138.117C206.187 137.925 206.735 137.479 206.679 137.249C205.494 132.113 210.626 131.952 213.44 130.274C219.268 126.798 225.399 123.752 231.876 121.058C226.104 125.872 220.304 130.658 214.569 135.51C202.169 145.995 190.008 156.73 177.289 166.872C173.834 169.627 171.4 172.784 168.81 176.016C165.981 179.546 163.003 182.981 160.298 186.587C159.444 187.726 158.475 189.057 158.807 191.157C163.678 186.209 169.663 183.063 174.374 178.308C186.837 165.723 201.443 155.327 216.466 145.46C227.482 138.227 239.252 131.828 247.198 121.305C248.513 119.563 250.149 117.943 250.783 115.075C247.537 116.207 244.772 117.027 242.509 118.732C241.048 119.834 239.997 120.633 238.611 118.688C237.377 116.955 237.661 115.888 239.55 114.694C258.945 102.421 278.619 90.5777 299.464 80.4461C320.443 70.2492 342.059 61.5243 364.938 55.5921C365.624 55.4137 366.332 55.2971 367.319 55.6916C360.898 59.3387 354.473 62.9893 348.051 66.6364C348.2 66.88 348.346 67.127 348.495 67.3706C362.62 64.8317 376.741 62.2859 390.866 59.7607C400.5 58.0384 410.16 56.4156 419.772 54.6006C422.187 54.1443 423.32 54.9162 424.143 56.8444C425.045 58.9545 424.3 59.8225 421.997 59.3765C402.252 55.5578 386.278 63.3461 371.009 73.3405C369.168 74.5448 367.808 76.1196 364.964 74.1743C362.452 72.4588 360.432 74.9874 358.584 76.5691C356.075 78.7169 353.97 81.8287 348.752 79.8148C350.91 78.2056 352.669 76.9122 354.406 75.5947C355.065 75.0938 356.176 74.7644 355.952 73.7866C355.699 72.6783 354.45 72.5686 353.481 72.3867C350.056 71.7348 347.727 73.1518 346.192 75.8794C344.619 78.6688 343.158 81.5131 341.488 84.2544C340.676 85.5857 339.252 86.9855 337.594 86.5257C335.835 86.0385 336.71 84.1309 336.666 82.8683C336.45 76.9293 336.479 76.8847 330.647 78.9399C323.007 81.6298 315.396 84.3882 307.779 87.1296C306.713 87.5139 305.14 87.6168 305.166 88.9926C305.252 93.4597 302.281 97.251 301.909 101.948C308.498 100.459 312.392 95.7619 317.189 92.3035C318.042 91.6859 318.724 90.0116 319.958 90.8899C321.438 91.9398 320.491 93.7205 320.286 95.1546C320.17 95.9712 320.293 97.6936 318.478 96.901C316.902 96.2114 316.298 97.2887 315.419 97.8617C309.959 101.437 303.698 104.36 299.289 108.824C293.363 114.821 284.948 120.122 287.351 130.404C287.903 132.761 286.494 135.232 283.308 136.031C282.171 136.316 281.127 136.91 279.998 137.239C277.169 138.066 273.681 138.467 273.055 141.637C272.354 145.195 275.082 147.618 277.799 150.163C278.91 147.412 279.189 144.897 279.458 142.351C279.678 140.275 280.561 138.477 283.323 140.152C287.191 142.499 288.615 141.15 289.934 137.452C292.748 129.554 299.061 124.448 307.212 121.216C310.484 119.919 313.79 118.585 317.215 117.734C326.037 115.545 333.27 110.718 340.855 106.377C355.196 98.167 371.162 93.0206 386.338 86.3782C386.606 86.2616 386.886 86.1586 387.143 86.018C396.691 80.8029 407.194 77.6567 417.424 73.8655C427.904 69.9816 437.937 65.0925 448.283 60.8827C451.715 59.4828 452.595 58.481 449.509 55.7843C445.719 52.4734 443.11 51.7906 438.298 53.9212C436.289 54.8133 434.415 55.9627 432.38 56.7895C431.001 57.3522 428.951 58.8893 428.083 57.4174C427.099 55.7534 427.304 52.7856 429.201 51.7975C434.884 48.8365 440.892 46.4005 446.818 43.8479C448.107 43.2921 448.968 44.4998 449.967 45.011C456.016 48.0989 461.167 52.192 465.713 56.9611C465.963 57.2218 466.399 57.3282 467.446 57.8669C466.481 55.7156 466.049 54.1408 464.196 53.1458C463.544 52.7959 462.855 51.7734 462.948 51.1524C463.09 50.1986 464.349 50.3908 465.199 50.305C473.04 49.5124 480.889 48.7988 488.716 47.9067C490.624 47.6906 491.798 48.4454 493.054 49.461C495.119 51.1284 497.239 52.7341 500.101 54.9574C494.407 44.3385 484.527 40.0738 472.179 42.1564C467.223 42.9936 462.281 44.0812 455.856 43.3401C465.069 41.3536 473.059 39.6347 481.049 37.9089C482.059 37.6893 483.047 37.3119 484.068 37.2055C486.323 36.9688 485.954 35.5004 485.924 34.1417C485.883 32.2409 484.523 32.4434 483.107 32.5669C473.175 33.4418 463.239 34.2995 453.299 35.1367C452.132 35.2362 450.951 35.1504 448.782 35.1504C456.59 32.2787 463.872 31.2974 471.207 30.5598C484.281 29.2388 497.407 29.4172 510.503 29.9044C525.135 30.4465 539.681 29.5716 554.231 28.4566C577.557 26.669 600.884 25.2177 624.174 28.834C634.78 30.4808 645.067 33.205 654.839 37.3222C658.267 38.7666 661.323 38.9519 664.64 37.5589C667.476 36.3684 671.159 35.8469 672.959 33.8706C675.068 31.5547 671.08 28.8854 671.147 26C674.375 28.8717 677.517 31.6508 680.644 34.4471C698.235 50.1815 719.582 58.7383 743.479 62.6222C762.598 65.7272 781.941 66.4649 801.25 67.5319C812.568 68.1563 823.76 69.6076 834.963 71.0658C836.256 71.2339 837.531 71.728 838.731 72.2358C840.3 72.8979 841.534 75.5123 842.987 74.5894C844.75 73.4675 845.246 70.9732 845.428 67.7926C839.428 72.3901 836.413 68.2627 832.761 65.3086C822.817 57.2664 811.085 52.4047 798.335 49.4884C795.022 48.7302 791.977 48.5037 789.227 45.5359C785.891 41.9334 780.782 39.7273 775.378 36.2346C783.771 36.1625 790.725 37.4491 797.534 38.9965C811.26 42.1153 823.92 47.5842 835.187 55.4686C838.168 57.5546 840.706 58.2099 844.124 56.9233C847.385 55.695 853.124 55.774 853.602 53.6193C854.231 50.7853 849.021 49.358 846.379 47.296C841.072 43.1514 835.545 39.2401 830.29 34.9274C837.252 35.2979 843.282 38.1697 849.539 40.4066C851.522 41.1169 849.416 42.2971 850.143 43.0588C848.656 42.2559 847.851 42.9902 846.811 44.318C848.518 44.4449 849.278 43.6867 850.057 42.9559C851.511 41.5594 852.841 41.8202 854.664 42.6951C868.498 49.3443 880.543 58.3266 892.749 67.103C900.732 72.843 908.946 78.2605 917.495 83.2972C925.926 88.2652 932.724 95.1375 940.323 101.076C946.796 106.137 953.009 111.479 959.49 116.526C961.585 118.156 962.971 119.707 962.524 122.39C962.341 123.498 961.834 124.911 963.154 125.793C963.5 126.023 964.469 125.92 964.801 125.632C966.102 124.503 964.794 123.388 964.6 122.256C964.555 122.002 964.652 121.724 964.76 120.866C972.05 126.747 979.131 132.329 986.037 138.093C988.374 140.042 989.626 139.768 990.737 137.194C991.251 136 990.405 135.396 989.749 134.703C981.222 125.718 972.687 116.739 964.13 107.777C962.11 105.66 958.13 105.948 956.874 102.826C956.635 102.233 955.413 101.632 955.994 101.135C961.685 96.2388 954.354 94.4616 953.013 91.4492C952.01 89.1985 948.988 87.7163 947.176 85.5754C951.664 86.9889 955.491 89.2362 958.998 91.9501C960.794 93.3397 962.021 95.1752 961.726 97.3196C961.294 100.469 963.083 102.339 965.278 104.332C981.095 118.677 996.8 133.132 1012.65 147.456C1014.88 149.474 1015.9 152.376 1019.05 153.783C1021.86 155.039 1024.13 156.435 1025.52 152.363C1029.23 156.26 1032.72 159.938 1036.34 163.743C1037.58 161.585 1036.21 159.945 1036.17 157.18C1045.34 171.593 1060.09 178.671 1073.75 187.005C1082.77 192.508 1090.68 199.089 1096.04 207.982C1097.17 209.859 1097.71 211.41 1096.05 213.139C1095.96 213.238 1095.92 213.386 1095.85 213.506C1090.7 222.684 1090.73 222.763 1099.02 229.525C1110.72 239.08 1122.38 248.687 1134.14 258.191C1134.98 258.867 1135.79 261.063 1137.56 259.303C1139 257.865 1138.07 256.64 1136.79 255.426C1129.11 248.145 1121.45 240.844 1113.88 233.46C1112.5 232.112 1108.8 230.534 1113.56 228.592C1114.59 228.173 1114.22 227.079 1113.62 226.458C1112.84 225.655 1111.77 226.163 1111.3 226.729C1109.08 229.381 1107.43 227.762 1105.63 226.283C1102.74 223.909 1099.82 221.565 1096.85 219.273C1095.29 218.069 1095.71 217.29 1097.3 216.649C1101.96 214.762 1106.49 214.655 1110.82 217.506C1114.89 220.193 1117.71 223.909 1120.69 227.508C1124.74 232.4 1128.44 237.602 1135.22 239.859C1137.02 240.46 1137.92 242.295 1138.87 243.867C1140.3 246.258 1141.58 248.8 1143.46 250.873C1144.75 252.293 1145.7 253.017 1143.41 254.132C1142.61 254.523 1141.81 255.082 1142.48 256.047C1142.98 256.77 1143.74 257.021 1144.78 256.784C1150.98 255.381 1153.08 256.709 1154.45 262.665C1154.58 263.224 1154.76 264.051 1156.11 264.223C1156.79 262.332 1157.31 259.954 1160.76 259.862C1159.98 261.419 1159.16 262.806 1158.58 264.277C1157.15 267.925 1156.84 271.407 1160.19 274.515C1162.5 276.653 1164.51 279.058 1166.7 281.299C1170.42 285.09 1174.57 288.353 1171.98 294.669C1170.35 298.639 1173.18 302.605 1175.36 306.228C1177.07 309.072 1179.21 311.748 1179.17 315.419C1177.29 312.517 1175.42 309.614 1173.53 306.719C1170.39 301.901 1167.23 297.098 1164.1 292.274C1161.99 289.022 1159.67 286.016 1160.02 281.731C1160.29 278.523 1157.83 276.378 1153.99 276.577C1149.67 276.804 1146.74 275.325 1144.61 271.719C1142.84 268.734 1140.36 266.103 1138.08 263.392C1137.39 262.572 1136.94 260.696 1135.14 261.92C1133.45 263.08 1133.72 264.442 1135.25 265.674C1142.4 271.404 1147.65 278.564 1153.08 285.604C1165.06 301.13 1177.47 316.397 1185.34 334.228C1185.43 334.427 1185.77 334.53 1186.56 335.062C1185.19 329.867 1183.95 325.146 1182.47 319.509C1184.95 320.967 1186.85 321.863 1188.45 323.091C1189.9 324.21 1191.19 325.397 1188.3 326.889C1185.36 328.409 1187.66 330.969 1188.69 332.053C1191.18 334.667 1191.25 337.604 1191.48 340.654C1191.69 343.512 1191.96 346.367 1192.21 349.359C1190.84 348.933 1189.66 348.559 1187.67 347.938C1189.22 350.892 1190.42 353.16 1192.06 356.275C1192.46 354.306 1192.69 353.153 1192.92 352C1193.09 352.028 1193.27 352.059 1193.44 352.086C1193.21 354.773 1192.94 357.459 1192.76 360.149C1192.62 362.352 1192.83 364.565 1193.8 366.589C1194.98 369.056 1196.88 371.303 1199.87 371.55C1202.34 371.753 1202.47 368.943 1203.74 367.543C1204.27 366.96 1204.29 365.934 1205.64 365.82C1206.42 376.714 1207.01 387.583 1206.64 399.132C1204.41 396.418 1205.25 394.002 1205.58 391.676C1205.98 388.829 1206.64 385.971 1205.28 383.205C1204.71 382.049 1203.68 380.999 1202.17 381.414C1200.93 381.754 1201.34 383.034 1201.4 383.905C1202.4 401.235 1202.22 418.771 1211.37 434.742C1212.04 435.915 1212.23 436.962 1211.68 438.245C1205.89 451.958 1206.89 466.159 1208.19 480.384C1208.66 485.572 1209.22 490.763 1209.33 495.961C1209.49 504.106 1205.88 506.545 1197.34 504.432C1196.81 504.298 1196.27 504.157 1195.44 503.938C1195.51 505.9 1196.47 507.248 1197.26 508.635C1199.17 511.99 1200.99 515.232 1197.54 518.825C1196.06 520.375 1197.68 522.262 1198.05 523.892C1200.29 533.845 1197.93 547.857 1191.69 557.715C1192.85 546.379 1193.62 535.924 1192.23 525.374C1190.43 525.834 1190.54 527.632 1189.23 528.459C1187.41 528.496 1187.76 526.338 1186.12 525.755C1182.73 529.883 1184.9 534.405 1185.52 538.604C1186.24 543.414 1186.65 547.851 1182.69 551.68C1180.95 553.361 1182.98 553.666 1183.93 554.242C1188.81 557.207 1189.37 559.286 1186.03 563.527C1184.61 565.335 1184.57 567.325 1184.36 569.346C1182.92 583.509 1181.45 597.668 1180.06 611.835C1179.68 615.701 1179.94 619.64 1178.31 624.138C1176.68 621.143 1177.91 618.481 1176.93 615.66C1172.71 618.909 1168.94 621.04 1168.38 627.13C1166.24 650.008 1162.99 672.796 1160.15 695.616C1159.84 698.058 1159.73 700.556 1159.07 702.92C1157.79 707.538 1158.14 711.532 1162.75 714.544C1163.5 715.031 1164.74 715.961 1163.9 716.912C1159.16 722.302 1158.1 729.373 1153.77 735.003C1145.78 745.399 1141.42 756.804 1144.34 770.023C1146.85 770.026 1148.26 767.807 1150.85 767.237C1153.64 778.288 1152.13 788.862 1146.59 798.823C1144.93 801.807 1146.16 804.322 1146.23 807.043C1146.26 807.99 1147.18 808.766 1148.48 808.546C1149.58 808.361 1150.56 807.812 1150.59 806.738C1150.98 792.963 1160.25 781.692 1163.15 768.572C1166.51 753.349 1170.75 738.29 1174.65 723.17C1176.88 714.534 1180.76 706.296 1181.94 697.4C1182.13 695.917 1183.96 695.022 1183.95 693.389C1184.99 692.137 1186.03 690.884 1187.08 689.632C1188.51 688.664 1189.62 687.491 1189.87 685.793L1189.73 685.954C1191.94 688.136 1189.91 690.411 1189.61 692.487C1185.17 723.64 1179.46 754.57 1169.14 784.625C1168.39 786.804 1167.98 789.089 1165.54 790.506C1164.19 791.285 1163.93 792.969 1164.55 794.256C1167.18 799.752 1164.49 803.695 1160.39 807.328C1159.78 807.863 1159.33 808.549 1158.12 809.984C1160.85 797.673 1164.88 786.67 1166.8 774.675C1164.19 775.348 1164.12 776.645 1163.74 777.739C1149.93 816.568 1134.55 854.864 1118.01 892.766C1119.22 898.914 1114.58 902.987 1111.73 907.687C1111.25 908.494 1110.57 909.207 1109.58 910.473C1109.42 908.816 1109.31 907.801 1109.2 906.713C1089.63 917.342 1076.59 934.078 1061.08 948.43C1046.2 962.209 1034.71 978.458 1021.67 993.582C1013.09 1003.53 1002.73 1011.22 989.611 1015.78C964.018 1024.67 943.341 1040.28 923.771 1057.35C922.076 1058.82 922.128 1059.87 924.524 1061.31C908.938 1060.9 899.193 1069.16 889.894 1078.09C884.632 1083.15 878.833 1087.68 873.402 1092.54C860.522 1104.09 843.83 1109.12 828.098 1115.69C806.564 1124.68 784.125 1131.59 761.67 1138.36C755.163 1140.32 748.365 1141.68 741.534 1141.74C720.831 1141.96 700.284 1142.68 679.727 1145.85C655.796 1149.54 631.612 1147.92 607.585 1145.2C582.026 1142.3 556.597 1138.73 531.568 1133.04C527.095 1132.02 522.705 1130.67 518.21 1129.76C515.754 1129.27 514.767 1128.42 515.74 1126.16C516.593 1124.18 516.265 1121.44 520.398 1122.37C533.543 1125.32 546.859 1127.65 559.937 1130.83C577.576 1135.12 595.402 1137.79 613.645 1138.1C616.317 1138.14 618.982 1138.63 621.651 1138.65C624.52 1138.66 627.043 1138.66 625.064 1143.16C626.965 1138.95 630.386 1139.37 633.364 1139.16C646.874 1138.2 660.395 1137.41 673.902 1136.43C696.721 1134.76 718.852 1130.34 739.987 1122.07C740.68 1121.8 741.325 1121.49 742.313 1121.91C739.838 1123.57 737.408 1125.09 735.112 1126.77C733.021 1128.29 732.332 1130.02 734.262 1132.28C735.38 1133.59 736.741 1135.14 734.527 1137.73C739.588 1135.18 743.49 1137.46 747.519 1137.72C748.786 1137.8 750.501 1138.62 750.937 1136.94C751.328 1135.44 749.517 1135.58 748.469 1135.26C745.913 1134.48 743.483 1133.48 741.262 1131.7C744.429 1127.55 749.088 1126.87 754.112 1126.94C758.849 1127.01 763.612 1127.91 768.651 1127.04C763.712 1129.94 758.774 1132.84 753.836 1135.75C753.967 1136.01 754.097 1136.28 754.227 1136.54C761.834 1134.48 769.448 1132.45 777.04 1130.34C781.303 1129.16 785.444 1127.27 789.789 1126.74C796.081 1125.97 801.168 1123.24 806.348 1120.3C811.588 1117.34 817.413 1115.06 823.406 1114.52C835.228 1113.46 843.397 1106.72 851.827 1099.89C844.087 1102.52 836.365 1105.18 828.605 1107.76C820.637 1110.4 812.684 1113.1 804.634 1115.52C796.595 1117.94 788.351 1119.64 779.909 1120.45C802.655 1114.16 822.363 1102.61 841.716 1090.44C844.344 1088.79 847.087 1087.87 850.359 1087.58C856.65 1087.01 859.184 1081.39 855.372 1076.85C854.425 1075.72 854.578 1074.57 854.272 1073.41C854.09 1072.72 853.799 1072.04 852.849 1072.18C851.839 1072.33 851.977 1073.07 852.047 1073.77C852.185 1075.15 853.121 1076.64 850.352 1077.05C832.667 1079.7 816.739 1086.95 800.516 1093.4C786.834 1098.84 772.992 1103.76 758.033 1105.36C751.212 1106.09 744.351 1105.42 737.512 1106.17C720.786 1107.99 704.585 1112.18 688.094 1115.04C679.764 1116.49 671.412 1118.22 662.9 1118.03C651.481 1117.77 640.438 1119.44 629.41 1121.98C615.456 1125.18 601.264 1124.01 587.177 1122.8C562.438 1120.68 537.724 1118.3 513.008 1115.94C509.747 1115.63 509.407 1116.72 510.335 1119.16C511.413 1121.99 512.329 1124.86 513.582 1128.48C507.689 1126.93 502.33 1125.59 497.008 1124.13C469.045 1116.47 441.85 1106.8 414.651 1097.16C404.067 1093.41 392.953 1091.31 381.974 1088.99C367.513 1085.92 355.528 1078.56 343.139 1071.82C303.418 1050.19 263.92 1028.2 222.265 1009.76C217.103 1007.47 212.515 1004.34 208.718 1000.46C186.52 977.789 161.412 957.68 140.493 933.859C112.228 901.676 89.2481 866.629 71.2173 828.792C69.2272 824.617 67.401 820.283 66.8382 815.634C68.9663 813.37 71.1093 811.119 73.2559 808.868C70.5912 810.742 66.555 811.672 66.9053 815.679ZM131.384 761.874C129.696 764.739 130.576 768.366 132.037 770.068C136.524 775.296 142.073 779.75 147.764 785.02C147.567 781.229 144.701 779.167 144.712 776.247C144.715 775.657 144.872 775.591 144.063 775.067C138.752 771.608 134.776 766.942 131.347 761.881C129.696 760.526 129.692 758.701 129.003 755.857C132.711 759.222 134.347 759.137 134.168 754.892C134.086 752.927 133.084 750.401 136.289 749.321C136.472 749.259 136.375 748.044 136.132 747.461C135.275 745.399 134.653 743.2 132.618 741.217C134.146 748.01 134.183 748.178 127.542 749.334C124.877 749.801 125.813 751.407 125.824 753.012C124.162 752.137 122.917 751.482 121.568 750.772C120.845 754.11 123.312 757.051 122.123 760.18C125.485 759.517 127.922 763.175 131.384 761.874ZM1148.71 344.864C1143.41 336.808 1140.22 327.85 1135.8 319.413C1135.53 318.885 1135.32 318.343 1135.93 317.972C1141.41 314.613 1137.26 310.414 1135.85 307.755C1133.31 302.951 1128.87 299.006 1125.14 294.614C1122.7 296.899 1123.03 299.225 1123.8 301.678C1130.15 322.004 1136.41 342.353 1142.83 362.654C1145.89 372.35 1149.13 382.004 1152.56 391.594C1154.24 396.284 1156.74 400.607 1163.35 400.254C1165.74 400.127 1165.41 401.623 1165.58 402.957C1166.88 413.295 1168.2 423.629 1169.53 433.963C1171.48 449.179 1173.44 464.392 1175.37 479.609C1175.62 481.636 1176.65 484.316 1175.66 485.565C1174.22 487.363 1171.32 485.132 1169.03 485.602C1168.8 485.651 1168.63 485.922 1168.19 486.278C1171.02 490.972 1173.85 495.679 1176.9 500.736C1180.43 493.995 1180.25 487.407 1180.13 480.655C1179.76 458.982 1177.17 437.483 1174.38 416.012C1171.79 396.037 1166.51 376.535 1160.27 357.281C1157.4 348.419 1154.08 339.676 1149.24 331.068C1146.05 335.937 1147.74 340.442 1148.64 344.926L1148.71 344.864ZM298.513 1001.22C297.123 999.723 296.098 998.56 295.003 997.452C281.91 984.232 271.564 969.119 260.175 954.726C257.846 951.782 255.427 948.931 252.628 946.251C248.696 942.484 244.194 938.161 247.727 931.8C248.402 930.586 248.174 928.812 247.958 927.343C247.481 924.118 244.451 922.736 241.82 923.195C238.704 923.741 242.148 925.995 241.648 927.511C241.499 927.964 242.017 928.568 241.991 929.096C241.876 931.646 239.614 932.939 237.724 933.958C235.916 934.933 235.6 932.565 234.892 931.622C230.404 925.645 226.234 919.466 221.646 913.561C218.516 909.53 216.339 905.004 213.328 900.939C211.93 899.052 209.918 898.204 207.529 899.467C205.363 900.613 204.312 902.112 205.609 904.569C206.504 906.267 206.955 908.188 207.435 910.044C209.377 917.527 211.181 924.818 219.634 929.042C223.484 930.966 223.364 933.516 221.225 936.878C212.351 925.82 202.945 915.184 195.685 903.152C194.63 901.405 193.519 899.964 196.81 899.528C200.828 899 199.676 897.549 197.701 895.758C188.682 887.575 179.748 879.306 170.696 871.154C161.453 862.827 153.008 853.704 141.827 847.326C137.97 845.127 134.601 841.816 133.74 837.785C132.078 830.01 125.343 826.867 119.481 822.788C118.642 822.205 117.729 821.577 117.002 822.977C114.68 827.461 111.691 831.4 114.438 837.14C124.657 858.491 136.047 879.238 149.978 898.743C166.864 922.389 185.559 944.642 207.38 964.741C231.273 986.751 262.825 996.779 291.134 1011.89C291.883 1012.29 292.819 1012.49 293.695 1012.59C296.497 1012.9 299.304 1013.26 302.121 1013.35C304.234 1013.42 305.274 1012.34 303.951 1010.51C300.388 1005.59 299.199 1001.25 307.488 999.037C301.555 995.585 300.828 995.774 298.513 1001.22ZM446.624 1051.37C446.743 1051.1 446.859 1050.82 446.978 1050.55C465.721 1053.52 484.467 1056.47 503.202 1059.46C508.263 1060.27 513.678 1060.18 517.51 1064.24C519.731 1066.59 522.429 1067.25 525.903 1066.6C530.845 1065.68 535.906 1065.27 540.926 1064.72C542.659 1064.53 544.138 1064.45 544.172 1062.26C544.209 1059.66 542.275 1059.9 540.523 1059.87C533.968 1059.77 527.408 1059.72 520.853 1059.64C517.558 1059.6 513.921 1060.5 512.21 1056.5C511.748 1055.41 510.145 1055.67 508.986 1055.47C497.589 1053.51 486.23 1051.38 475.072 1048.45C448.268 1041.42 422.511 1031.79 396.989 1021.59C393.97 1020.39 390.982 1019.56 387.519 1019.77C383.804 1019.99 383.606 1021.01 385.332 1023.63C386.099 1024.8 387.97 1026.24 386.74 1027.54C385.391 1028.96 383.066 1029.28 380.923 1028.71C376.227 1027.47 372.276 1025.03 367.905 1022.22C371.121 1020.82 373.644 1019.66 376.219 1018.62C378.556 1017.68 379.447 1016.89 376.674 1015.21C356.262 1002.87 335.913 990.453 315.534 978.067C313.048 976.557 310.577 975.02 308.006 973.648C305.77 972.45 302.859 972.443 301.312 973.878C299.945 975.144 302.259 976.948 303.131 978.441C303.478 979.034 304.022 979.539 304.514 980.05C316.563 992.594 330.978 1002.08 347.899 1008.24C357.738 1011.81 357.793 1011.69 354.238 1020.89C354.115 1021.2 353.776 1021.45 353.34 1021.97C351.26 1019.31 344.861 1018.87 349.635 1013.74C336.677 1008.08 324.214 1002.27 309.884 999.044C310.637 999.977 310.92 1000.45 311.323 1000.81C314.14 1003.32 317.506 1005.27 317.517 1009.7C317.539 1018.5 322.828 1024.05 331.687 1026.55C342.994 1029.75 353.385 1034.74 363.95 1039.48C375.37 1044.6 386.997 1048.86 400.358 1046.85C404.275 1046.26 408.628 1048.1 412.784 1048.83C410.376 1049.48 408.181 1049.18 405.982 1048.94C403.802 1048.7 401.618 1048.51 399.434 1048.3C424.196 1056.79 449.196 1063.51 475.847 1061C475.936 1060.66 476.026 1060.32 476.115 1059.98C466.284 1057.11 456.452 1054.24 446.624 1051.37ZM563.843 319.375C563.939 319.633 564.033 319.887 564.13 320.144C580.33 318.295 596.531 316.439 612.736 314.606C613.869 314.479 614.651 313.937 615.345 313.189C624.766 303.02 636.916 300.189 650.784 302.083C658.711 303.164 666.63 304.32 674.546 305.487C678.232 306.029 680.908 305.003 683.502 302.317C691.317 294.23 698.1 285.32 706.568 277.751C707.164 277.219 708.197 276.687 707.701 275.757C707.149 274.728 705.897 275.01 704.895 274.944C696.289 274.389 687.687 273.829 679.082 273.311C674.039 273.009 668.807 271.86 663.981 272.683C648.864 275.267 634.654 280.269 621.3 287.502C605.271 296.189 590.162 306.231 573.834 314.459C570.517 316.126 567.171 317.735 563.843 319.375ZM203.455 156.85C201.879 164.22 200.161 166.262 193.15 169.493C191.294 170.348 189.274 171.082 187.724 172.3C167.71 188.034 150.589 205.889 139.766 228.307C139.229 229.415 139.382 231.206 137.228 231.021C135.719 230.891 136.371 231.666 136.602 232.205C137.381 234.02 136.505 235.677 136.132 237.403C132.502 254.269 126.692 270.731 125.015 287.965C124.881 289.327 124.068 290.785 126.182 291.314C128.612 291.921 128.679 290.034 129.208 288.665C131.552 282.619 133.896 276.574 136.267 270.539C138.775 264.154 140.105 257.055 144.033 251.521C164.77 222.282 185.983 193.328 206.448 163.922C209.705 159.242 209.724 159.221 203.455 156.85ZM1155.09 326.656C1156.83 326.848 1156.52 323.51 1159.01 325.139C1160.81 326.327 1161.01 327.548 1160.4 329.339C1159.91 330.753 1159.84 332.286 1159.56 333.761C1159.03 336.499 1158.76 338.846 1161.95 340.857C1165.24 342.926 1166.63 346.631 1167.15 350.117C1168.2 357.188 1170.52 363.951 1172.49 370.785C1178.1 390.211 1183.3 409.665 1182.61 430.004C1182.54 431.963 1181.46 434.769 1183.56 435.764C1186.79 437.294 1190.57 437.857 1194.13 438.766C1194.75 438.924 1195.46 438.403 1195.31 437.864C1194.27 434.09 1196.76 430.594 1195.92 426.717C1190.48 401.427 1185.34 376.079 1179.95 350.779C1178.61 344.48 1178.29 337.865 1171.95 333.192C1165.24 328.251 1160.42 321.88 1158.3 313.982C1157.93 312.596 1156.83 311.282 1155.79 310.16C1153.9 308.122 1151.38 307.491 1148.52 308.05C1146.35 308.475 1145.48 309.247 1146.72 311.398C1149.64 316.462 1152.35 321.623 1155.09 326.656ZM253.917 207.69C250.958 211.866 248.29 215.736 245.491 219.524C244.444 220.941 244.257 221.926 245.577 223.428C250.537 229.086 250.455 229.141 254.726 222.859C255.043 222.396 255.378 221.943 255.691 221.476C261.688 212.508 267.617 203.498 273.711 194.588C275.403 192.117 274.87 191.637 271.907 190.539C264.558 187.822 259.836 190.525 255.449 195.569C247.921 204.225 240.187 212.727 232.525 221.284C230.315 223.751 228.634 226.749 224.225 226.575C222.671 226.513 221.49 228.081 220.882 229.577C219.794 232.253 219.052 234.977 219.466 238.761C221.896 235.437 223.908 232.795 225.779 230.071C226.681 228.76 227.356 228.266 228.645 229.724C231.153 232.562 233.222 231.148 235.167 229.017C238.563 225.302 240.631 220.927 242.718 216.529C244.783 212.175 247.608 208.425 253.917 207.69ZM189.535 241.149C192.051 241.238 193.098 240.165 194.294 239.406C201.141 235.049 205.363 228.763 209.053 222.131C213.123 214.813 217.226 207.581 222.992 201.168C227.132 196.564 230.505 191.376 234.191 186.49C232.573 185.091 230.721 186.429 229.182 185.338C229.558 184.881 229.83 184.398 230.248 184.072C233.103 181.876 235.92 179.625 238.894 177.573C240.422 176.52 242.42 176.029 243.911 174.942C245.785 173.576 246.918 171.614 245.1 169.6C243.311 167.62 241.656 169.092 240.18 170.296C238.287 171.844 236.345 173.35 234.552 174.99C214.073 193.713 202.736 217.671 189.535 241.149ZM274.113 175.371C276.357 173.93 278.191 172.767 280.006 171.579C287.653 166.584 294.839 160.755 303.109 156.878C308.401 154.397 313.995 153.286 316.615 147.624C317.543 145.621 320.644 144.242 318.967 141.579C317.334 138.989 314.427 137.911 311.3 138.292C305.967 138.941 300.686 139.939 294.954 140.859C297.317 143.116 300.463 142.728 302.542 144.773C295.394 151.031 288.305 157.248 281.198 163.452C277.602 166.584 274.24 169.823 274.113 175.371ZM286.069 185.07C286.572 185.146 286.934 185.314 287.132 185.214C296.989 180.202 306.828 175.161 316.678 170.138C317.986 169.469 318.467 168.567 318.404 167.14C318.18 162.103 312.963 159.811 307.834 162.686C305.159 164.186 303.135 166.409 300.996 168.502C298.566 170.88 296.072 174.218 292.468 173.937C286.502 173.473 286.751 176.884 286.386 180.301C286.215 181.89 286.17 183.488 286.069 185.07ZM104.819 707.675C106.06 713.601 107.506 718.953 109.604 724.141C111.151 727.966 113.246 731.644 114.36 735.562C115.299 738.873 119.298 741.258 117.796 745.269C117.748 745.396 118.504 745.996 118.638 745.934C120.416 745.094 123.651 745.855 122.626 742.102C121.117 736.568 120.14 730.906 119.03 725.283C117.483 717.467 112.157 712.263 104.819 707.675ZM93.9402 305.7C88.0294 315.608 82.2154 336.149 83.7509 341.68C93.7576 331.295 96.8584 319.437 93.9402 305.7ZM257.38 185.098C255.293 179.872 255.296 179.876 258.624 174.705C260.287 172.125 261.703 169.377 263.648 166.992C266.011 164.097 264.01 163.067 261.744 161.691C258.397 159.66 259.116 162.879 258.188 163.904C256.485 165.785 254.946 167.795 253.202 169.644C251.432 171.525 249.825 173.456 249.199 175.927C247.872 181.169 251.282 185.163 257.38 185.098ZM1189.72 444.541C1189.74 450.785 1187.28 456.549 1187.02 462.526C1186.81 467.363 1189.13 470.331 1193.78 472.074C1196.66 473.151 1197.56 472.544 1197.96 469.611C1198.5 465.645 1195.45 462.992 1194.55 459.585C1193.22 454.511 1191.36 449.55 1189.72 444.541ZM861.871 1082.88C870.313 1076.81 878.329 1071.04 886.365 1065.29C887.863 1064.21 887.162 1062.99 886.499 1062.03C885.422 1060.45 884.423 1061.95 883.603 1062.44C877.651 1066.03 871.886 1069.88 865.8 1073.26C861.898 1075.41 860.575 1078.13 861.871 1082.88ZM355.334 137.682C346.535 142.327 337.735 146.969 328.63 151.776C338.306 157.2 347.25 151.059 355.334 137.682ZM1129.46 274.519C1127.85 275.267 1127.87 276.289 1128.75 277.641C1130.59 280.434 1132.35 283.268 1134.16 286.081C1139.13 293.835 1140.23 293.822 1145.11 285.92C1145.4 285.457 1145.6 284.942 1145.78 284.434C1146.18 283.299 1145.32 282.173 1144.56 282.101C1139.24 281.594 1135.91 277.833 1131.61 275.689C1130.96 275.363 1130.34 274.999 1129.46 274.519ZM1197.64 433.339C1197.64 442.832 1197.64 451.993 1197.64 461.737C1199.9 459.939 1201.31 458.745 1202.81 457.64C1204.58 456.336 1205.61 454.758 1204.99 452.655C1203.06 446.126 1200.41 439.837 1197.64 433.339ZM506.869 314.641C510.671 315.008 513.712 316.092 516.626 314.315C521.076 311.604 525.411 308.722 529.879 306.036C531.575 305.017 531.31 303.984 530.643 302.598C529.753 300.745 528.631 301.651 527.446 302.19C524.919 303.329 522.34 304.372 519.843 305.562C515.259 307.748 510.555 309.81 506.869 314.641ZM275.418 963.163C275.518 965.156 274.799 967.506 278.038 967.451C279.588 967.424 282.063 966.745 281.746 965.369C281.187 962.947 279.305 960.157 276.901 959.591C274.702 959.073 276.178 962.082 275.418 963.163ZM284.821 965.87C284.511 966.158 284.198 966.446 283.889 966.734C286.382 970.44 288.872 974.145 291.373 977.847C291.842 978.544 292.304 979.343 293.43 978.804C294.127 978.472 294.813 977.803 294.332 977.182C291.306 973.301 288.507 969.232 284.821 965.87ZM1152.11 269.431C1153 268.998 1155.09 269.99 1154.69 267.87C1154.59 267.341 1154.84 265.173 1153.48 266.171C1152.17 267.135 1149.43 265.272 1149.45 268.017C1149.46 269.63 1150.87 269.386 1152.11 269.431ZM1134.7 242.594C1133.85 243.503 1131.93 243.897 1132.92 245.623C1133.09 245.929 1134.14 246.162 1134.48 245.97C1135.93 245.16 1135.23 243.898 1134.7 242.594ZM1169.94 770.558C1170.07 769.896 1169.62 769.409 1168.91 769.193C1168.3 769.007 1167.83 769.378 1167.62 769.893C1167.26 770.73 1167.96 771.069 1168.6 771.303C1169.19 771.516 1169.66 771.224 1169.94 770.558ZM149.553 786.073C149.922 788.039 150.824 788.808 152.244 789.679C152.207 787.861 150.783 787.449 149.553 786.073Z" fill="#F4F8F9"/>
<path d="M1202.35 595.467C1202.14 593.917 1202 592.894 1201.69 590.62C1198.54 599.495 1195.81 607.217 1193.08 614.94C1192.86 614.957 1192.64 614.974 1192.42 614.991C1192.28 612.397 1191.99 609.8 1192.03 607.21C1192.19 597.097 1192.56 586.987 1192.61 576.873C1192.63 572.424 1193.94 568.249 1194.59 563.94C1195.18 559.985 1197.02 558.907 1201.01 559.395C1204.22 559.786 1205.56 560.619 1205.52 564.029C1205.41 574.417 1205.55 584.808 1202.35 595.467Z" fill="#F4F8F9"/>
<path d="M1188.44 689.713C1187.46 690.965 1186.47 692.217 1185.49 693.469C1183.57 693.137 1184.51 691.754 1184.65 690.9C1186.21 681.5 1187.77 672.097 1189.51 662.728C1191.41 652.47 1192.04 642.13 1192.03 631.338C1194.57 632.634 1194.73 635.602 1197.36 637.214C1197.83 631.475 1198.23 626.116 1198.73 620.768C1199.24 615.197 1199.85 609.636 1200.39 604.064C1200.51 602.867 1200.69 601.831 1202.31 602.099C1203.82 602.349 1203.36 603.399 1203.26 604.329C1202 616.552 1201.07 628.82 1199.39 640.988C1197.48 654.872 1194.84 668.656 1192.68 682.509C1192.45 684.004 1190.65 684.478 1190.96 686.039L1191.09 685.877C1189.29 686.564 1188.43 687.85 1188.44 689.713Z" fill="#F4F8F9"/>
<path d="M1208.95 522.049C1208.32 531.446 1207.7 540.842 1207.04 550.235C1206.98 551.052 1207.49 552.455 1205.94 552.386C1204.55 552.324 1204.82 551.031 1204.85 550.136C1205.32 537.58 1205.81 525.024 1206.3 512.471C1206.34 511.469 1206.35 510.522 1207.86 510.704C1209.09 510.855 1209.57 511.528 1209.49 512.639C1209.28 515.775 1209.05 518.91 1208.82 522.042C1208.87 522.046 1208.91 522.046 1208.95 522.049Z" fill="#F4F8F9"/>
<path d="M1078.52 947.146C1072.79 958.796 1064.12 967.73 1052.96 973.171C1061.14 964.844 1069.83 955.997 1078.52 947.146Z" fill="#F4F8F9"/>
<path d="M770.622 25.2768C760.434 22.0006 751.153 19.0159 741.872 16.0313C740.749 15.6711 740.369 15.033 740.728 13.8426C741.151 12.4395 741.943 12.7414 742.977 13.0467C747.531 14.3949 752.117 15.6471 756.671 17.0022C758.047 17.4104 759.149 18.7724 760.891 17.5374C761.334 17.2252 763.182 17.8392 763.471 18.443C764.843 21.3042 768.18 22.0795 770.622 25.2768Z" fill="#F4F8F9"/>
<path d="M586.423 3.86957C581.115 5.51626 575.935 7.07032 570.793 8.7376C568.034 9.63298 568.312 8.13724 568.85 6.51113C569.977 3.12512 572.296 0.775159 575.977 0.462974C579.651 0.15422 583.938 -1.43758 586.423 3.86957Z" fill="#F4F8F9"/>
<path d="M82.9356 472.261C82.0733 477.352 81.1864 482.439 80.3629 487.537C80.1764 488.7 80.1201 489.668 78.4061 489.308C76.9596 489.006 76.3754 488.714 76.5866 486.944C77.2025 481.781 78.4695 476.789 80.0637 471.863C80.3418 471.005 79.9582 469.338 81.7812 469.64C83.4529 469.918 82.9286 471.197 82.9356 472.261Z" fill="#F4F8F9"/>
<path d="M62.8677 679.596C65.9226 696.115 68.9739 712.633 72.0287 729.152C71.5501 729.234 71.075 729.316 70.5963 729.402C67.6612 712.825 64.726 696.245 61.7908 679.669C62.1498 679.641 62.5087 679.617 62.8677 679.596Z" fill="#F4F8F9"/>
<path d="M1153.89 833.03C1153.26 832.872 1153.62 832.135 1153.78 831.528C1155.39 825.504 1157.01 819.486 1158.64 813.469C1158.94 812.337 1159.57 811.97 1160.78 812.436C1161.97 812.893 1162.14 813.49 1161.73 814.625C1159.59 820.491 1157.51 826.385 1155.45 832.276C1155.24 832.862 1155.02 833.257 1153.89 833.03Z" fill="#F4F8F9"/>
<path d="M1177.15 793.502C1174.65 801.757 1172.15 810.007 1169.65 818.261C1170.08 809.445 1172.24 801.081 1175.8 793.084C1176.25 793.225 1176.71 793.362 1177.15 793.502Z" fill="#F4F8F9"/>
<path d="M429.193 49.737C437.974 47.0645 446.755 44.3955 455.536 41.7231C455.655 42.0764 455.771 42.4332 455.891 42.7865C447.378 46.2549 438.372 48.2755 429.675 51.2053C429.513 50.7147 429.355 50.2241 429.193 49.737Z" fill="#F4F8F9"/>
<path d="M130.483 867.172C133.249 871.048 136.005 874.932 138.789 878.798C139.44 879.704 139.616 880.496 138.62 881.292C138.025 881.769 137.518 881.529 137.233 881.072C134.499 876.726 131.81 872.355 129.103 867.992C129.564 867.721 130.022 867.446 130.483 867.172Z" fill="#F4F8F9"/>
<path d="M1173.06 270.345C1174.81 273.704 1176.58 277.056 1178.32 280.418C1178.89 281.519 1179.66 282.555 1177.7 283.313C1175.68 284.099 1175.61 282.606 1175.33 281.56C1174.36 277.9 1173.51 274.205 1172.61 270.524C1172.76 270.462 1172.91 270.404 1173.06 270.345Z" fill="#F4F8F9"/>
<path d="M88.9642 780.326C91.2765 785.574 93.645 790.806 95.3273 796.288C94.9085 796.443 94.4862 796.6 94.0674 796.755C91.998 791.413 89.9285 786.075 87.8591 780.734C88.2287 780.6 88.5947 780.463 88.9642 780.326Z" fill="#F4F8F9"/>
<path d="M231.688 975.795C228.26 972.93 224.832 970.066 221.404 967.198C220.798 966.694 220.587 966.134 221.157 965.462C221.696 964.827 222.389 964.683 222.963 965.242C226.222 968.419 229.435 971.644 232.662 974.852C232.335 975.164 232.011 975.479 231.688 975.795Z" fill="#F4F8F9"/>
<path d="M59.7429 626.672C59.7429 622.844 59.7429 617.272 59.7429 611.701C61.302 617.403 59.3276 622.943 59.7429 626.672Z" fill="#F4F8F9"/>
<path d="M119.794 848.056C122.804 850.921 124.778 854.444 126.4 858.187C123.595 855.192 121.023 852.049 119.794 848.056Z" fill="#F4F8F9"/>
<path d="M108.406 823.792C104.974 820.804 103.44 818.045 102.342 815.009C104.939 817.095 106.928 819.565 108.406 823.792Z" fill="#F4F8F9"/>
<path d="M1166.56 827.802C1165.96 830.001 1165.35 832.197 1164.76 834.399C1164.6 835.03 1164.67 835.888 1163.6 835.603C1162.64 835.349 1162.18 834.697 1162.64 833.758C1163.65 831.692 1164.72 829.658 1165.76 827.61C1166.03 827.675 1166.3 827.74 1166.56 827.802Z" fill="#F4F8F9"/>
<path d="M1163.56 741.34C1164.3 743.748 1164.4 745.79 1161.35 746.692C1160.33 742.959 1160.33 742.959 1163.56 741.34Z" fill="#F4F8F9"/>
<path d="M1192.32 621.235C1193.21 622.528 1195.69 623.073 1194.45 625.296C1194.22 625.698 1193.29 626.206 1193.11 626.079C1191.31 624.844 1192.43 622.946 1192.32 621.235Z" fill="#F4F8F9"/>
<path d="M1020.78 122.922C1020.14 120.215 1019.51 117.505 1018.87 114.798C1020.5 117.286 1021.74 119.862 1022.04 122.685C1021.62 122.764 1021.2 122.843 1020.78 122.922Z" fill="#F4F8F9"/>
<path d="M680.134 1119.84C680.433 1121.25 682.281 1122.47 680.93 1124.02C680.722 1124.26 679.444 1124.02 679.043 1123.63C677.47 1122.09 679.371 1121.13 680.134 1119.84Z" fill="#F4F8F9"/>
<path d="M1099.19 925.663C1099.54 923.252 1100.48 921.245 1103.23 918.981C1102.4 922.363 1100.88 924.092 1099.19 925.663Z" fill="#F4F8F9"/>
<path d="M58.5955 647.132C60.9359 648.367 60.7141 650.563 61.0415 653.009C58.8453 651.259 59.9715 648.728 58.6025 647.126L58.5955 647.132Z" fill="#F4F8F9"/>
<path d="M1083.61 956.885C1082.75 958.007 1081.89 959.129 1081.03 960.254C1080.92 958.419 1082.05 957.499 1083.61 956.885Z" fill="#F4F8F9"/>
<path d="M723.662 11.1735C725.672 10.676 726.847 11.4067 728.308 12.0517C726.597 12.4256 725.228 12.3399 723.662 11.1735Z" fill="#F4F8F9"/>
<path d="M708.11 7.31737C709.331 6.36023 709.993 7.28307 710.697 7.99663C709.799 8.1613 708.86 8.50779 708.11 7.31737Z" fill="#F4F8F9"/>
<path d="M470.444 38.6492C469.068 40.2067 467.885 40.7384 465.957 40.9031C467.03 39.3147 468.188 38.7727 470.444 38.6492Z" fill="#F4F8F9"/>
<path d="M1178.63 633.372C1179.3 634.648 1178.98 635.67 1178.63 636.689C1178.63 635.677 1178.63 634.665 1178.63 633.372Z" fill="#F4F8F9"/>
<path d="M58.6026 647.125C58.6026 645.983 58.6026 644.844 58.6026 643.582C59.6162 644.851 58.9264 645.986 58.5991 647.129C58.5956 647.132 58.6026 647.125 58.6026 647.125Z" fill="#F4F8F9"/>
<path d="M74.9216 742.174C74.3797 741.433 73.6159 740.897 73.9996 739.841C75.1011 740.321 75.2454 741.1 74.9216 742.174Z" fill="#F4F8F9"/>
<path d="M961.578 80.8082C961.715 81.1341 961.856 81.4668 961.997 81.803C961.785 81.7482 961.536 81.7447 961.377 81.6281C961.17 81.4737 961.029 81.2267 960.86 81.0174C961.06 80.9591 961.257 80.9042 961.578 80.8082Z" fill="#F4F8F9"/>
<path d="M241.492 979.095C241.228 979.112 240.957 979.208 240.795 979.119C240.549 978.982 239.909 979.061 240.225 978.498C240.289 978.381 240.774 978.392 241 978.488C241.2 978.573 241.309 978.858 241.492 979.095Z" fill="#F4F8F9"/>
<path d="M340.402 1002.64C339.434 1003.08 338.755 1003.51 338.005 1003.69C337.28 1003.85 337.041 1003.19 337.238 1002.69C337.534 1001.95 338.097 1001.27 339.065 1001.57C339.498 1001.7 339.825 1002.16 340.402 1002.64Z" fill="#F4F8F9"/>
<path d="M412.779 1019.34C411.325 1020.26 409.914 1020.41 408.584 1019.49C408.425 1019.38 408.471 1018.59 408.668 1018.45C410.252 1017.39 411.459 1018.61 412.779 1019.34Z" fill="#F4F8F9"/>
<path d="M475.86 1047.01C473.541 1045.89 471.222 1044.76 468.903 1043.64C469.036 1043.37 469.17 1043.1 469.304 1042.84C471.641 1043.92 473.978 1045.01 476.315 1046.09C476.167 1046.4 476.012 1046.71 475.86 1047.01Z" fill="#F4F8F9"/>
<path d="M716.173 285.18C716.197 286.367 715.353 286.837 714.378 287.156C709.053 288.899 703.739 290.662 698.382 292.309C697.72 292.511 696.545 293.633 696.052 291.921C695.714 290.751 696.211 290.106 697.319 289.749C703.049 287.904 708.771 286.041 714.501 284.206C715.384 283.921 716.24 283.839 716.173 285.18Z" fill="#F4F8F9"/>
<path d="M1152.15 345.061C1153.53 346.392 1153.91 348.158 1154.29 349.929C1153.42 348.364 1151.84 347.098 1152.22 344.995C1152.23 344.999 1152.15 345.061 1152.15 345.061Z" fill="#F4F8F9"/>
<path d="M314.274 198.107C315.323 199.939 315.273 201.665 313.82 203.287C312.437 204.831 310.765 204.049 309.699 203.188C307.893 201.737 310.17 201.222 310.846 200.574C311.8 199.665 312.581 198.423 314.274 198.107Z" fill="#F4F8F9"/>
</svg>
