<svg width="29" height="20" viewBox="0 0 29 20" fill="none" xmlns="http://www.w3.org/2000/svg">
<path d="M27.6955 15.0569C27.3032 14.4287 27.1665 13.7115 26.8752 13.0536C26.5363 12.3009 26.3639 11.4593 25.7338 10.8488C25.4187 10.5406 25.5198 10.1731 25.924 9.93013C26.572 9.53895 26.6077 9.34929 26.1618 8.76845C25.9894 8.54916 25.9062 8.36542 25.9181 8.20539C25.9181 8.20539 25.9181 8.19947 25.924 8.19354C25.924 8.13427 25.9478 8.08093 25.9835 8.02758V8.02166C26.0191 7.84978 26.0548 7.59492 25.93 7.43489C25.3117 7.09705 25.2523 6.99037 25.5198 6.43324C25.7397 5.97093 25.7695 5.55012 25.4841 5.12338C25.3355 4.90408 25.3236 4.63737 25.3236 4.40029C25.3177 3.93206 25.068 3.68906 24.6875 3.51718C23.9861 3.20305 23.4867 2.65777 23.023 1.99988C23.023 1.99988 22.5653 1.61463 22.2562 1.46646L22.2502 1.46053C22.2383 1.46053 22.2264 1.4546 22.2146 1.44867C21.2753 0.980446 20.2766 0.666318 19.266 0.405532H19.2601C19.2601 0.405532 17.9879 0.21587 17.6966 0.126966C17.6609 0.115112 17.6015 0.103258 17.5242 0.0854772C17.4886 0.0795502 17.4469 0.0736233 17.3994 0.0676963C16.8525 -0.0212078 15.8181 -0.0804773 15.83 0.281066C15.4258 0.71966 15.0096 0.464802 14.6708 0.328482C13.4224 -0.181235 12.3405 0.144747 11.2585 0.879688C11.2526 0.885615 11.2526 0.885615 11.2526 0.885615C11.2526 0.885615 11.2942 1.2116 10.5392 1.27087C10.5095 1.27087 10.4738 1.27679 10.4382 1.27679C9.60592 1.34199 9.49892 2.01766 9.36219 2.6637C9.17196 2.67555 9.02929 2.62814 8.91634 2.53923H8.9104C8.86284 2.5096 8.58938 2.32586 8.25054 2.52738C7.87602 2.74668 7.87008 3.01932 7.78685 3.19712C7.75119 3.29788 7.69174 3.39864 7.63229 3.4994C7.48962 3.72462 7.30534 3.73648 7.07944 3.64164C6.75248 3.4994 6.53253 3.65943 6.37797 3.93799C6.24719 4.18692 6.12235 4.44178 6.02129 4.70849C5.94995 4.87445 5.90239 5.0404 5.71217 5.13523C5.43871 5.13523 5.24848 4.92779 5.01664 4.83889C5.01664 4.83889 4.95125 4.67293 4.75507 4.67886C4.75507 4.68479 4.76102 4.68479 4.76102 4.69071C4.26761 4.89223 4.36273 5.47307 4.08333 5.81091C2.95384 5.59754 2.57338 5.82276 2.52582 6.7118C2.52582 6.7118 2.54366 7.91497 3.10246 8.15205L2.68039 8.72104C2.42477 8.94626 2.19887 9.18334 1.9373 9.36115C1.12288 9.92421 0.91482 10.8192 0.653255 11.6845C0.617587 11.809 0.629476 11.9334 0.754314 12.0164C0.873207 12.0994 0.986156 12.052 1.0991 11.9868C1.25961 11.892 1.3785 11.7023 1.59846 11.7556C1.68763 11.8268 1.66385 11.9216 1.68168 12.0046C1.81246 12.538 1.94325 12.6091 2.47827 12.4313C2.53177 12.4195 2.57933 12.4017 2.62688 12.378C2.98356 12.2298 3.25107 12.3128 3.40564 12.6802C3.47697 12.8462 3.54236 13.0181 3.76232 13.024C4.09522 12.8818 4.12494 12.3957 4.52323 12.3365C5.01664 12.538 4.71941 13.2374 5.19498 13.4389C5.42682 13.267 5.28415 12.8936 5.623 12.8166C5.93806 13.0773 6.0629 13.5456 6.45525 13.6997C6.71681 13.6641 6.80004 13.3618 7.06755 13.3559C7.13294 13.7708 6.94866 14.0197 6.66926 14.2864C5.71811 15.1873 4.60646 15.5015 3.3343 15.3414C2.97762 15.2999 2.63877 15.3414 2.25831 15.6556C4.32111 16.8765 6.49686 17.1788 8.78556 17.0721C8.86878 17.1314 8.88662 17.244 8.92229 17.3388C9.03523 17.6648 9.13035 17.9611 9.58809 17.6826C9.79615 17.5522 9.99827 17.7181 10.0637 17.9552C10.135 18.2101 10.2955 18.3997 10.4441 18.5953C10.6462 18.8561 10.8365 18.8443 11.0445 18.5894C11.2288 18.3701 11.3893 18.133 11.5796 17.9256C11.8649 17.6174 12.0967 17.6115 12.4059 17.89C12.495 17.973 12.5426 18.1093 12.6377 18.1804C13.0241 18.4827 13.2738 19.105 13.9277 18.7257C14.1179 19.1821 14.0466 19.7214 14.4746 20C14.6886 19.9941 14.7599 19.8637 14.8491 19.7511C15.0631 19.4725 15.2236 19.1584 15.509 18.9213C16.4066 18.1864 17.4826 17.9611 18.5824 17.8604C19.2957 17.7952 20.021 17.8307 20.7403 17.8248C21.0732 17.8248 21.3585 17.8841 21.5131 18.2516C21.5963 18.4353 21.7628 18.6072 21.9768 18.6665C22.387 18.7791 22.7971 18.8976 23.2133 18.9747C24.3249 19.1762 25.4425 19.188 26.5661 19.0043C27.4578 18.8561 28.3376 17.9374 28.3613 17.0306C28.3851 16.2897 28.0641 15.6496 27.6955 15.0569ZM7.05566 13.0181C6.60981 13.1248 6.50281 13.0833 6.31258 12.6565C5.9559 11.8386 5.9559 11.8386 5.1712 12.2476C4.96908 12.0757 5.05231 11.9394 5.18309 11.7556C5.62894 11.1096 5.73 10.3509 5.79539 9.58637C5.80134 9.54488 5.75378 9.49747 5.71811 9.42634C5.20687 9.61601 5.40304 10.1257 5.24848 10.4576C5.07014 10.8192 5.04042 11.2341 4.9453 11.6549C4.28545 11.3289 4.15466 12.0105 3.76232 12.2357C3.51264 12.1824 3.58398 11.7556 3.26891 11.7675C3.03707 11.7734 2.81117 11.8268 2.59716 11.8979C2.3356 11.7853 2.23454 11.5067 2.00864 11.3526C1.77085 11.1926 1.53901 11.2993 1.25367 11.3645C1.50929 10.0724 2.28804 9.34929 3.4413 8.98182C4.08333 8.77438 4.70752 8.77438 5.35549 9.00553C6.94866 9.58044 8.56561 10.0724 10.135 10.7066C11.3418 11.1926 12.5426 11.7023 13.7494 12.3305C13.4581 12.5498 13.2738 12.372 13.0776 12.2772C12.3821 11.9453 12.3405 11.9571 11.8708 12.5854C11.8292 12.6447 11.8054 12.7099 11.7519 12.8166C10.8365 11.8682 10.1291 12.6565 9.38597 12.9766C8.91634 12.3543 8.81528 12.3246 8.07814 12.5913C7.73335 12.7217 7.41829 12.9232 7.05566 13.0181ZM3.86932 15.7978C4.95719 15.7326 6.05696 15.7563 7.0081 14.9503C6.90704 15.8334 7.67985 16.0764 8.16137 16.6217C6.65142 16.4913 5.20687 16.432 3.86932 15.7978ZM14.1536 17.2855C13.9871 17.5581 13.7969 17.813 13.5294 18.0145C13.2143 17.9789 12.9587 17.8367 12.7269 17.6352C12.5426 17.4692 12.3524 17.3092 12.1502 17.1669C11.7044 16.8528 11.5617 16.8647 11.205 17.2677C11.0089 17.487 10.8424 17.7359 10.6225 18.0204C10.3609 17.4751 10.3847 16.5861 9.45136 17.0602C9.2968 17.0188 9.23735 16.9299 9.19574 16.8291C8.99362 16.3312 8.67855 15.9638 8.1792 15.7326C7.90575 15.6081 7.78091 15.3711 7.7928 15.0392C7.81658 14.5532 7.88791 14.0849 8.00681 13.6167C8.0722 13.3441 8.22082 13.1425 8.47049 13.024C9.19574 13.8064 9.19574 13.8064 10.2063 13.3441C10.2242 13.3381 10.2479 13.3381 10.2598 13.3322C10.8424 12.9114 11.3715 12.8995 11.7638 13.5515C12.0848 13.4389 12.0848 13.4389 12.6258 12.7454C12.8577 12.7514 12.9647 12.9647 13.1371 13.0773C13.3689 13.2255 13.5829 13.3203 13.8623 13.1188C14.4568 12.698 14.7183 12.7454 15.1999 13.2966C15.2117 13.3085 15.2236 13.3263 15.2355 13.3381C15.7349 13.8182 15.8657 14.3042 15.4555 14.9621C14.9858 15.7148 14.6173 16.5268 14.1536 17.2855ZM14.4984 18.9272C14.3438 18.4649 14.4746 18.1449 14.6054 17.813C15.0275 16.7343 15.6457 15.7741 16.2521 14.808C16.686 14.9503 16.8763 15.3296 17.1854 15.5607C18.2435 16.3372 19.4146 16.7639 20.7106 16.8765C21.0851 16.9121 21.0851 16.9121 21.1683 17.3566C18.7013 16.7639 16.3947 16.918 14.4984 18.9272ZM20.2944 16.1475C19.8189 16.029 19.3552 15.8452 18.8915 15.6733C17.7917 15.2822 16.9298 14.5472 16.1807 13.676C15.1761 12.5024 13.898 11.7319 12.5129 11.1155C10.2658 10.1198 7.95925 9.2841 5.6765 8.38913C5.09987 8.1639 4.5054 7.99202 3.92282 7.78458C3.16785 7.51787 2.98356 7.00815 3.36402 6.29099C3.61964 6.26728 3.76826 6.48065 3.95849 6.59326C4.34489 6.82441 4.52323 6.777 4.6659 6.3384C4.76102 6.05391 4.82047 5.75756 4.8918 5.49085C5.09987 5.38417 5.21281 5.53234 5.34954 5.60346C5.81323 5.84647 5.90834 5.82276 6.24124 5.40787C6.52064 5.05818 6.65737 4.61959 6.99027 4.26397C7.4064 4.46549 7.66796 4.24027 7.88197 3.8965C7.95331 3.77796 8.03059 3.6535 8.11381 3.54089C8.53588 2.96597 8.53588 2.96597 9.14224 3.35122C9.39191 3.51718 9.66537 3.42827 9.77832 3.126C9.86749 2.89485 9.9091 2.64592 9.98044 2.40884C10.0696 2.07693 10.2777 1.9169 10.6165 2.04137C11.1515 2.23103 11.5617 2.071 11.859 1.61463C12.4772 0.666318 13.3867 0.725587 14.32 0.891542C14.6886 0.956738 15.0512 1.03972 15.4139 1.10491C15.6576 1.15233 15.9073 1.11084 16.0202 0.879688C16.1688 0.583341 16.4007 0.607048 16.6504 0.630756C17.7442 0.749295 18.8142 0.968592 19.8843 1.2116C20.6749 1.38941 21.4655 1.58499 22.1432 2.06508C22.6247 2.40291 23.0528 2.80002 23.3916 3.28603C23.671 3.68313 24.0277 4.00911 24.426 4.2699C24.9669 4.61959 24.9194 5.27155 25.2166 5.73978C25.3058 5.8761 25.1156 6.02428 25.0383 6.1606C24.5746 6.99037 24.5746 7.00222 25.3296 7.59492C25.4009 7.64826 25.4604 7.70753 25.5198 7.76087C25.502 8.075 25.1215 8.28244 25.3177 8.61435C25.4663 8.87514 25.6862 9.10036 25.716 9.41449C25.6803 9.54488 25.5852 9.62193 25.4782 9.68713C25.0145 9.98348 24.8718 10.3687 25.0621 10.914C25.2404 11.4415 25.2047 11.4534 24.6757 11.6252C24.4319 11.7023 24.3071 11.8564 24.2714 12.1231C24.2298 12.3957 24.2774 12.6565 24.3546 12.9114C24.4914 13.3855 24.5805 13.8182 24.1347 14.2272C23.8731 14.4702 23.9445 14.8673 23.9682 15.1992C23.992 15.5667 23.8731 15.7978 23.4867 15.8156C23.0052 15.8393 22.9339 16.2423 22.7912 16.5979C21.9173 16.6217 21.1089 16.349 20.2944 16.1475ZM26.1143 18.376C24.9253 18.5183 23.7483 18.4057 22.5831 18.216C22.0243 18.1271 21.7925 17.6233 21.9589 17.0484C23.3559 17.2025 23.3559 17.2025 23.4927 16.4676C23.5818 16.3549 23.7126 16.3786 23.8315 16.3668C24.3665 16.3253 24.4973 16.189 24.527 15.6378C24.5389 15.4066 24.5389 15.1755 24.5389 14.9443C24.5389 14.7784 24.5568 14.6065 24.7054 14.5176C25.0561 14.3042 25.0561 13.9723 25.0442 13.6226C25.0383 13.2374 25.0799 12.8462 24.9848 12.3424C25.4722 12.7928 25.823 13.2137 26.144 13.6582C26.7385 14.4761 27.3745 15.2762 27.6064 16.2897C27.8917 17.5522 27.3805 18.2279 26.1143 18.376Z" fill="#ACACAC"/>
<path d="M4.68213 6.81494C4.93953 6.53459 5.20466 6.62765 5.42521 6.68988C6.77346 7.06861 8.09734 7.51432 9.41289 8.00863C11.2094 8.6843 12.9975 9.38249 14.8011 10.0404C16.6909 10.7297 18.5932 11.3899 20.4462 12.1842C21.323 12.5593 22.188 12.957 23.0535 13.3547C23.2218 13.4324 23.4381 13.4709 23.459 13.7269C23.3109 13.9391 23.1266 13.8775 22.943 13.7981C21.5483 13.1935 20.1085 12.7051 18.702 12.1314C16.6939 11.3123 14.6478 10.5868 12.6296 9.79145C11.4317 9.31967 10.2695 8.75601 9.06751 8.29371C7.95348 7.86519 6.80319 7.53743 5.64695 7.23397C5.32534 7.14863 4.95558 7.13025 4.68213 6.81494Z" fill="#ACACAC"/>
<path d="M6.86279 5.58746C10.0878 6.61045 13.2289 7.84504 16.4605 9.02272C16.2387 9.30306 16.0663 9.28054 15.8749 9.21712C14.1194 8.63747 12.3652 8.06137 10.6591 7.3371C9.72277 6.93999 8.7639 6.58971 7.82464 6.19438C7.47807 6.04858 7.1089 5.93597 6.86279 5.58746Z" fill="#ACACAC"/>
<path d="M17.4603 5.74453C18.1974 5.62303 23.6493 7.70991 24.5113 8.44663C24.4126 8.66177 24.2295 8.64162 24.0672 8.57643C22.2392 7.83852 20.3821 7.17648 18.5737 6.38998C18.2848 6.26432 17.9947 6.14104 17.6987 6.03436C17.5512 5.98102 17.4359 5.92827 17.4603 5.74453Z" fill="#ACACAC"/>
<path d="M19.0723 4.4145C18.4339 4.60179 13.4856 3.02285 12.3145 2.28258C12.4096 2.10181 12.554 2.02653 12.7448 2.09055C14.4296 2.6542 16.1125 3.222 17.7954 3.79158C18.0927 3.89174 18.3857 4.00495 18.6812 4.11045C18.8304 4.16261 18.9802 4.21299 19.0723 4.4145Z" fill="#ACACAC"/>
<path d="M16.3696 12.5042C17.0176 12.455 21.7811 14.8115 22.3 15.4327C22.1835 15.751 21.9766 15.6757 21.7537 15.5601C20.8929 15.1132 20.0274 14.6758 19.1708 14.2218C18.3938 13.8099 17.6251 13.3808 16.8535 12.9576C16.6574 12.8497 16.4368 12.765 16.3696 12.5042Z" fill="#ACACAC"/>
<path d="M14.6747 6.75332C12.5685 6.13336 10.5628 5.38301 8.51367 4.69667C8.70033 4.31675 8.96547 4.48863 9.17947 4.53131C10.69 4.83062 12.1429 5.32018 13.5637 5.90991C13.8389 6.0243 14.1082 6.15529 14.387 6.2602C14.5731 6.33013 14.6753 6.43682 14.6747 6.75332Z" fill="#ACACAC"/>
<path d="M22.2959 3.81471C21.5813 3.87398 20.9988 3.43065 20.3437 3.3044C19.6725 3.1752 19.0014 3.04362 18.3076 2.90848C18.3778 2.59376 18.6001 2.64296 18.7749 2.63169C19.3473 2.59495 19.9115 2.71526 20.453 2.85099C21.0606 3.00331 21.6331 3.2967 22.2198 3.53259C22.2905 3.56104 22.3167 3.63038 22.2959 3.81471Z" fill="#ACACAC"/>
<path d="M14.8533 13.9266C14.4354 15.224 13.7862 16.3845 12.8476 17.465C12.7929 16.9357 14.3825 14.1193 14.8533 13.9266Z" fill="#ACACAC"/>
<path d="M10.959 14.0109C11.107 14.7476 10.1333 16.3852 9.38428 16.6655C9.8331 15.6591 10.3455 14.8069 10.959 14.0109Z" fill="#ACACAC"/>
<path d="M11.7412 15.8915C12.2073 15.022 12.5616 14.0933 13.2357 13.2919C13.4259 13.9676 12.4385 15.7137 11.7412 15.8915Z" fill="#ACACAC"/>
<path d="M7.41335 10.1435C7.47517 11.096 7.14049 11.8688 6.73269 12.6921C6.57991 12.3833 6.82186 10.9502 7.07391 10.342C7.11612 10.2401 7.11612 10.2401 7.41335 10.1435Z" fill="#ACACAC"/>
<path d="M3.72075 11.8019C3.60304 11.7314 3.62682 11.6158 3.65179 11.5186C3.83191 10.8358 3.94189 10.1335 4.18681 9.46848C4.21 9.40625 4.2956 9.38372 4.37228 9.41039C4.60175 10.0446 4.2415 11.3704 3.72075 11.8019Z" fill="#ACACAC"/>
<path d="M8.88398 10.5999C9.1069 11.2198 9.01892 11.6335 8.62539 11.9192C8.41554 11.4326 8.52373 10.8037 8.88398 10.5999Z" fill="#ACACAC"/>
<path d="M2.4707 10.5738C2.54501 10.0842 2.64726 9.70729 3.03069 9.42694C3.21795 9.96748 3.0408 10.3468 2.4707 10.5738Z" fill="#ACACAC"/>
<path d="M8.91064 2.53925H8.91549V2.54405C8.91549 2.54405 8.91549 2.54405 8.91064 2.53925Z" fill="#ACACAC"/>
</svg>
