<svg width="24" height="24" viewBox="0 0 24 24" fill="none" xmlns="http://www.w3.org/2000/svg">
<path d="M12.8537 6.46357C12.7894 6.179 12.6265 5.98508 12.3523 5.88296C12.1893 5.82215 12.0195 5.81297 11.852 5.83362C11.6753 5.85427 11.51 5.91509 11.3746 6.04475C11.183 6.2272 11.1153 6.45554 11.1176 6.71142C11.1176 6.79403 11.1256 6.87435 11.1429 6.95582C11.2025 7.2381 11.3666 7.43201 11.6328 7.53184C11.8325 7.60643 12.0413 7.61446 12.2513 7.56397C12.5393 7.49512 12.7367 7.32874 12.8296 7.04303C12.8916 6.85141 12.8985 6.65978 12.8537 6.46357ZM12.8537 6.46357C12.7894 6.179 12.6265 5.98508 12.3523 5.88296C12.1893 5.82215 12.0195 5.81297 11.852 5.83362C11.6753 5.85427 11.51 5.91509 11.3746 6.04475C11.183 6.2272 11.1153 6.45554 11.1176 6.71142C11.1176 6.79403 11.1256 6.87435 11.1429 6.95582C11.2025 7.2381 11.3666 7.43201 11.6328 7.53184C11.8325 7.60643 12.0413 7.61446 12.2513 7.56397C12.5393 7.49512 12.7367 7.32874 12.8296 7.04303C12.8916 6.85141 12.8985 6.65978 12.8537 6.46357ZM12 0C5.37235 0 0 5.37235 0 12C0 18.6277 5.37235 24 12 24C18.6277 24 24 18.6277 24 12C24 5.37235 18.6277 0 12 0ZM8.13655 12.9788C7.90361 13.3058 7.5938 13.541 7.2117 13.673C7.16925 13.6879 7.14974 13.7005 7.15204 13.7441C7.15318 13.7854 7.15204 13.8267 7.15204 13.868C7.15204 15.4286 7.15204 16.988 7.15318 18.5485C7.15318 18.6472 7.13712 18.7378 7.09122 18.825C7.00975 18.9788 6.79977 19.0786 6.62536 19.0407C6.42456 18.996 6.27768 18.8193 6.2708 18.6231C6.26965 18.5909 6.2708 18.5588 6.2708 18.5267V13.8199C6.2708 13.7923 6.26965 13.7648 6.2708 13.7372C6.27195 13.6982 6.25473 13.6856 6.21801 13.6741C5.89443 13.5674 5.62364 13.3792 5.40103 13.1234C5.17958 12.8698 5.03156 12.5795 4.97304 12.2433C4.89271 11.7877 5.02352 11.3873 5.28055 11.0212C5.50545 10.7011 5.80379 10.4659 6.17671 10.3316C6.26965 10.2983 6.2708 10.2972 6.2708 10.202V5.41251C6.2708 5.2117 6.37636 5.04762 6.54733 4.97762C6.81125 4.86976 7.1245 5.04647 7.15204 5.36202C7.15433 5.39415 7.15204 5.42628 7.15204 5.45841V10.1515C7.15204 10.1744 7.15433 10.1985 7.15204 10.2203C7.1463 10.2788 7.16466 10.3018 7.22547 10.3247C7.75674 10.5221 8.13999 10.8835 8.35456 11.4068C8.5852 11.9679 8.48078 12.4946 8.13655 12.9788ZM13.5525 7.48594C13.3219 7.90361 12.9857 8.20425 12.5347 8.37177C12.4406 8.4062 12.4395 8.4062 12.4395 8.5152V18.5531C12.4395 18.7998 12.3351 18.9558 12.1239 19.0224C11.8554 19.1084 11.5731 18.9145 11.5594 18.6334C11.5571 18.5875 11.5582 18.5416 11.5582 18.4957V8.56799C11.5582 8.53586 11.5559 8.50373 11.5594 8.47275C11.5651 8.41538 11.5364 8.40161 11.4859 8.3821C10.9111 8.15835 10.5095 7.76477 10.3133 7.17269C10.1618 6.71371 10.2375 6.28342 10.4762 5.87722C10.7458 5.42169 11.1383 5.11991 11.6535 4.98795C11.9989 4.8996 12.3362 4.94435 12.6529 5.09352C13.2106 5.35628 13.58 5.78772 13.7258 6.39243C13.8187 6.77682 13.7407 7.144 13.5525 7.48594ZM18.8353 18.0677C18.5657 18.5462 18.171 18.8663 17.6328 19.0029C17.2209 19.1073 16.8342 19.0281 16.4773 18.8204C16.0172 18.5542 15.7051 18.1652 15.5697 17.642C15.4779 17.2863 15.525 16.9444 15.6776 16.6185C15.9013 16.1388 16.2639 15.8015 16.7619 15.619C16.833 15.5927 16.848 15.5628 16.848 15.494C16.8445 14.9799 16.8457 14.4659 16.8468 13.9518V10.4406H16.8457C16.8457 8.76535 16.848 7.09008 16.8445 5.4148C16.8434 5.20252 16.9937 5.01549 17.1589 4.96845C17.4286 4.89271 17.7097 5.0786 17.7269 5.35858C17.7292 5.39071 17.7269 5.42283 17.7269 5.45496C17.7269 8.77797 17.7269 12.101 17.7281 15.424C17.7281 15.4779 17.7051 15.5433 17.7407 15.5835C17.7682 15.6156 17.8302 15.6179 17.8738 15.6374C18.4636 15.899 18.8583 16.3328 19.0132 16.9627C19.1084 17.3505 19.0304 17.7223 18.8353 18.0677ZM12.3523 5.88296C12.1893 5.82215 12.0195 5.81297 11.852 5.83362C11.6753 5.85427 11.51 5.91509 11.3746 6.04475C11.183 6.2272 11.1153 6.45554 11.1176 6.71142C11.1176 6.79403 11.1256 6.87435 11.1429 6.95582C11.2025 7.2381 11.3666 7.43201 11.6328 7.53184C11.8325 7.60643 12.0413 7.61446 12.2513 7.56397C12.5393 7.49512 12.7367 7.32874 12.8296 7.04303C12.8916 6.85141 12.8985 6.65978 12.8537 6.46357C12.7894 6.179 12.6265 5.98508 12.3523 5.88296ZM7.25645 11.2645C7.09466 11.152 6.91107 11.1096 6.70109 11.1153C6.62306 11.1096 6.53242 11.1199 6.44291 11.1429C6.20425 11.2025 6.01951 11.3368 5.91738 11.5617C5.79116 11.8439 5.79231 12.1354 5.91279 12.4211C5.97476 12.568 6.08032 12.685 6.22031 12.7585C6.35571 12.8308 6.54504 12.8893 6.87665 12.8709C7.16581 12.8537 7.38612 12.6885 7.51234 12.4142C7.5938 12.2387 7.60757 12.0528 7.58921 11.8657C7.56512 11.6213 7.46529 11.4091 7.25645 11.2645Z" fill="white"/>
<path d="M17.712 16.5133C17.9862 16.6154 18.1492 16.8094 18.2134 17.0939C18.2582 17.2901 18.2513 17.4818 18.1893 17.6734C18.0964 17.9591 17.899 18.1255 17.611 18.1943C17.401 18.2448 17.1922 18.2368 16.9925 18.1622C16.7263 18.0624 16.5623 17.8684 16.5026 17.5862C16.4854 17.5047 16.4773 17.4244 16.4773 17.3418C16.475 17.0859 16.5427 16.8575 16.7344 16.6751C16.8698 16.5454 17.035 16.4846 17.2117 16.464C17.3792 16.4433 17.5491 16.4525 17.712 16.5133Z" fill="white"/>
</svg>
