<svg width="24" height="21" viewBox="0 0 24 21" fill="none" xmlns="http://www.w3.org/2000/svg">
<path d="M7.15767 5.01764C7.31877 4.82689 7.47534 4.64468 7.62843 4.45947C9.22465 2.52924 11.2241 1.26396 13.6262 0.672675C14.5955 0.434031 15.5899 0.380182 16.5748 0.468623C18.2082 0.615254 19.6997 1.17762 20.9888 2.2497C22.4406 3.45714 23.3638 4.98774 23.7834 6.85487C23.9953 7.79776 24.0443 8.75107 23.9624 9.69767C23.7959 11.6257 23.1431 13.3898 22.0423 14.9697C20.6096 17.0257 18.7409 18.4965 16.3974 19.316C15.7115 19.5559 15.0072 19.7049 14.2844 19.7952C13.7362 19.8636 13.1921 19.8259 12.6467 19.849C12.6353 19.8495 12.6228 19.8519 12.6126 19.8482C12.2271 19.7103 11.8851 19.871 11.5352 20.003C10.8752 20.2519 10.1928 20.3953 9.49474 20.4939C8.85611 20.5842 8.21482 20.5917 7.58502 20.5357C5.97469 20.3923 4.50218 19.8414 3.21239 18.8159C2.30156 18.0917 1.56304 17.2215 1.0139 16.185C0.591339 15.3873 0.3168 14.5392 0.146805 13.6464C-0.00730614 12.8369 -0.0314738 12.0203 0.0343881 11.2131C0.172068 9.52555 0.714847 7.96504 1.62986 6.54712C2.02579 5.93356 2.47984 5.3693 2.99495 4.8549C3.35452 4.49581 3.78406 4.33721 4.27741 4.30303C5.13855 4.24344 5.93368 4.49287 6.71505 4.81765C6.86095 4.87822 7.00335 4.94761 7.15767 5.01764ZM7.83977 5.34164C7.84963 5.37084 7.85004 5.38646 7.85696 5.39059C8.90862 6.01689 9.88656 6.74459 10.7972 7.57221C11.7108 8.40249 12.5682 9.28809 13.3262 10.2661C14.1275 11.2998 14.846 12.3903 15.359 13.6134C15.7167 14.4659 15.9717 15.3312 15.9016 16.2707C15.8698 16.6973 15.747 17.0895 15.4568 17.4075C15.0991 17.7994 14.7171 18.1655 14.2914 18.4808C14.0194 18.6822 13.7462 18.8818 13.4302 19.114C13.5891 19.1002 13.6897 19.0846 13.7903 19.0838C14.5335 19.0781 15.2503 18.9131 15.953 18.6877C18.3512 17.9188 20.2185 16.4167 21.6158 14.303C22.6589 12.725 23.2089 10.9642 23.2814 9.06065C23.3105 8.29458 23.2152 7.53208 23.0214 6.78751C22.4356 4.53664 21.1304 2.88349 19.0633 1.8965C17.8089 1.2975 16.482 1.07791 15.0931 1.21011C14.3563 1.28021 13.6394 1.41368 12.9366 1.6407C11.069 2.24417 9.53678 3.36477 8.23631 4.83963C8.09329 5.00195 7.96705 5.17974 7.83977 5.34164ZM2.38515 6.73268C2.10144 7.14282 1.87859 7.53278 1.68135 7.93676C1.07024 9.18845 0.754076 10.5206 0.722241 11.9147C0.705604 12.6457 0.795907 13.3745 0.981033 14.085C1.41208 15.7393 2.25931 17.1251 3.57908 18.1847C4.98396 19.3125 6.60818 19.8192 8.37892 19.8403C8.95641 19.8472 9.53157 19.7613 10.1017 19.6457C11.3519 19.3922 12.488 18.8766 13.5378 18.1368C13.3495 18.0193 13.14 18.0454 12.9459 18.0003C11.9871 17.7771 11.1082 17.3587 10.2667 16.8513C8.99749 16.0859 7.8562 15.1521 6.80289 14.1003C5.7986 13.0975 4.8777 12.0244 4.10002 10.827C3.45167 9.82889 2.90143 8.78251 2.58356 7.6194C2.50756 7.34099 2.51236 7.04541 2.38515 6.73268ZM13.756 17.3463C13.8585 17.3413 13.9608 17.3346 14.0633 17.3313C14.6479 17.313 15.0396 16.923 15.161 16.3863C15.2774 15.8713 15.1711 15.3906 15.0484 14.9135C14.7483 13.7461 14.1559 12.7154 13.5049 11.7264C13.0876 11.0926 12.6181 10.4901 12.109 9.92826C11.0242 8.73098 9.8756 7.60176 8.5405 6.69459C7.40633 5.92404 6.22951 5.24522 4.84915 5.03633C4.5232 4.98704 4.21662 5.0245 3.91168 5.12232C3.56204 5.2345 3.34042 5.47966 3.23088 5.8372C3.11168 6.22619 3.13455 6.62589 3.19596 7.01222C3.29044 7.60631 3.50158 8.16833 3.75175 8.71494C4.36765 10.0607 5.21269 11.2491 6.16166 12.3614C6.93373 13.2664 7.78541 14.0891 8.7033 14.8426C9.64379 15.6148 10.6373 16.2953 11.7384 16.8016C12.3796 17.0965 13.0364 17.3463 13.756 17.3463Z" fill="#ACACAC"/>
<path d="M16.928 4.56681C16.9399 5.03177 16.4802 5.51046 16.0082 5.49226C15.5614 5.47503 15.1249 5.15348 15.1149 4.5486C15.1066 4.05234 15.5567 3.60628 16.0286 3.61651C16.5008 3.6268 16.9321 4.08245 16.928 4.56681ZM16.1565 4.6897C16.1908 4.52963 16.1934 4.40078 16.0156 4.38117C15.9083 4.36941 15.8452 4.43993 15.8376 4.54804C15.8287 4.67486 15.9144 4.71449 16.1565 4.6897Z" fill="#ACACAC"/>
<path d="M18.565 4.57093C18.5325 4.06255 18.9017 3.66649 19.4439 3.62182C19.909 3.58344 20.3342 4.05639 20.3552 4.55006C20.3744 5.00067 20.008 5.48034 19.4649 5.49084C19.0031 5.49981 18.5392 5.11719 18.565 4.57093ZM19.4741 4.72477C19.5948 4.742 19.6363 4.63493 19.6311 4.55671C19.6246 4.46043 19.5688 4.36191 19.4345 4.37696C19.3262 4.38908 19.268 4.46197 19.2676 4.55538C19.2671 4.67555 19.3481 4.73451 19.4741 4.72477Z" fill="#ACACAC"/>
<path d="M17.473 7.50553C17.4745 6.98224 17.8606 6.59213 18.3728 6.59647C18.8882 6.60081 19.2427 6.99057 19.2618 7.52374C19.2787 7.99199 18.848 8.44498 18.3562 8.44085C17.928 8.43728 17.4282 8.04206 17.473 7.50553ZM18.37 7.31506C18.2436 7.34777 18.1941 7.42963 18.1724 7.53459C18.3684 7.73185 18.3792 7.7315 18.5597 7.51534C18.5157 7.44391 18.4913 7.3526 18.37 7.31506Z" fill="#ACACAC"/>
<path d="M5.5145 6.60787C5.87099 6.59344 6.17237 6.72768 6.46943 6.87074C7.15975 7.20322 7.77407 7.65705 8.37922 8.12642C9.37235 8.89676 10.2499 9.79567 11.1035 10.7172C11.5552 11.2048 11.9694 11.7293 12.3641 12.2707C12.7584 12.8114 13.115 13.3716 13.4088 13.9731C13.577 14.3176 13.678 14.6834 13.65 15.0784C13.6215 15.479 13.3449 15.763 12.9525 15.7894C12.5395 15.8172 12.169 15.6684 11.8178 15.4834C10.8856 14.9926 10.0529 14.3532 9.25672 13.6578C8.49239 12.9903 7.78325 12.2651 7.10751 11.5089C6.36427 10.6771 5.67895 9.79455 5.13748 8.80496C4.94872 8.46002 4.79372 8.10233 4.70308 7.71853C4.64611 7.47722 4.63468 7.22548 4.76017 7.00617C4.92805 6.71241 5.18506 6.55892 5.5145 6.60787ZM12.9186 15.0192C12.9726 14.9052 12.9453 14.8203 12.9223 14.7293C12.8155 14.3075 12.5953 13.937 12.3806 13.5736C11.9051 12.7687 11.3211 12.0408 10.6967 11.3539C9.72768 10.2878 8.71599 9.26453 7.5552 8.41107C7.04001 8.03231 6.51784 7.66244 5.91543 7.43843C5.76488 7.38241 5.61309 7.29019 5.41763 7.34467C5.42927 7.49676 5.42448 7.62694 5.47028 7.76551C5.59454 8.14176 5.77398 8.48971 5.98348 8.81805C6.85002 10.1761 7.88629 11.3847 9.05954 12.4763C9.54687 12.9296 10.0324 13.3826 10.5588 13.7876C11.1194 14.219 11.6914 14.6305 12.3429 14.9144C12.5262 14.9942 12.7038 15.0417 12.9186 15.0192Z" fill="#ACACAC"/>
</svg>
