<svg width="15" height="22" viewBox="0 0 15 22" fill="none" xmlns="http://www.w3.org/2000/svg">
<path d="M1.24503 4.15161C1.19775 4.0261 1.09035 4.01444 1.02032 3.95499C0.845814 3.80682 0.747837 3.63963 0.754093 3.38852C0.770991 2.71406 0.767254 2.03869 0.756449 1.36399C0.751655 1.06525 0.874249 0.875738 1.12926 0.742285C1.56642 0.513415 2.04185 0.417915 2.5167 0.346227C4.49923 0.0469924 6.49703 -0.0405704 8.49687 0.0186316C9.96482 0.0620409 11.4361 0.125294 12.8838 0.422545C13.173 0.481912 13.4574 0.558065 13.7328 0.668531C14.0816 0.808433 14.2719 1.03176 14.2513 1.44643C14.2239 1.99595 14.2203 2.54944 14.2521 3.09846C14.2781 3.54851 14.1983 3.91207 13.7321 4.10506C13.9562 4.40801 14.147 4.68889 14.3608 4.95026C14.7593 5.43752 14.9182 5.99316 14.9124 6.6223C14.8998 7.99958 14.908 9.37702 14.9079 10.7544C14.9077 13.4265 14.9051 16.0985 14.9087 18.7706C14.9104 20.0178 14.3075 20.8624 13.2414 21.404C12.9115 21.5716 12.5449 21.622 12.1883 21.6585C11.572 21.7215 10.956 21.7945 10.3397 21.8562C9.63839 21.9265 8.93581 21.9312 8.23495 21.9757C7.0732 22.0495 5.9125 21.9392 4.7523 21.8546C3.97206 21.7977 3.19864 21.6986 2.42457 21.5912C1.18223 21.419 0.107819 20.2313 0.103919 18.9821C0.0996947 17.6461 0.099451 16.3102 0.0991261 14.9742C0.0984761 12.2608 0.11773 9.5471 0.087671 6.83406C0.0784908 6.00192 0.304098 5.30382 0.833059 4.68765C0.982299 4.51385 1.1135 4.32384 1.24503 4.15161ZM1.95004 4.34303C1.68731 4.6879 1.39574 5.06263 1.11294 5.44413C0.861656 5.78314 0.75523 6.16415 0.75588 6.59485C0.762623 10.6708 0.763192 14.7467 0.757342 18.8226C0.756043 19.7235 1.35698 20.6886 2.43481 20.9067C3.11959 21.0453 3.82233 21.0964 4.51865 21.1698C5.37964 21.2606 6.24527 21.2713 7.10976 21.276C7.94817 21.2806 8.78934 21.293 9.62466 21.2338C10.5641 21.1672 11.5028 21.0722 12.4365 20.9305C13.5084 20.7677 14.2428 19.8366 14.2433 18.8817C14.2453 14.7507 14.2427 10.6197 14.2471 6.48869C14.2474 6.1897 14.1833 5.9094 14.0322 5.66664C13.7312 5.1826 13.3764 4.73726 13.0473 4.34716C9.32358 4.87965 5.65919 4.88279 1.95004 4.34303ZM13.5792 1.92484C12.1788 2.33826 10.7496 2.4202 9.32886 2.4694C7.88463 2.51942 6.43627 2.53091 4.98814 2.42673C3.793 2.34074 2.60607 2.23647 1.4258 1.93426C1.4258 2.42533 1.4258 2.90456 1.4258 3.38074C1.54823 3.4903 1.68796 3.52933 1.83168 3.56761C2.30036 3.69238 2.7757 3.76473 3.25697 3.82509C4.42498 3.97152 5.59599 4.05818 6.77155 4.05661C7.79909 4.05528 8.82557 4.06843 9.85449 3.99542C10.7563 3.93142 11.6551 3.85634 12.5467 3.71586C12.8964 3.6608 13.2649 3.6121 13.5792 3.38661C13.5792 2.90456 13.5792 2.42533 13.5792 1.92484ZM13.3103 1.34547C13.2414 1.19424 13.1742 1.18614 13.108 1.16844C12.4419 0.990835 11.7586 0.902362 11.0774 0.850519C9.91875 0.762378 8.75562 0.693006 7.59436 0.692096C5.94728 0.690773 4.29938 0.757665 2.66732 1.01217C2.3478 1.06203 2.00724 1.08204 1.72094 1.30735C5.57503 2.00314 9.42667 2.00479 13.3103 1.34547Z" fill="#0D4156"/>
<path d="M5.15687 13.1373C5.15687 14.8589 5.15882 16.5804 5.15606 18.302C5.1546 19.2155 4.7185 19.7704 3.85385 19.9695C3.06597 20.1508 2.13673 19.4908 2.0589 18.6162C2.05159 18.5341 2.05135 18.4511 2.05135 18.3685C2.05062 14.8841 2.05362 11.3998 2.04688 7.91539C2.04566 7.29856 2.27825 6.81999 2.79056 6.50529C3.285 6.20167 3.81469 6.18704 4.32789 6.45766C4.84296 6.72928 5.14859 7.16701 5.15135 7.77053C5.15947 9.5594 5.15428 11.3484 5.15428 13.1372C5.15517 13.1373 5.15598 13.1373 5.15687 13.1373ZM2.70956 13.1587C2.70956 14.4247 2.70956 15.6908 2.70956 16.9568C2.70956 17.4522 2.70079 17.9478 2.71241 18.4429C2.72305 18.8969 3.05549 19.2446 3.49273 19.2871C4.09262 19.3454 4.49484 18.9728 4.49557 18.344C4.49817 16.2522 4.47201 14.1601 4.505 12.0689C4.52685 10.6796 4.47258 9.29184 4.4937 7.90315C4.50248 7.32643 4.09781 6.93219 3.55699 6.95418C3.06264 6.97428 2.71151 7.36612 2.71062 7.91547C2.70778 9.66326 2.70956 11.411 2.70956 13.1587Z" fill="#0D4156"/>
</svg>
