<svg width="61" height="44" viewBox="0 0 61 44" fill="none" xmlns="http://www.w3.org/2000/svg">
<path d="M59.5314 33.1252C58.6682 31.743 58.3674 30.1652 57.7266 28.7179C56.9811 27.0619 56.6019 25.2103 55.2156 23.8672C54.5224 23.1892 54.7447 22.3807 55.6341 21.8461C57.0596 20.9855 57.1381 20.5683 56.1572 19.2904C55.7779 18.808 55.5948 18.4037 55.621 18.0517C55.621 18.0517 55.621 18.0386 55.6341 18.0256C55.6341 17.8952 55.6864 17.7778 55.7649 17.6605V17.6475C55.8433 17.2693 55.9218 16.7086 55.6472 16.3566C54.287 15.6133 54.1562 15.3786 54.7447 14.1529C55.2286 13.1358 55.294 12.21 54.6663 11.2712C54.3393 10.7888 54.3132 10.202 54.3132 9.68041C54.3001 8.6503 53.7508 8.11569 52.9138 7.73754C51.3705 7.04646 50.272 5.84684 49.2518 4.39947C49.2518 4.39947 48.2448 3.55191 47.5647 3.22593L47.5517 3.21289C47.5255 3.21289 47.4993 3.19985 47.4732 3.18681C45.4068 2.1567 43.2097 1.46561 40.9863 0.891883H40.9733C40.9733 0.891883 38.1745 0.474624 37.5336 0.279033C37.4552 0.252955 37.3244 0.226876 37.1544 0.187758C37.0759 0.174719 36.9844 0.161679 36.8797 0.14864C35.6765 -0.0469505 33.4009 -0.177344 33.427 0.618057C32.5377 1.58297 31.6222 1.02228 30.8768 0.722372C28.1303 -0.399013 25.7501 0.318151 23.3698 1.93503C23.3567 1.94807 23.3567 1.94807 23.3567 1.94807C23.3567 1.94807 23.4483 2.66524 21.7873 2.79563C21.7219 2.79563 21.6435 2.80867 21.565 2.80867C19.734 2.9521 19.4986 4.43859 19.1978 5.85988C18.7793 5.88596 18.4654 5.78164 18.2169 5.58605H18.2039C18.0992 5.52085 17.4976 5.11663 16.7522 5.55997C15.9282 6.04243 15.9151 6.64224 15.7321 7.03342C15.6536 7.25509 15.5228 7.47676 15.392 7.69843C15.0781 8.19392 14.6727 8.22 14.1757 8.01137C13.4564 7.69843 12.9725 8.05049 12.6325 8.66334C12.3448 9.21099 12.0701 9.77168 11.8478 10.3585C11.6908 10.7236 11.5862 11.0887 11.1677 11.2973C10.5661 11.2973 10.1476 10.8409 9.63754 10.6453C9.63754 10.6453 9.49368 10.2802 9.0621 10.2933C9.0621 10.3063 9.07517 10.3063 9.07517 10.3193C7.98967 10.7627 8.19893 12.0405 7.58424 12.7838C5.09936 12.3144 4.26234 12.8099 4.15772 14.7658C4.15772 14.7658 4.19695 17.4127 5.42632 17.9343L4.49775 19.1861C3.93539 19.6816 3.43841 20.2032 2.86296 20.5943C1.07123 21.8331 0.613487 23.802 0.0380394 25.7058C-0.0404306 25.9796 -0.0142739 26.2534 0.260371 26.436C0.521938 26.6185 0.770427 26.5142 1.01892 26.3708C1.37203 26.1622 1.6336 25.7449 2.1175 25.8622C2.31367 26.0187 2.26136 26.2274 2.30059 26.4099C2.58832 27.5834 2.87604 27.7399 4.05309 27.3487C4.1708 27.3227 4.27542 27.2835 4.38005 27.2314C5.16475 26.9054 5.75327 27.0879 6.09331 27.8964C6.25025 28.2615 6.39411 28.6396 6.87801 28.6527C7.6104 28.3397 7.67579 27.2705 8.55204 27.1401C9.63754 27.5834 8.98363 29.1221 10.0299 29.5654C10.5399 29.1873 10.2261 28.3658 10.9715 28.1963C11.6647 28.77 11.9393 29.8001 12.8025 30.1392C13.3779 30.0609 13.561 29.3959 14.1496 29.3829C14.2934 30.2956 13.888 30.8433 13.2733 31.4301C11.1808 33.412 8.73514 34.1031 5.93637 33.7511C5.15167 33.6598 4.40621 33.7511 3.56919 34.4421C8.10738 37.1283 12.894 37.7933 17.9292 37.5586C18.1123 37.6889 18.1515 37.9367 18.23 38.1453C18.4785 38.8625 18.6878 39.5145 19.6948 38.9016C20.1525 38.6147 20.5972 38.9798 20.7411 39.5014C20.898 40.0621 21.2511 40.4794 21.5781 40.9097C22.0227 41.4834 22.4412 41.4573 22.899 40.8966C23.3044 40.4142 23.6575 39.8926 24.076 39.4362C24.7038 38.7582 25.2139 38.7451 25.8939 39.358C26.0901 39.5405 26.1947 39.8404 26.404 39.9969C27.2541 40.6619 27.8034 42.031 29.242 41.1965C29.6605 42.2006 29.5035 43.3871 30.4452 44C30.916 43.9869 31.0729 43.7001 31.2691 43.4523C31.7399 42.8395 32.0931 42.1484 32.7208 41.6268C34.6956 40.0099 37.0628 39.5145 39.4823 39.2928C41.0517 39.1494 42.6473 39.2276 44.2298 39.2145C44.9621 39.2145 45.5899 39.3449 45.9299 40.1534C46.113 40.5576 46.4792 40.9357 46.9501 41.0661C47.8525 41.3139 48.7549 41.5747 49.6703 41.7442C52.116 42.1875 54.5747 42.2136 57.0465 41.8094C59.0083 41.4834 60.9439 39.4623 60.9962 37.4673C61.0485 35.8374 60.3423 34.4291 59.5314 33.1252ZM14.1234 28.6396C13.1425 28.8743 12.9071 28.7831 12.4886 27.8442C11.7039 26.0448 11.7039 26.0448 9.97758 26.9445C9.53292 26.5664 9.71601 26.2665 10.0037 25.8622C10.9846 24.441 11.2069 22.7719 11.3508 21.0898C11.3639 20.9986 11.2593 20.8943 11.1808 20.7378C10.056 21.155 10.4876 22.2764 10.1476 23.0066C9.75525 23.802 9.68986 24.7148 9.4806 25.6406C8.02891 24.9234 7.74118 26.4229 6.87801 26.9184C6.32872 26.8011 6.48566 25.8622 5.79251 25.8883C5.28245 25.9014 4.78548 26.0187 4.31466 26.1752C3.73921 25.9274 3.51688 25.3146 3.0199 24.9756C2.49677 24.6235 1.98671 24.8582 1.35895 25.0016C1.92132 22.1591 3.63458 20.5683 6.17178 19.7598C7.58424 19.3035 8.95747 19.3035 10.383 19.812C13.888 21.0768 17.4453 22.1591 20.898 23.5543C23.5529 24.6235 26.1947 25.7449 28.8496 27.1271C28.2088 27.6095 27.8034 27.2183 27.3718 27.0097C25.8416 26.2795 25.7501 26.3056 24.7169 27.6878C24.6253 27.8181 24.573 27.9616 24.4553 28.1963C22.4412 26.11 20.8849 27.8442 19.2501 28.5484C18.2169 27.1792 17.9946 27.114 16.3729 27.7008C15.6143 27.9877 14.9212 28.431 14.1234 28.6396ZM7.11342 34.7551C9.50676 34.6117 11.9263 34.6638 14.0188 32.8905C13.7965 34.8333 15.4966 35.3679 16.556 36.5676C13.2341 36.2807 10.0561 36.1503 7.11342 34.7551ZM29.739 38.028C29.3728 38.6278 28.9543 39.1885 28.3657 39.6318C27.6726 39.5536 27.1102 39.2406 26.6002 38.7973C26.1947 38.4322 25.7762 38.0801 25.3316 37.7672C24.3507 37.0761 24.0368 37.1022 23.2521 37.9888C22.8205 38.4713 22.4543 39.019 21.9704 39.6448C21.395 38.4452 21.4473 36.4893 19.394 37.5325C19.0539 37.4412 18.9232 37.2456 18.8316 37.0239C18.387 35.9286 17.6938 35.1202 16.5952 34.6117C15.9936 34.3378 15.719 33.8163 15.7451 33.0861C15.7974 32.0168 15.9544 30.9867 16.2159 29.9566C16.3598 29.3568 16.6868 28.9135 17.2361 28.6527C18.8316 30.3739 18.8316 30.3739 21.0549 29.3568C21.0942 29.3438 21.1465 29.3438 21.1726 29.3307C22.4543 28.4049 23.6183 28.3788 24.4815 29.8132C25.1877 29.5654 25.1877 29.5654 26.3778 28.0398C26.8879 28.0529 27.1233 28.5223 27.5026 28.77C28.0126 29.096 28.4834 29.3046 29.0981 28.8613C30.406 27.9355 30.9814 28.0398 32.0407 29.2525C32.0669 29.2786 32.0931 29.3177 32.1192 29.3438C33.2178 30.3999 33.5055 31.4692 32.6031 32.9165C31.5699 34.5725 30.7591 36.3589 29.739 38.028ZM30.4975 41.6399C30.1575 40.6228 30.4452 39.9187 30.7329 39.1885C31.6615 36.8153 33.0216 34.7029 34.3556 32.5775C35.3103 32.8905 35.7288 33.725 36.4089 34.2335C38.7369 35.9417 41.3133 36.8805 44.1644 37.1283C44.9883 37.2065 44.9883 37.2065 45.1714 38.1844C39.7439 36.8805 34.6695 37.2195 30.4975 41.6399ZM43.2489 35.5244C42.2026 35.2636 41.1825 34.8594 40.1624 34.4813C37.7429 33.6207 35.8465 32.0038 34.1987 30.087C31.9884 27.5052 29.1766 25.8101 26.1293 24.454C21.1857 22.2634 16.1113 20.4248 11.0892 18.4559C9.82064 17.9604 8.5128 17.5823 7.23113 17.1259C5.57018 16.5391 5.16475 15.4177 6.00176 13.84C6.56413 13.7878 6.89109 14.2572 7.3096 14.505C8.15969 15.0135 8.55204 14.9092 8.86592 13.9443C9.07517 13.3184 9.20596 12.6664 9.3629 12.0796C9.82064 11.8449 10.0691 12.1709 10.3699 12.3274C11.39 12.862 11.5993 12.8099 12.3317 11.8971C12.9464 11.1278 13.2472 10.1629 13.9796 9.3805C14.895 9.82384 15.4705 9.32835 15.9413 8.57206C16.0982 8.31128 16.2683 8.03745 16.4514 7.7897C17.3799 6.52488 17.3799 6.52488 18.7139 7.37244C19.2632 7.73754 19.8648 7.54195 20.1133 6.87695C20.3095 6.36841 20.401 5.82076 20.558 5.29919C20.7541 4.56898 21.2119 4.21692 21.9573 4.49075C23.1344 4.908 24.0368 4.55594 24.6907 3.55191C26.0509 1.46561 28.0518 1.59601 30.1051 1.96111C30.916 2.10454 31.7138 2.28709 32.5116 2.43053C33.0478 2.53484 33.5971 2.44357 33.8456 1.93503C34.1725 1.28306 34.6826 1.33522 35.2319 1.38738C37.6383 1.64817 39.9924 2.13062 42.3465 2.66524C44.0859 3.05642 45.8253 3.48671 47.3162 4.5429C48.3756 5.28615 49.3172 6.15978 50.0627 7.22901C50.6774 8.10265 51.4621 8.81981 52.3383 9.39354C53.5285 10.1629 53.4238 11.5972 54.0777 12.6273C54.2739 12.9272 53.8554 13.2532 53.6854 13.5531C52.6653 15.3786 52.6653 15.4047 54.3262 16.7086C54.4832 16.826 54.614 16.9564 54.7447 17.0737C54.7055 17.7648 53.8685 18.2212 54.3001 18.9514C54.627 19.5251 55.1109 20.0206 55.1763 20.7117C55.0979 20.9986 54.8886 21.1681 54.6532 21.3115C53.6331 21.9635 53.3192 22.811 53.7377 24.0107C54.1301 25.1712 54.0516 25.1972 52.8876 25.5754C52.3514 25.7449 52.0768 26.0839 51.9983 26.6707C51.9067 27.2705 52.0114 27.8442 52.1814 28.4049C52.4822 29.4481 52.6784 30.3999 51.6975 31.2997C51.122 31.8343 51.279 32.7079 51.3313 33.4381C51.3836 34.2466 51.122 34.7551 50.2719 34.7942C49.2126 34.8464 49.0557 35.733 48.7418 36.5154C46.8193 36.5676 45.0406 35.9677 43.2489 35.5244ZM56.0526 40.4272C53.4369 40.7402 50.8474 40.4924 48.284 40.0751C47.0547 39.8796 46.5446 38.7712 46.9108 37.5064C49.9842 37.8454 49.9842 37.8454 50.285 36.2285C50.4812 35.9808 50.7689 36.0329 51.0305 36.0069C52.2075 35.9156 52.4953 35.6157 52.5607 34.403C52.5868 33.8945 52.5868 33.386 52.5868 32.8774C52.5868 32.5123 52.6261 32.1342 52.953 31.9386C53.7246 31.4692 53.7246 30.739 53.6985 29.9696C53.6854 29.1221 53.7769 28.2615 53.5677 27.1531C54.6401 28.1441 55.4117 29.0699 56.118 30.0479C57.4258 31.8473 58.8252 33.6076 59.3352 35.8374C59.963 38.6147 58.8383 40.1012 56.0526 40.4272Z" fill="#0D4156"/>
<path d="M8.90112 14.9926C9.46742 14.3758 10.0507 14.5806 10.5359 14.7175C13.5021 15.5507 16.4146 16.5312 19.3089 17.6187C23.2611 19.1052 27.1951 20.6412 31.1631 22.0886C35.3207 23.6051 39.5058 25.0577 43.5823 26.8049C45.5113 27.6303 47.4142 28.5053 49.3184 29.3802C49.6885 29.551 50.1646 29.6358 50.2104 30.1991C49.8847 30.6659 49.4793 30.5303 49.0752 30.3556C46.007 29.0256 42.8394 27.9511 39.7451 26.6889C35.3272 24.8869 30.8257 23.2908 26.3856 21.541C23.7503 20.503 21.1935 19.263 18.549 18.2459C16.0981 17.3032 13.5675 16.5821 11.0237 15.9145C10.3162 15.7267 9.50273 15.6863 8.90112 14.9926Z" fill="#0D4156"/>
<path d="M13.6995 12.2922C20.7945 14.5428 27.7051 17.2589 34.8144 19.8498C34.3266 20.4666 33.9474 20.4171 33.5262 20.2775C29.6642 19.0023 25.8048 17.7349 22.0513 16.1415C19.9915 15.2678 17.8819 14.4972 15.8155 13.6275C15.0531 13.3067 14.2409 13.059 13.6995 12.2922Z" fill="#0D4156"/>
<path d="M37.0143 12.6378C38.636 12.3705 50.6301 16.9616 52.5265 18.5824C52.3094 19.0558 51.9066 19.0114 51.5495 18.868C47.5279 17.2446 43.4423 15.7881 39.4638 14.0578C38.8282 13.7813 38.19 13.5101 37.5387 13.2754C37.2144 13.1581 36.9606 13.042 37.0143 12.6378Z" fill="#0D4156"/>
<path d="M40.5611 9.71165C39.1564 10.1237 28.27 6.65001 25.6936 5.0214C25.9029 4.62369 26.2207 4.45809 26.6405 4.59892C30.3469 5.83896 34.0494 7.08813 37.7518 8.34122C38.4058 8.56158 39.0505 8.81063 39.7005 9.04273C40.0288 9.15748 40.3583 9.26831 40.5611 9.71165Z" fill="#0D4156"/>
<path d="M34.6145 27.5091C36.04 27.4009 46.5197 32.5853 47.6615 33.9519C47.4051 34.6521 46.95 34.4865 46.4596 34.2322C44.5658 33.249 42.6616 32.2867 40.777 31.2879C39.0677 30.3817 37.3766 29.4376 35.6791 28.5066C35.2475 28.2693 34.7623 28.0828 34.6145 27.5091Z" fill="#0D4156"/>
<path d="M30.8857 14.8571C26.252 13.4932 21.8394 11.8424 17.3313 10.3324C17.742 9.49662 18.3253 9.87476 18.7961 9.96864C22.1193 10.6271 25.3156 11.7042 28.4414 13.0016C29.0469 13.2533 29.6393 13.5414 30.2527 13.7722C30.6621 13.9261 30.887 14.1608 30.8857 14.8571Z" fill="#0D4156"/>
<path d="M47.6522 8.39216C46.0802 8.52256 44.7985 7.54721 43.3573 7.26948C41.8807 6.98522 40.4042 6.69574 38.8779 6.39845C39.0323 5.70606 39.5214 5.81428 39.9059 5.78951C41.1653 5.70867 42.4065 5.97336 43.5979 6.27197C44.9345 6.60708 46.194 7.25252 47.4848 7.77149C47.6404 7.83408 47.698 7.98664 47.6522 8.39216Z" fill="#0D4156"/>
<path d="M31.2782 30.6385C30.3588 33.4929 28.9306 36.046 26.8656 38.423C26.7453 37.2586 30.2424 31.0623 31.2782 30.6385Z" fill="#0D4156"/>
<path d="M22.7105 30.8237C23.0362 32.4445 20.894 36.0473 19.2461 36.6641C20.2335 34.45 21.3609 32.5749 22.7105 30.8237Z" fill="#0D4156"/>
<path d="M24.4316 34.9611C25.457 33.0483 26.2365 31.005 27.7195 29.2421C28.138 30.7286 25.9657 34.5699 24.4316 34.9611Z" fill="#0D4156"/>
<path d="M14.9106 22.3156C15.0466 24.411 14.3103 26.1113 13.4131 27.9225C13.077 27.2431 13.6093 24.0902 14.1638 22.7524C14.2567 22.5281 14.2567 22.5281 14.9106 22.3156Z" fill="#0D4156"/>
<path d="M6.78628 25.964C6.52733 25.8089 6.57965 25.5546 6.63458 25.3407C7.03085 23.8386 7.2728 22.2934 7.81163 20.8304C7.86263 20.6935 8.05096 20.644 8.21967 20.7026C8.72449 22.0978 7.93195 25.0148 6.78628 25.964Z" fill="#0D4156"/>
<path d="M18.1461 23.3196C18.6366 24.6835 18.443 25.5936 17.5772 26.2221C17.1156 25.1516 17.3536 23.7681 18.1461 23.3196Z" fill="#0D4156"/>
<path d="M4.03589 23.2622C4.19937 22.1852 4.42432 21.3559 5.26787 20.7391C5.67984 21.9283 5.2901 22.7628 4.03589 23.2622Z" fill="#0D4156"/>
<path d="M18.2039 5.58606H18.2167V5.5988C18.2167 5.5988 18.2167 5.5988 18.2039 5.58606Z" fill="#0D4156"/>
</svg>
