<svg width="31" height="46" viewBox="0 0 31 46" fill="none" xmlns="http://www.w3.org/2000/svg">
<path d="M2.42041 8.67913C2.32154 8.41667 2.09696 8.39229 1.95053 8.26798C1.58563 7.95815 1.38075 7.60855 1.39383 7.08347C1.42917 5.67315 1.42135 4.26093 1.39876 2.8501C1.38874 2.22542 1.64508 1.82914 2.17833 1.55009C3.09245 1.07151 4.08658 0.871813 5.07953 0.721911C9.22508 0.0961988 13.4026 -0.0868987 17.5843 0.0368952C20.6538 0.127666 23.7304 0.259932 26.7576 0.881495C27.3622 1.00563 27.9569 1.16487 28.5328 1.39586C29.2621 1.6884 29.6601 2.1554 29.617 3.02247C29.5597 4.17154 29.5523 5.32891 29.6187 6.47695C29.6731 7.41802 29.5062 8.17825 28.5315 8.58179C29 9.21528 29.399 9.80261 29.846 10.3491C30.6792 11.368 31.0115 12.5299 30.9995 13.8455C30.9731 16.7254 30.9903 19.6057 30.99 22.4858C30.9896 28.0733 30.9842 33.6606 30.9917 39.2481C30.9952 41.8561 29.7346 43.6221 27.5054 44.7547C26.8155 45.1052 26.0489 45.2104 25.3033 45.2867C24.0146 45.4184 22.7264 45.5711 21.4378 45.7003C19.9713 45.8472 18.5022 45.8571 17.0366 45.9501C14.6074 46.1043 12.1803 45.8737 9.75425 45.6968C8.12274 45.5779 6.50549 45.3706 4.88688 45.1461C2.2891 44.786 0.0424477 42.3025 0.0342935 39.6904C0.0254598 36.8967 0.0249502 34.1032 0.0242706 31.3096C0.0229116 25.6358 0.0631729 19.9613 0.000317729 14.2882C-0.0188786 12.5482 0.452875 11.0884 1.55896 9.80002C1.87102 9.43659 2.14538 9.03927 2.42041 8.67913ZM3.89462 9.07939C3.34523 9.80054 2.73554 10.5841 2.14419 11.3819C1.61875 12.0907 1.39621 12.8874 1.39757 13.7881C1.41167 22.311 1.41286 30.8339 1.40063 39.3569C1.39791 41.2406 2.6545 43.2586 4.90829 43.7147C6.3402 44.0045 7.80965 44.1113 9.26568 44.2649C11.0661 44.4547 12.8761 44.4772 14.6838 44.487C16.4369 44.4966 18.1959 44.5225 19.9426 44.3987C21.9069 44.2595 23.8698 44.0609 25.8222 43.7645C28.0636 43.4241 29.5993 41.4771 29.6003 39.4803C29.6046 30.8422 29.5992 22.2041 29.6083 13.5661C29.609 12.9409 29.4748 12.3547 29.159 11.8471C28.5294 10.835 27.7876 9.90376 27.0994 9.08803C19.313 10.2015 11.6506 10.2081 3.89462 9.07939ZM28.2118 4.02285C25.2834 4.88734 22.2949 5.05868 19.324 5.16155C16.3041 5.26615 13.2755 5.29018 10.2474 5.07234C7.74832 4.89252 5.26639 4.6745 2.79839 4.04256C2.79839 5.0694 2.79839 6.0715 2.79839 7.06722C3.0544 7.2963 3.34659 7.37791 3.64711 7.45796C4.62714 7.71886 5.6211 7.87015 6.62746 7.99636C9.06981 8.30256 11.5184 8.48376 13.9766 8.48047C16.1252 8.47771 18.2716 8.5052 20.4232 8.35253C22.3088 8.21871 24.1883 8.06172 26.0526 7.76797C26.7839 7.65282 27.5545 7.55098 28.2118 7.07949C28.2118 6.0715 28.2118 5.0694 28.2118 4.02285ZM27.6495 2.81137C27.5052 2.49514 27.3649 2.47819 27.2265 2.4412C25.8336 2.06981 24.4048 1.88481 22.9803 1.77641C20.5575 1.5921 18.1254 1.44704 15.6971 1.44514C12.253 1.44237 8.80718 1.58224 5.39448 2.11442C4.72635 2.21868 4.01422 2.26052 3.41556 2.73166C11.4746 4.18659 19.5286 4.19004 27.6495 2.81137Z" fill="#0D4156"/>
<path d="M10.6003 27.4686C10.6003 31.0685 10.6044 34.6682 10.5986 38.268C10.5956 40.1784 9.68364 41.3387 7.87562 41.7549C6.22814 42.134 4.28506 40.754 4.12232 38.9252C4.10703 38.7535 4.10652 38.58 4.10652 38.4072C4.10499 31.1212 4.11128 23.8353 4.09718 16.5493C4.09463 15.2595 4.58099 14.2588 5.65225 13.6007C6.68613 12.9658 7.79374 12.9352 8.86687 13.5011C9.9439 14.0691 10.583 14.9844 10.5888 16.2464C10.6057 19.987 10.5949 23.7278 10.5949 27.4684C10.5967 27.4686 10.5984 27.4686 10.6003 27.4686ZM5.48288 27.5132C5.48288 30.1606 5.48288 32.808 5.48288 35.4552C5.48288 36.4912 5.46453 37.5275 5.48883 38.5628C5.51108 39.512 6.20622 40.2391 7.12051 40.3281C8.3749 40.45 9.21597 39.6708 9.2175 38.3559C9.22293 33.9819 9.16823 29.6073 9.2372 25.2344C9.2829 22.3294 9.16942 19.4275 9.21359 16.5237C9.23194 15.3178 8.38577 14.4934 7.25489 14.5394C6.22117 14.5814 5.48696 15.4007 5.48509 16.5495C5.47914 20.2042 5.48288 23.8587 5.48288 27.5132Z" fill="#0D4156"/>
</svg>
