<svg width="44" height="47" viewBox="0 0 44 47" fill="none" xmlns="http://www.w3.org/2000/svg">
<g clip-path="url(#clip0)">
<path d="M19.9784 3.6411C19.9784 2.42183 19.9784 1.2637 19.9784 0.0179925C21.3191 -0.0146878 22.6372 0.0111994 24.0109 0C24.0109 1.23634 24.0109 2.41798 24.0109 3.5203C24.176 3.75622 24.3072 3.85261 24.521 3.8616C26.1403 3.93027 27.6846 4.37182 29.2086 4.86056C31.2477 5.51453 33.1038 6.53845 34.8342 7.7792C36.7111 9.12534 38.3239 10.7237 39.7323 12.5546C41.4352 14.7684 42.5435 17.2458 43.3131 19.8801C43.5617 20.7311 43.6749 21.6329 43.8156 22.5199C44.0612 24.07 44.0154 25.6184 43.9359 27.1605C43.8375 29.0682 43.3989 30.9266 42.7193 32.724C42.1236 34.2995 41.4028 35.813 40.4459 37.208C40.0196 37.8295 39.5741 38.4403 39.102 39.0284C38.5085 39.7676 37.8876 40.4874 37.1715 41.1175C35.935 42.2059 34.6434 43.2181 33.2137 44.0602C31.5066 45.0656 29.6848 45.7883 27.7822 46.3255C26.9702 46.5548 26.1385 46.6906 25.3045 46.8333C23.8583 47.0808 22.4129 46.9739 20.9675 46.9903C18.5019 47.0184 16.1681 46.4107 13.8805 45.5441C11.9263 44.8038 10.1373 43.7808 8.50121 42.5226C7.04724 41.4045 5.73797 40.1335 4.62128 38.654C3.85249 37.6354 3.09412 36.6051 2.51063 35.4932C1.67982 33.9101 1.02742 32.2404 0.58715 30.4909C-0.00378736 28.1425 -0.0946722 25.7607 0.0751782 23.3793C0.21523 21.4146 0.695169 19.4942 1.43081 17.6479C2.01095 16.1922 2.7086 14.7954 3.58523 13.4918C4.86935 11.5822 6.44252 9.93757 8.24476 8.48679C9.74585 7.27853 11.3799 6.30106 13.1326 5.50994C14.7054 4.80015 16.3607 4.34593 18.0607 4.034C18.5732 3.94 19.0785 3.84471 19.6022 3.846C19.7059 3.84636 19.8099 3.73676 19.9784 3.6411ZM22.0857 44.9959C23.2918 45.0342 24.5541 44.8712 25.8222 44.6443C28.4 44.1833 30.7563 43.2153 32.9405 41.8163C34.8386 40.6005 36.4719 39.0934 37.852 37.3279C38.6712 36.2798 39.3836 35.1547 39.9587 33.9607C40.5275 32.78 41.0005 31.556 41.3069 30.277C41.6496 28.8464 41.9329 27.4056 41.9226 25.9295C41.9161 24.9938 41.9597 24.0625 41.7898 23.121C41.647 22.3293 41.5414 21.5272 41.3717 20.7381C40.886 18.4807 39.9202 16.4094 38.6305 14.5125C37.5935 12.9869 36.4183 11.5564 34.9168 10.4023C33.2958 9.15637 31.6126 8.05552 29.7079 7.26274C27.2062 6.22156 24.5977 5.79966 21.9099 5.68032C21.2236 5.64984 20.5786 5.85235 19.9033 5.86961C19.2679 5.88576 18.6203 5.95167 18.0039 6.09984C15.7599 6.63925 13.5969 7.37878 11.6185 8.603C9.41341 9.96787 7.48602 11.6089 5.95476 13.6982C4.73284 15.3653 3.7521 17.1555 3.1025 19.1048C2.79204 20.0363 2.51696 20.9819 2.4 21.9777C2.31378 22.7121 2.11506 23.452 2.09904 24.1884C2.07483 25.3032 2.032 26.4184 2.21172 27.5427C2.34395 28.3691 2.45401 29.2012 2.64025 30.0176C3.17755 32.3746 4.18474 34.5429 5.55583 36.5272C6.68482 38.1613 8.07547 39.5755 9.65496 40.8139C11.5116 42.2694 13.5703 43.3374 15.8124 44.0599C17.8195 44.7065 19.8829 45.0539 22.0857 44.9959Z" fill="#0D4156"/>
<path d="M41.3104 8.61514C40.7925 8.25492 40.4986 7.75994 39.9898 7.47573C39.3815 7.78289 39.0556 8.37499 38.5943 8.69758C38.0823 8.19287 37.5696 7.68779 37.0176 7.14361C37.2975 6.71784 37.9281 6.38792 38.2587 5.78682C37.9873 5.27091 37.4768 4.98799 37.2038 4.60794C38.1101 3.69859 39.0062 2.79896 39.8466 1.9557C41.1476 3.24161 42.4956 4.57379 43.9116 5.97336C43.6667 6.37746 43.1374 6.75236 42.7044 7.20823C42.2602 7.67531 41.7974 8.12512 41.3104 8.61514Z" fill="#0D4156"/>
<path d="M20.9076 22.6823C20.9076 18.7432 20.9089 14.8634 20.9063 10.9837C20.9059 10.3598 20.9808 9.77321 21.5857 9.3783C21.8479 9.3783 22.1256 9.3783 22.4126 9.3783C23.0102 9.7398 23.1022 10.3176 23.1017 10.9407C23.0996 13.6598 23.1007 16.379 23.1007 19.0981C23.1007 20.2876 23.1007 21.4772 23.1007 22.6461C25.4803 24.0308 25.6403 26.561 23.1237 28.1631C23.1237 28.7843 23.1237 29.422 23.1237 30.0525C23.0289 30.2553 22.957 30.4532 22.8484 30.629C22.7525 30.7841 22.6158 30.9146 22.5303 31.0165C22.1699 31.0165 21.8922 31.0165 21.625 31.0165C21.0391 30.7263 20.9558 30.1828 20.9152 29.6436C20.8787 29.1591 20.9076 28.6698 20.9076 28.1504C20.1688 27.7446 19.5948 27.1821 19.2743 26.3952C18.8305 25.3061 19.0327 24.3406 19.8522 23.5015C20.149 23.1969 20.4228 22.8578 20.9076 22.6823Z" fill="#0D4156"/>
</g>
<defs>
<clipPath id="clip0">
<rect width="44" height="47" fill="white"/>
</clipPath>
</defs>
</svg>
