<svg width="56" height="47" viewBox="0 0 56 47" fill="none" xmlns="http://www.w3.org/2000/svg">
<path d="M16.7011 10.7081C17.077 10.263 17.4423 9.83786 17.7995 9.40569C21.5241 4.90179 26.1895 1.94946 31.7943 0.569781C34.0562 0.0129415 36.3764 -0.112707 38.6746 0.093657C42.4859 0.4358 45.966 1.748 48.9739 4.24953C52.3614 7.0669 54.5156 10.6383 55.4947 14.995C55.9891 17.1951 56.1033 19.4195 55.9124 21.6282C55.5238 26.1271 54.0007 30.2432 51.4321 33.9297C48.0892 38.7272 43.7289 42.1591 38.2605 44.0712C36.6601 44.6309 35.0168 44.9786 33.3303 45.1892C32.0511 45.349 30.7815 45.2609 29.5088 45.3148C29.4823 45.316 29.4531 45.3217 29.4293 45.313C28.5299 44.9911 27.7319 45.3661 26.9153 45.6741C25.3753 46.2548 23.7831 46.5894 22.1543 46.8197C20.6641 47.0303 19.1678 47.0478 17.6982 46.917C13.9408 46.5826 10.5049 45.2972 7.49539 42.9043C5.37009 41.2145 3.64687 39.184 2.36553 36.7653C1.37955 34.9041 0.73896 32.9253 0.342303 30.842C-0.0172919 28.9531 -0.0736834 27.0478 0.0799952 25.1642C0.401251 21.2266 1.66774 17.5854 3.80279 14.2769C4.72662 12.8453 5.78607 11.5286 6.98802 10.3284C7.82703 9.49049 8.82929 9.12041 9.98044 9.04067C11.9898 8.90162 13.8451 9.48363 15.6683 10.2414C16.0087 10.3828 16.341 10.5447 16.7011 10.7081ZM18.2927 11.4641C18.3157 11.5322 18.3166 11.5687 18.3328 11.5783C20.7867 13.0397 23.0685 14.7377 25.1933 16.6688C27.325 18.6061 29.3257 20.6725 31.0943 22.9545C32.964 25.3666 34.6406 27.911 35.8377 30.7649C36.6723 32.7542 37.2672 34.7731 37.1038 36.9653C37.0295 37.9607 36.743 38.876 36.0659 39.6178C35.2312 40.5323 34.3399 41.3865 33.3465 42.1223C32.7119 42.5922 32.0744 43.0579 31.337 43.5999C31.7079 43.5677 31.9426 43.5312 32.1774 43.5294C33.9115 43.516 35.5841 43.1309 37.2236 42.6051C42.8194 40.8109 47.1766 37.306 50.4369 32.374C52.8708 28.6921 54.1543 24.5835 54.3233 20.1418C54.3913 18.3543 54.1688 16.5752 53.7167 14.8378C52.3499 9.58574 49.3043 5.72839 44.4811 3.42538C41.554 2.02773 38.458 1.51533 35.2171 1.82381C33.4981 1.98737 31.8252 2.29879 30.1853 2.82851C25.8276 4.23662 22.2524 6.85138 19.2179 10.2927C18.8842 10.6715 18.5896 11.0863 18.2927 11.4641ZM5.56514 14.7099C4.90314 15.6669 4.38316 16.5768 3.92292 17.5194C2.497 20.44 1.75928 23.5484 1.68499 26.8014C1.64618 28.507 1.85688 30.2074 2.28885 31.8654C3.29463 35.7253 5.27152 38.959 8.351 41.4313C11.6291 44.0629 15.4189 45.2452 19.5507 45.2946C20.8982 45.3106 22.2402 45.1102 23.5705 44.8405C26.4876 44.2488 29.1387 43.0458 31.5881 41.3197C31.1488 41.0454 30.66 41.1065 30.2071 41.0011C27.9698 40.4804 25.9189 39.5041 23.9556 38.3202C20.994 36.5343 18.331 34.3553 15.8733 31.9012C13.5299 29.5612 11.3811 27.0572 9.56653 24.2634C8.05371 21.9344 6.76981 19.4928 6.02809 16.7789C5.85077 16.1293 5.86195 15.4396 5.56514 14.7099ZM32.0974 39.4752C32.3364 39.4634 32.5752 39.4477 32.8143 39.4402C34.1783 39.3974 35.0924 38.4875 35.3756 37.2351C35.6473 36.0333 35.3992 34.9118 35.113 33.7985C34.4126 31.0747 33.0305 28.6696 31.5113 26.362C30.5376 24.8831 29.4422 23.4772 28.2543 22.1663C25.7231 19.3726 23.043 16.7377 19.9277 14.621C17.2813 12.823 14.5354 11.2391 11.3145 10.7517C10.5539 10.6367 9.83859 10.7241 9.12706 10.9524C8.31122 11.2141 7.79412 11.7861 7.53852 12.6204C7.2604 13.5281 7.31375 14.4607 7.45705 15.3621C7.6775 16.7484 8.17017 18.0597 8.75389 19.3352C10.191 22.4754 12.1628 25.2482 14.3771 27.8436C16.1785 29.9553 18.1658 31.8748 20.3076 33.6331C22.5021 35.4348 24.8202 37.0228 27.3894 38.2042C28.8856 38.8922 30.4181 39.4752 32.0974 39.4752Z" fill="#0D4156"/>
<path d="M39.4989 9.65609C39.5265 10.741 38.454 11.858 37.3525 11.8155C36.3101 11.7753 35.2914 11.025 35.2681 9.61361C35.2489 8.45565 36.2991 7.41485 37.4002 7.4387C38.5019 7.46272 39.5083 8.52591 39.4989 9.65609ZM37.6987 9.94285C37.7785 9.56933 37.7848 9.26869 37.3697 9.22294C37.1194 9.19549 36.9721 9.36003 36.9544 9.6123C36.9336 9.90821 37.1338 10.0007 37.6987 9.94285Z" fill="#0D4156"/>
<path d="M43.3191 9.66573C43.2434 8.4795 44.1049 7.55536 45.3699 7.45112C46.4553 7.36158 47.4473 8.46513 47.4964 9.61704C47.5411 10.6685 46.6861 11.7877 45.4188 11.8122C44.3413 11.8331 43.259 10.9403 43.3191 9.66573ZM45.4404 10.0247C45.722 10.0649 45.8188 9.81507 45.8067 9.63256C45.7917 9.4079 45.6613 9.178 45.3479 9.21313C45.0953 9.2414 44.9595 9.41149 44.9586 9.62946C44.9573 9.90984 45.1464 10.0474 45.4404 10.0247Z" fill="#0D4156"/>
<path d="M40.77 16.5133C40.7733 15.2923 41.6743 14.382 42.8696 14.3922C44.0721 14.4023 44.8992 15.3117 44.9439 16.5558C44.9832 17.6484 43.9784 18.7054 42.8307 18.6957C41.8317 18.6874 40.6654 17.7652 40.77 16.5133ZM42.863 16.0689C42.568 16.1452 42.4525 16.3362 42.402 16.5811C42.8592 17.0414 42.8844 17.0406 43.3057 16.5362C43.203 16.3695 43.1459 16.1565 42.863 16.0689Z" fill="#0D4156"/>
<path d="M12.8674 14.4185C13.6992 14.3849 14.4024 14.6981 15.0955 15.0319C16.7063 15.8077 18.1397 16.8666 19.5517 17.9618C21.8691 19.7593 23.9167 21.8568 25.9085 24.007C26.9623 25.1449 27.9288 26.3687 28.8499 27.6318C29.7699 28.8936 30.6021 30.2007 31.2874 31.6041C31.6799 32.408 31.9157 33.2615 31.8502 34.1832C31.7837 35.118 31.1383 35.7807 30.2228 35.8423C29.2592 35.9072 28.3945 35.5598 27.5751 35.1283C25.4 33.9829 23.4571 32.4911 21.5992 30.8685C19.8158 29.3109 18.1611 27.6188 16.5844 25.8543C14.8502 23.9135 13.2511 21.8541 11.9876 19.5451C11.5472 18.7402 11.1855 17.9056 10.974 17.0101C10.8411 16.447 10.8144 15.8596 11.1072 15.3479C11.4989 14.6625 12.0986 14.3043 12.8674 14.4185ZM30.1436 34.045C30.2698 33.7791 30.206 33.5809 30.1522 33.3685C29.9032 32.3844 29.3894 31.5199 28.8884 30.6719C27.7788 28.7939 26.4162 27.0954 24.9592 25.4926C22.6982 23.0051 20.3375 20.6174 17.629 18.626C16.4269 17.7422 15.2085 16.8792 13.8028 16.3565C13.4516 16.2258 13.0974 16.0106 12.6413 16.1377C12.6685 16.4926 12.6573 16.7964 12.7642 17.1197C13.0541 17.9976 13.4728 18.8095 13.9616 19.5756C15.9836 22.7445 18.4015 25.5646 21.1392 28.1116C22.2763 29.1694 23.4092 30.2263 24.6375 31.1714C25.9455 32.1779 27.2802 33.1382 28.8004 33.8005C29.2281 33.9866 29.6424 34.0976 30.1436 34.045Z" fill="#0D4156"/>
</svg>
