<svg width="18" height="18" viewBox="0 0 18 18" fill="none" xmlns="http://www.w3.org/2000/svg">
<path fill-rule="evenodd" clip-rule="evenodd" d="M12.7379 0C14.2621 0 15.6048 0.508065 16.5484 1.4879C17.4919 2.43145 18 3.7379 18 5.2621V12.7379C18 14.2984 17.4919 15.6411 16.5121 16.5847C15.5685 17.4919 14.2621 18 12.7016 18H5.29839C3.81048 18 2.50403 17.5282 1.52419 16.5847C0.508065 15.6048 0 14.2621 0 12.7016V5.2621C0 2.10484 2.10484 0 5.2621 0H12.7379ZM15.3508 15.3871C16.004 14.7702 16.4032 13.8629 16.4032 12.7379V5.2621C16.4032 4.20968 16.0403 3.30242 15.4234 2.64919C14.7702 1.99597 13.8629 1.66935 12.7742 1.66935H5.29839C4.20968 1.66935 3.26613 1.99597 2.64919 2.6129C1.99597 3.26613 1.66935 4.17339 1.66935 5.2621V12.7016C1.66935 13.8266 1.99597 14.7339 2.64919 15.3871C3.30242 16.004 4.20968 16.3306 5.29839 16.3306H12.7016C13.7903 16.3306 14.6976 16.004 15.3508 15.3871ZM13.8266 5.26206C14.4078 5.26206 14.879 4.79088 14.879 4.20965C14.879 3.62841 14.4078 3.15723 13.8266 3.15723C13.2454 3.15723 12.7742 3.62841 12.7742 4.20965C12.7742 4.79088 13.2454 5.26206 13.8266 5.26206ZM9.00002 4.31885C6.4597 4.31885 4.35486 6.3874 4.35486 8.96401C4.35486 11.5406 6.42341 13.6092 9.00002 13.6092C11.5766 13.6092 13.6452 11.5043 13.6452 8.96401C13.6452 6.42369 11.5403 4.31885 9.00002 4.31885ZM9.00002 11.9398C7.36696 11.9398 6.02421 10.5971 6.02421 8.96401C6.02421 7.33094 7.36696 5.9882 9.00002 5.9882C10.6331 5.9882 11.9758 7.33094 11.9758 8.96401C11.9758 10.5971 10.6331 11.9398 9.00002 11.9398Z" fill="#0D4156"/>
</svg>
