<svg width="360" height="96" viewBox="0 0 360 96" fill="none" xmlns="http://www.w3.org/2000/svg">
<path d="M127.438 48.6144C127.22 53.9208 127.102 58.5785 127.102 62.595C127.102 65.1749 127.151 67.6149 127.27 69.8764C127.388 72.1433 127.556 74.2596 127.753 76.2347L124.789 78.0048C121.34 74.2915 116.556 68.5533 110.419 60.8083C104.301 53.0566 99.7145 47.4544 96.6898 43.9944C96.7104 51.7288 96.8286 59.9063 97.0855 68.5049C97.1545 70.7877 97.1944 72.1698 97.1944 72.6825C97.1944 74.7232 96.9965 76.0609 96.6009 76.6817C96.1959 77.3184 95.4643 77.6215 94.3775 77.6215C93.6764 77.6215 92.9634 77.4908 92.1833 77.2216C91.4218 76.9516 90.6809 76.5583 89.9201 76.0609C90.9577 74.1674 91.6595 71.4191 92.0844 67.8841C92.5093 64.3319 92.7171 58.0712 92.7171 49.0839C92.7171 44.8685 92.4601 41.884 91.9762 40.102C91.5008 38.3265 90.6404 37.0949 89.446 36.3999C90.266 35.3195 91.0075 34.5595 91.6595 34.0839C92.3021 33.6363 92.9448 33.4094 93.6067 33.4094C94.1896 33.4094 94.7924 33.6084 95.3859 34.0408C95.9688 34.4507 96.6905 35.1961 97.5403 36.2699C97.679 36.449 98.0342 36.9019 98.6085 37.6248C105.864 47.0054 113.998 57.1798 123.05 68.105C123.08 65.0283 123.149 62.335 123.159 59.9918C123.198 57.6341 123.198 55.6259 123.198 53.9632C123.198 48.4956 123.011 44.3127 122.606 41.4463C122.211 38.5686 121.558 36.2699 120.649 34.5429C121.5 34.0408 122.29 33.6893 122.972 33.4419C123.654 33.1932 124.316 33.0858 124.909 33.0858C125.996 33.0858 126.758 33.4419 127.153 34.1105C127.558 34.8128 127.755 36.2918 127.755 38.5799C127.754 39.9508 127.656 43.2761 127.438 48.6144ZM160.164 50.4773C165.451 64.8725 169.108 73.1421 171.164 75.279C170.452 76.1531 169.78 76.758 169.167 77.1247C168.564 77.4915 167.932 77.6865 167.26 77.6865C165.353 77.6865 163.188 74.1681 160.756 67.0531C160.202 65.4932 159.788 64.2689 159.481 63.3723H144.102C142.58 66.9616 141.523 69.7796 140.939 71.8243C140.336 73.8491 140.03 75.598 140.03 77.0604L140 77.5565C139.575 77.6221 139.259 77.654 139.061 77.6706C138.843 77.6706 138.685 77.6858 138.507 77.6858C137.262 77.6858 136.344 77.4159 135.69 76.8714C135.048 76.3156 134.712 75.533 134.712 74.4805C134.712 73.4173 136.561 68.8935 140.228 60.8567C143.924 52.8304 147.127 45.354 149.874 38.4618C149.568 37.9863 149.232 37.5393 148.886 37.0956C148.55 36.6479 148.164 36.2003 147.779 35.7526C148.48 34.7962 149.124 34.1052 149.686 33.68C150.269 33.231 150.852 33.038 151.436 33.038C152.256 33.038 153.027 33.5985 153.817 34.7326C154.57 35.8819 155.478 37.8205 156.486 40.5556C157.386 42.9312 158.612 46.2341 160.164 50.4773ZM157.939 59.1568C156.98 56.3335 156.011 53.619 155.042 51.0218C154.084 48.3988 153.116 45.8938 152.157 43.4598L150.783 46.9145C148.589 52.4909 147.008 56.5663 146 59.1575H157.939V59.1568ZM201.082 50.4773C206.34 64.8725 209.997 73.1421 212.083 75.279C211.361 76.1531 210.689 76.758 210.086 77.1247C209.482 77.4915 208.841 77.6865 208.178 77.6865C206.261 77.6865 204.096 74.1681 201.655 67.0531C201.111 65.4932 200.696 64.2689 200.39 63.3723H185.001C183.489 66.9616 182.431 69.7796 181.848 71.8243C181.245 73.8491 180.938 75.598 180.938 77.0604L180.909 77.5565C180.483 77.6221 180.157 77.654 179.959 77.6706C179.751 77.6706 179.583 77.6858 179.407 77.6858C178.161 77.6858 177.232 77.4159 176.588 76.8714C175.947 76.3156 175.63 75.533 175.63 74.4805C175.63 73.4173 177.469 68.8935 181.145 60.8567C184.812 52.8304 188.044 45.354 190.782 38.4618C190.485 37.9863 190.149 37.5393 189.793 37.0956C189.447 36.6479 189.062 36.2003 188.667 35.7526C189.359 34.7962 190.011 34.1052 190.584 33.68C191.187 33.231 191.75 33.038 192.334 33.038C193.145 33.038 193.935 33.5985 194.705 34.7326C195.476 35.8819 196.366 37.8205 197.404 40.5556C198.284 42.9312 199.511 46.2341 201.082 50.4773ZM198.838 59.1568C197.889 56.3335 196.92 53.619 195.951 51.0218C194.973 48.3988 194.015 45.8938 193.046 43.4598L191.692 46.9145C189.508 52.4909 187.917 56.5663 186.879 59.1575H198.838V59.1568ZM245.647 71.0901C247.219 72.5107 248.592 73.3795 249.7 73.7191C249.146 75.3122 248.582 76.4449 247.96 77.1413C247.368 77.849 246.656 78.1938 245.816 78.1938C245.114 78.1938 244.333 77.849 243.483 77.2222C242.643 76.5855 241.655 75.5496 240.528 74.0653C239.658 73.0015 238.511 71.5225 237.059 69.6224C232.572 63.739 229.013 60.7811 226.375 60.7811C226.049 60.7811 225.693 60.8089 225.249 60.8408C224.824 60.8573 224.27 60.9217 223.647 61.0019C223.745 65.5907 223.953 68.9539 224.2 71.0901C224.477 73.2224 224.872 74.8638 225.426 76.0616C224.507 76.5855 223.677 76.9848 222.916 77.2441C222.144 77.4915 221.443 77.6221 220.78 77.6221C219.753 77.6221 219.041 77.3356 218.655 76.7573C218.29 76.1916 218.101 74.9931 218.101 73.2058C218.101 72.5857 218.181 69.8764 218.369 65.0827C218.537 60.2784 218.635 55.7771 218.635 51.557C218.635 46.126 218.506 42.089 218.23 39.4766C217.962 36.8535 217.547 34.8725 216.964 33.4963C219.416 33.4101 221.965 33.2854 224.634 33.0964C227.303 32.9293 228.795 32.8378 229.102 32.8378C233.361 32.8378 236.713 33.9387 239.172 36.1518C241.633 38.3537 242.86 41.3382 242.86 45.1013C242.86 48.4253 242.079 51.2599 240.527 53.619C238.965 55.9615 236.673 57.7853 233.638 59.1031C235.032 59.6105 236.731 61.1273 238.787 63.6475C239.34 64.3008 239.755 64.8293 240.043 65.1749C242.188 67.7124 244.056 69.6874 245.647 71.0901ZM234.044 54.1529C236.218 52.1665 237.296 49.4354 237.296 45.933C237.296 43.2662 236.514 41.1883 234.914 39.7146C233.303 38.2622 231.06 37.5393 228.123 37.5393C227.501 37.5393 226.829 37.5599 226.167 37.6573C225.495 37.7548 224.813 37.8742 224.101 38.0188C223.953 41.4576 223.815 44.7664 223.745 47.9133C223.676 51.0543 223.647 54.1038 223.647 57.0511C223.795 57.0511 224.012 57.0511 224.318 57.0843C224.585 57.1161 224.823 57.1161 224.97 57.1161C228.826 57.1161 231.879 56.1339 234.044 54.1529ZM285.449 58.5248C287.189 55.7293 289.462 52.1234 292.289 47.7084C296.884 40.5185 299.197 36.4005 299.197 35.3321C299.197 34.6079 299 34.0627 298.584 33.6906C298.179 33.2967 297.606 33.1077 296.874 33.1077C296.4 33.1077 295.846 33.1561 295.253 33.2264C294.691 33.2967 294.068 33.4426 293.435 33.6376C293.484 33.7556 293.534 33.8909 293.564 34.0481C293.593 34.2153 293.603 34.3877 293.603 34.5608C293.603 35.866 292.832 38.0042 291.299 40.9728C289.769 43.9367 287.07 48.4485 283.234 54.4891C280.121 49.2484 277.038 43.6668 273.955 37.7562C273.114 36.1266 272.58 35.1763 272.393 34.8745C271.938 34.1503 271.513 33.6383 271.118 33.3577C270.712 33.0712 270.278 32.92 269.774 32.92C268.884 32.92 268.113 33.3577 267.431 34.2418C266.74 35.1119 266.176 36.4019 265.722 38.1123C266.887 38.2151 268.686 40.0502 271.118 43.5699C273.549 47.1108 276.564 52.3622 280.22 59.3041C280.141 62.337 280.033 65.4952 279.884 68.7291C279.746 71.9835 279.667 73.749 279.667 74.0394C279.667 75.47 279.865 76.4794 280.24 77.0518C280.625 77.6129 281.289 77.8941 282.247 77.8941C282.988 77.8941 283.729 77.786 284.5 77.5107C285.281 77.2726 286.121 76.8906 287.03 76.366C286.478 75.2054 286.032 73.5427 285.805 71.3945C285.518 69.2411 285.399 66.3746 285.399 62.786C285.399 62.3589 285.399 61.6519 285.42 60.7021C285.439 59.7451 285.449 59.0209 285.449 58.5248ZM321.623 50.4773C326.881 64.8725 330.568 73.1421 332.614 75.279C331.912 76.1531 331.24 76.758 330.637 77.1247C330.024 77.4915 329.402 77.6865 328.73 77.6865C326.802 77.6865 324.638 74.1681 322.216 67.0531C321.683 65.4932 321.247 64.2689 320.951 63.3723H305.552C304.05 66.9616 302.992 69.7796 302.389 71.8243C301.806 73.8491 301.5 75.598 301.5 77.0604L301.46 77.5565C301.026 77.6221 300.71 77.654 300.512 77.6706C300.305 77.6706 300.127 77.6858 299.958 77.6858C298.732 77.6858 297.774 77.4159 297.142 76.8714C296.499 76.3156 296.182 75.533 296.182 74.4805C296.182 73.4173 298.011 68.8935 301.687 60.8567C305.365 52.8304 308.577 45.354 311.324 38.4618C311.027 37.9863 310.702 37.5393 310.355 37.0956C310.01 36.6479 309.624 36.2003 309.229 35.7526C309.93 34.7962 310.572 34.1052 311.136 33.68C311.709 33.231 312.312 33.038 312.895 33.038C313.716 33.038 314.496 33.5985 315.257 34.7326C316.028 35.8819 316.937 37.8205 317.946 40.5556C318.846 42.9312 320.071 46.2341 321.623 50.4773ZM318.667 59.1568C317.699 56.3335 316.741 53.619 315.772 51.0218C314.813 48.3988 313.845 45.8938 312.885 43.4598L311.492 46.9145C309.328 52.4909 307.717 56.5663 306.699 59.1575H318.667V59.1568ZM358.726 71.0417C357.699 71.6465 356.424 72.079 354.832 72.3482C353.251 72.6182 351.106 72.7322 348.379 72.7322C347.607 72.7322 346.816 72.7104 346.046 72.6832C345.255 72.6341 344.454 72.5857 343.663 72.4888V66.8807C343.663 59.0269 343.832 50.6869 344.177 41.8568C344.266 39.5515 344.316 38.1382 344.316 37.603C344.316 35.7678 344.138 34.5595 343.733 33.9646C343.346 33.3763 342.625 33.0858 341.567 33.0858C340.816 33.0858 340.065 33.2251 339.275 33.4963C338.483 33.755 337.653 34.1383 336.793 34.6616C337.426 35.9628 337.881 38.0838 338.178 41.0258C338.454 43.9732 338.583 48.1945 338.583 53.7158C338.583 59.5886 338.434 65.7797 338.098 72.3164C338 74.0375 337.951 75.1012 337.951 75.533C337.951 76.3474 338.079 76.937 338.336 77.2554C338.603 77.589 339.058 77.7462 339.691 77.7462C339.741 77.7462 340.541 77.7031 342.171 77.6228C343.812 77.5465 345.424 77.4921 347.034 77.4921C348.19 77.4921 349.653 77.5465 351.462 77.5896C353.25 77.6546 354.476 77.6871 355.118 77.6871C356.946 77.6871 358.182 77.4928 358.835 77.1154C359.497 76.7155 359.833 76.0145 359.833 75.0263C359.833 74.373 359.744 73.7198 359.576 73.0678C359.379 72.4291 359.122 71.7434 358.726 71.0417ZM261.441 42.1321C261.52 39.8161 261.559 38.3968 261.559 37.8742C261.559 36.0278 261.372 34.8301 260.997 34.2405C260.601 33.6416 259.879 33.3564 258.822 33.3564C258.081 33.3564 257.32 33.497 256.529 33.7556C255.758 34.0256 254.918 34.4242 254.048 34.9275C254.7 36.2275 255.145 38.3544 255.442 41.2865C255.728 44.2491 255.857 48.4704 255.857 53.9864C255.857 59.8698 255.708 66.0715 255.353 72.587C255.263 74.3246 255.204 75.3771 255.204 75.8089C255.204 76.6028 255.332 77.191 255.61 77.5094C255.857 77.8496 256.33 78.0221 256.963 78.0221C256.983 78.0221 257.813 77.9896 259.434 77.8927C261.065 77.8125 259.741 77.8496 261.342 77.8496C262.479 77.849 261.105 50.9582 261.441 42.1321ZM258.15 23.1594C255.709 23.1594 253.712 25.092 253.712 27.4564C253.712 29.8533 255.708 31.7686 258.15 31.7686C260.601 31.7686 262.569 29.8526 262.569 27.4564C262.568 25.092 260.601 23.1594 258.15 23.1594Z" fill="#626161"/>
<path d="M72.3387 0.0607718C72.3812 0.101228 72.4025 0.14898 72.4025 0.205353V1.01249C72.4025 1.0682 72.3812 1.11661 72.3387 1.15707C72.2962 1.19753 72.2464 1.21809 72.1887 1.21809H70.7965V5.12178C70.7965 5.17749 70.7759 5.22591 70.7334 5.26636C70.6909 5.30682 70.6411 5.32738 70.5827 5.32738H69.5464C69.4886 5.32738 69.4382 5.30748 69.3957 5.26636C69.3532 5.22591 69.3326 5.17749 69.3326 5.12178V1.21742H67.9404C67.8826 1.21742 67.8322 1.19753 67.7904 1.15641C67.7479 1.11595 67.7273 1.0682 67.7273 1.01182V0.205353C67.7273 0.149643 67.7479 0.101891 67.7904 0.0607718C67.8322 0.0203156 67.882 -0.000244141 67.9404 -0.000244141H72.1887C72.2464 -0.000244141 72.2962 0.0203156 72.3387 0.0607718Z" fill="#525252"/>
<path d="M74.2999 2.60222V5.12112C74.2999 5.17749 74.2786 5.22524 74.2368 5.26636C74.1943 5.30682 74.1445 5.32738 74.0868 5.32738H73.0498C72.992 5.32738 72.9416 5.30682 72.8997 5.26636C72.8573 5.22591 72.8367 5.17749 72.8367 5.12112V0.205353C72.8367 0.149643 72.8573 0.101228 72.8997 0.0607718C72.9416 0.0203156 72.992 -0.000244141 73.0491 -0.000244141H73.9673C74.1147 -0.000244141 74.2282 0.0680672 74.3072 0.205353L75.5892 2.31306L76.8712 0.205353C76.9502 0.0680672 77.0637 -0.000244141 77.2111 -0.000244141H78.1292C78.187 -0.000244141 78.2375 0.0203156 78.2793 0.0607718C78.3218 0.101228 78.3423 0.14898 78.3423 0.205353V5.12112C78.3423 5.17749 78.3218 5.22524 78.2793 5.26636C78.2368 5.30682 78.187 5.32738 78.1292 5.32738H77.0929C77.0351 5.32738 76.9847 5.30682 76.9429 5.26636C76.9004 5.22591 76.8798 5.17749 76.8798 5.12112V2.60222L76.1362 3.85769C76.099 3.9134 76.0579 3.95916 76.0134 3.99497C75.9689 4.03079 75.9118 4.04803 75.8434 4.04803H75.3369C75.2685 4.04803 75.2114 4.03079 75.1669 3.99497C75.1225 3.95982 75.0813 3.9134 75.0441 3.85769L74.2999 2.60222Z" fill="#525252"/>
<path d="M65.6242 37.5073C65.3215 36.1232 65.512 34.747 65.5299 33.4113C65.5684 30.9945 65.767 28.593 65.8811 26.1763V35.3525C65.8433 36.0575 65.7822 36.7698 65.6242 37.5073Z" fill="url(#paint0_radial)"/>
<path d="M65.6241 19.747C65.474 19.747 65.4435 19.938 65.4435 20.07C65.2576 21.3825 65.0618 22.6778 64.9569 24.0109C64.7099 26.3998 64.5061 28.8092 64.3129 31.2333C64.2571 32.1392 64.3076 33.0803 64.2571 34.0089C64.0022 32.2739 64.048 30.5515 64.1881 28.8291C64.374 26.0204 64.4935 23.217 64.2744 20.4003C64.2565 20.3446 64.2186 20.3088 64.1316 20.1131C62.764 24.7762 63.1331 29.4831 62.7514 34.1335C62.7109 33.4902 62.6239 32.8336 62.5961 32.2255C62.5728 31.5284 62.5728 30.8619 62.5728 30.1854V22.8456C62.5728 22.3827 62.527 21.9449 62.4965 21.4973C62.4965 21.3825 62.4533 21.2864 62.3663 21.2658C62.2289 21.2379 62.1499 21.2937 62.1167 21.4057C62.0457 21.6014 61.9461 21.7645 61.9209 21.9602C61.7861 23.2395 61.6228 24.489 61.5544 25.7684C61.4422 27.8137 61.3811 29.877 61.2895 31.9277C61.2895 31.9986 61.2716 32.0623 61.2158 32.1386C60.7498 27.8038 61.0246 23.4199 60.7093 19.0493C60.4497 19.0725 60.4849 19.2529 60.4497 19.3803C60.0626 21.039 59.9146 22.7381 59.8767 24.4532C59.8362 26.7864 59.8767 29.1189 59.8767 31.4495C60.0069 32.0623 59.9152 32.701 59.9279 33.3344C59.9279 33.4106 59.8767 33.4743 59.7652 33.4663C59.3118 30.6629 59.2991 27.8748 59.2633 25.0859C59.2354 23.2999 59.1053 21.5596 59.0389 19.7537C59.0183 19.6111 59.0621 19.3876 58.8709 19.3796C58.616 19.3796 58.7156 19.6343 58.6645 19.7742C58.1446 22.7176 58.2316 25.6762 58.1831 28.605C58.1831 29.2867 58.1041 29.9407 57.9973 30.6225C57.7529 26.9741 57.9614 23.3311 57.2789 19.7338C56.9377 20.3114 56.9762 20.9475 56.9377 21.6014C56.7266 25.0514 56.7266 28.534 56.9377 32.0272C57.0572 34.0851 57.3041 36.1358 57.7782 38.1606C57.9614 38.8828 58.0125 39.6767 58.1041 40.4222C58.1294 40.6258 58.2874 40.8725 57.9973 40.9972C57.7934 40.0634 57.5949 39.0738 57.409 38.1606C57.0193 36.0794 56.688 34.0089 56.2678 31.9708C55.7891 29.5487 55.4353 27.1087 54.9891 24.6436C54.8185 23.6899 54.6227 22.7328 54.2708 21.8123C54.2429 21.6929 54.1891 21.4966 54.0159 21.5603C53.8731 21.6007 53.8399 21.7407 53.8479 21.876C54.0159 24.9593 54.2144 28.0094 54.7189 31.0297C54.8922 32.2255 54.9891 33.467 55.1239 34.627C55.1777 34.8306 55.3125 35.0826 55.0044 35.2225C54.6227 33.3549 54.2429 31.48 53.8074 29.5772C53.3646 27.6566 52.789 25.7889 52.0043 23.8915C51.7931 24.2503 51.8921 24.5122 51.8921 24.749C51.8921 26.0489 52.0932 27.3289 52.3024 28.6056C52.789 31.7473 53.7078 34.7828 54.0849 37.9271C54.1487 38.4285 54.3219 38.8636 54.3093 39.3849C54.3219 39.4101 54.3219 39.4539 54.3219 39.4539C54.2834 39.5248 54.2429 39.5023 54.1898 39.4817C53.7516 37.6705 53.3394 35.8486 52.876 34.0453C52.1351 31.0662 51.3709 28.0671 50.5942 25.1158C50.1513 23.3019 49.6342 21.4979 49.0738 19.7046C49.028 19.5242 48.9769 19.3405 48.72 19.1853C48.6868 20.1138 48.5952 20.9919 48.7937 21.8289C49.1708 23.3728 49.2903 24.9606 49.5372 26.5198C49.7483 27.7434 49.9396 28.9724 50.243 30.1728C50.7827 32.1824 51.3842 34.2125 51.8018 36.2432C52.3721 38.843 53.0877 41.4203 53.7145 44.0049C53.753 44.231 53.7835 44.483 53.8313 44.7099C53.8897 44.8498 53.913 44.9619 53.6813 44.9619C52.4969 41.604 51.2415 38.2966 50.1666 34.8743C49.6063 33.081 49.1455 31.2691 48.5952 29.4399C48.2718 28.2468 47.7905 27.1094 47.3397 25.9368C47.0543 25.2909 46.7542 24.5885 46.6778 23.8636C46.6546 23.6395 46.5351 23.4213 46.2118 23.3649C46.2981 25.5429 46.721 27.6287 47.1897 29.822C46.8737 29.7099 46.8458 29.4837 46.7774 29.2874C46.2987 27.8144 45.7663 26.3567 45.1754 24.9115C45.0148 24.5653 44.8289 24.2092 44.8594 23.8072C44.8594 23.6467 44.8289 23.4431 44.6151 23.4637C44.3934 23.4637 44.4697 23.6899 44.4803 23.8431C44.7632 25.2471 45.0506 26.6312 45.372 28.0306C45.8048 29.7987 46.2124 31.549 46.6938 33.2919C47.0735 34.6276 47.5801 35.9481 47.9591 37.2964C48.3694 38.5963 48.8913 39.8611 49.1462 41.2167C49.3985 42.5955 50.0703 43.8729 50.5085 45.1854C50.6207 45.5031 50.7196 45.8188 50.8498 46.1265C50.8498 46.3374 50.7555 46.3374 50.6207 46.2459C49.7623 44.0884 48.963 41.9263 48.0687 39.7483C47.0961 37.2958 46.1155 34.8153 44.8853 32.4344C44.3529 31.3964 43.9738 30.2564 43.5788 29.1196C43.0005 27.3767 42.4176 25.6192 41.9004 23.8431C41.8852 23.7794 41.8035 23.731 41.6634 23.5711C41.6355 24.296 41.5592 24.8836 41.7039 25.4945C42.0299 26.6803 42.3764 27.896 42.733 29.1044C42.8345 29.3915 42.8784 29.6741 42.9441 29.9539C43.2422 31.5006 43.8915 32.9 44.3369 34.373C44.6656 35.3578 44.9378 36.3474 45.2717 37.3468C45.6229 38.2959 45.929 39.1859 46.326 40.1151C46.3817 40.2882 46.4687 40.4639 46.4787 40.6748C46.5298 40.7942 46.4534 40.8095 46.3539 40.7942C45.3427 38.8225 44.5507 36.7771 43.6365 34.7596C43.2063 33.8537 42.7071 32.9053 42.3353 31.9993C41.7444 30.5316 41.1894 29.0632 40.8329 27.5319C40.6722 26.7864 40.2241 26.1962 39.8829 25.4534C39.6764 25.9368 39.7634 26.3155 39.8596 26.6392C40.5806 29.3106 41.3242 31.9356 42.1009 34.6071C42.5238 36.0801 43.2063 37.5073 43.6518 38.983C43.922 39.8757 44.2832 40.7233 44.5587 41.6438C44.4159 41.7585 44.3243 41.5596 44.2121 41.5317C42.6487 38.0618 40.7486 34.81 39.1572 31.3964C38.6633 30.328 38.2962 29.2164 37.8865 28.1301C37.6216 27.242 37.0845 26.4283 36.8396 25.5429C36.8243 25.4182 36.7048 25.3167 36.6178 25.2478C36.5773 25.1589 36.5136 25.0521 36.3914 25.1158C36.2361 25.1847 36.2872 25.3167 36.3224 25.4182C36.6026 26.5629 36.9285 27.7434 37.2771 28.8576C38.1049 31.4807 39.2356 33.9027 39.9997 36.4621C40.0203 36.5231 39.9791 36.5941 39.9718 36.8415C39.6253 36.1749 39.3657 35.6967 39.1134 35.19C38.1176 33.2236 37.1091 31.234 36.1438 29.2164C35.8869 28.733 35.7488 28.2422 35.5324 27.7434C35.4713 27.5803 35.377 27.3773 35.1526 27.4536C34.972 27.5325 35.061 27.7434 35.1015 27.8761C35.6187 29.4406 35.9493 31.0788 36.655 32.6181C37.0115 33.3994 37.2485 34.2131 37.5466 34.9712C38.2391 36.6425 38.9142 38.337 39.6246 39.9878C40.6716 42.2772 41.6289 44.6157 42.6095 46.923C42.7396 47.2235 42.877 47.5823 43.0198 47.9178C43.0709 48.0372 43.0145 48.0525 42.877 48.0525C42.1155 46.6279 41.3235 45.2212 40.5494 43.8013C39.1001 41.1099 37.6615 38.4279 36.1538 35.7796C35.1526 33.9883 34.03 32.2666 32.9272 30.5309C32.576 30.0116 32.4512 29.3226 31.8982 28.9127C31.6738 29.0473 31.7608 29.2151 31.7986 29.3909C32.2215 30.592 32.8303 31.7798 33.2811 32.9676C33.9841 34.7457 34.8293 36.4455 35.6034 38.1878C36.3496 39.9281 37.1947 41.5815 37.9868 43.2733C38.5318 44.4333 39.0995 45.5707 39.6246 46.7234C40.1823 47.9165 40.7326 49.0486 41.3235 50.2086C41.9781 51.4375 42.561 52.6943 43.1751 53.9385C43.0988 53.9717 43.0709 54.0148 42.9992 53.9511C40.6716 49.9135 38.3798 45.8174 36.0263 41.7778C34.9083 39.875 33.6907 38.0478 32.5754 36.1729C31.7986 34.873 31.0398 33.5983 30.1256 32.3568C30.024 32.2248 29.9702 32.049 29.7717 32.0975C29.55 32.1817 29.716 32.3568 29.7465 32.4967C29.8049 32.9676 30.1263 33.3337 30.2816 33.7688C31.1885 36.2545 32.6192 38.5035 33.6303 40.9428C34.1501 42.1485 34.8884 43.2528 35.4892 44.4333C36.0721 45.6344 36.7526 46.7585 37.3302 47.9238C38.168 49.6183 39.1127 51.2054 39.999 52.8416C40.078 52.9689 40.1239 53.081 40.1823 53.2156C40.1975 53.4398 40.1059 53.4398 39.9712 53.3125C37.6256 49.4757 35.2396 45.6496 32.7871 41.8746C31.2111 39.4094 29.7618 36.8733 27.7475 34.7178C27.6327 34.5779 27.5464 34.3796 27.2383 34.3517C27.3605 34.7384 27.3857 35.1456 27.559 35.448C28.1751 36.4402 28.659 37.506 29.0262 38.595C29.24 39.3126 29.6602 39.8797 30.0247 40.513C31.0106 42.0928 31.6751 43.8125 32.6198 45.3671C33.5008 46.7386 34.3188 48.1705 35.1539 49.5467C35.4719 50.0733 35.6631 50.6231 35.9513 51.1344C36.5906 52.2387 37.1861 53.3556 37.8713 54.4366C37.9323 54.5765 37.9881 54.7112 38.0445 54.879C38.0445 55.0746 37.9323 55.0746 37.767 55.0136C36.8807 53.6984 35.9513 52.3349 35.0497 51.0217C34.1992 49.8617 33.3382 48.6454 32.4877 47.5106C30.7304 45.0222 29.0673 42.5345 27.1553 40.194C26.5266 39.4081 25.9915 38.5453 25.2811 37.8635C25.1995 37.7925 25.1537 37.6678 24.9426 37.7209C24.9831 38.3821 25.4139 38.9087 25.7419 39.4658C26.4064 40.5396 27.1095 41.5801 27.5961 42.7401C27.9168 43.4756 28.4267 44.0301 28.8595 44.6634C29.9417 46.2558 30.836 47.9908 31.8364 49.6216C33.0082 51.4992 34.1846 53.3536 35.3611 55.2364C35.6439 55.712 35.9725 56.1928 36.2321 56.7041C36.981 58.2004 38.0884 59.4439 38.9162 60.8559C39.8205 62.4105 40.8468 63.9266 41.8374 65.3943C42.4813 66.3918 43.0802 67.4091 43.8184 68.3303C44.394 69.0678 44.8043 69.9486 45.2956 70.7265C45.2266 71.0648 45.1197 70.8181 45.0154 70.7471C44.0169 69.4545 42.9653 68.1698 41.9801 66.8494C40.6483 65.0355 39.2296 63.3005 37.8547 61.5297C36.0183 59.1488 34.1846 56.795 32.3105 54.4346C30.4921 52.1014 28.6332 49.7762 26.8174 47.4383C25.3635 45.6317 23.8836 43.8689 22.3076 42.1697C21.803 41.6 21.2938 40.9819 20.6697 40.4679C20.4991 40.6941 20.6213 40.8473 20.7029 40.9819C21.5487 42.437 22.3228 43.9611 23.2775 45.3578C24.1817 46.6524 24.9738 48.0492 25.8853 49.3418C27.2124 51.2319 28.5336 53.1427 29.8554 55.0255C30.5611 56.023 31.2994 56.9999 32.0356 57.9769C33.4517 59.8518 35.1553 61.5947 36.3244 63.6527C36.89 64.6574 37.7657 65.3803 38.4382 66.3089C39.2376 67.3773 40.1086 68.4079 40.7605 69.5553C40.7353 69.6873 40.6483 69.731 40.5361 69.6873C38.8326 67.8044 37.2226 65.8307 35.5775 63.8841C33.4663 61.3957 31.2403 59.0453 28.979 56.7048C26.4808 54.0791 24.0031 51.4282 21.479 48.78C20.44 47.691 19.2862 46.6657 18.0666 45.773C17.9345 45.6536 17.799 45.5621 17.5727 45.5621C17.7712 46.1245 18.1861 46.5112 18.5048 46.9615C19.6613 48.4424 20.8145 49.9559 21.9404 51.472C23.4302 53.4385 25.0654 55.2524 26.7205 57.0994C27.7342 58.2315 28.7195 59.3941 29.6443 60.6536C30.1508 61.2996 30.8592 61.8494 31.3604 62.508C32.3788 63.9272 33.5579 65.1688 34.6202 66.5529C35.7129 68.0007 36.8409 69.428 38.17 70.7199C38.6334 71.1497 39.0025 71.7048 39.4102 72.2029C39.5071 72.2944 39.5781 72.4191 39.4965 72.6021C39.1579 72.5411 39.0278 72.246 38.8319 72.0397C37.0288 70.4016 35.4905 68.4855 33.7332 66.7784C32.5515 65.6337 31.3697 64.4253 30.2212 63.2242C29.2028 62.2268 28.0542 61.2624 27.0989 60.1741C26.6328 59.6754 26.0114 59.2681 25.5885 58.79C24.5289 57.5053 23.0392 56.7041 21.9265 55.4825C20.839 54.2509 19.6599 53.1062 18.4908 51.9893C17.8973 51.4269 17.2354 50.9361 16.5888 50.4016C16.5303 50.4726 16.4872 50.4726 16.4487 50.5415C16.6883 50.8672 16.8995 51.2512 17.1365 51.61C18.7179 53.9146 20.6206 55.958 22.5459 57.9676C23.2516 58.6699 23.9693 59.3517 24.667 60.0819C25.9583 61.3871 27.1958 62.7328 28.4771 64.0022C30.265 65.7604 31.8743 67.6426 33.5579 69.4538C36.4027 72.5524 39.367 75.5674 42.2397 78.6228C42.4183 78.7833 42.6115 78.9232 42.6042 79.2535C42.0365 79.0347 41.7053 78.6076 41.3667 78.2129C39.2303 76.0502 36.8894 74.099 34.6919 71.9979C33.4517 70.769 32.0967 69.678 30.7901 68.5326C30.026 67.9145 29.3641 67.24 28.6332 66.602C27.1971 65.3147 25.7094 64.0373 24.2634 62.7328C22.5625 61.1656 20.5914 59.9904 18.9157 58.4458C17.5328 57.1531 16.0683 56.0011 14.5765 54.8611C14.5055 54.8054 14.4338 54.7085 14.3601 54.6933C14.2479 54.6243 14.1104 54.5739 14.0261 54.6727C13.8987 54.7848 14.0693 54.8611 14.1231 54.94C14.5765 55.4155 15.012 55.8937 15.4548 56.3672C18.7199 59.7583 22.1834 62.9052 25.639 66.0827C28.8888 69.0539 32.1179 72.0742 35.2681 75.1781C37.8175 77.6512 40.4558 80.1237 43.0583 82.5835C43.2442 82.7719 43.4121 83.0133 43.5801 83.2017C43.5801 83.4126 43.4832 83.3774 43.3557 83.3058C42.2324 82.4356 41.3262 81.3241 40.2002 80.4818C37.6283 78.5664 35.2675 76.4494 32.8834 74.3225C30.897 72.5517 28.6179 71.084 26.6567 69.2701C25.8162 68.4842 24.9731 67.7308 24.0463 67.0517C22.368 65.9069 20.7155 64.739 19.0372 63.6149C18.0387 62.9052 17.0993 62.1114 16.1088 61.3937C15.3194 60.8061 14.4709 60.3047 13.6331 59.8087C13.7453 60.2769 14.1091 60.5309 14.4198 60.8187C17.0356 63.1314 19.6453 65.3929 22.2511 67.6499C25.4677 70.4586 28.7042 73.2342 31.9002 76.0303C34.0545 77.9258 36.2115 79.8716 38.3227 81.7545C38.7025 82.1054 39.0205 82.4721 39.367 82.823C39.3265 82.884 39.2781 82.884 39.2369 82.823C38.6334 82.7467 38.162 82.3806 37.7471 82.0291C36.2879 80.6934 34.6401 79.6044 33.2041 78.2686C32.9139 78.0093 32.5521 77.813 32.2235 77.6021C29.4245 75.7955 26.8858 73.5545 24.189 71.5702C22.8008 70.5654 21.3522 69.6163 19.9999 68.5326C17.9345 66.8965 15.7264 65.4493 13.5594 63.9684C13.4067 63.8821 13.3224 63.7701 13.1212 63.8536C13.0655 64.0904 13.2308 64.2403 13.3961 64.4081C14.1908 65.2855 14.9828 66.1736 15.887 66.98C18.2379 69.1428 20.7766 71.1119 23.2264 73.1698C24.2627 74.0758 25.2944 74.9963 26.3972 75.8386C28.4446 77.4058 30.3951 79.0565 32.4147 80.6927C34.8751 82.6545 37.3123 84.6767 39.7468 86.6583C41.5599 88.1393 43.3557 89.617 45.1761 91.1006C45.3261 91.2253 45.5406 91.3499 45.6242 91.6245C44.9338 91.4003 44.481 90.9248 43.9738 90.5634C41.7278 89.1308 39.4228 87.7447 37.3654 86.1012C36.0741 85.0554 34.666 84.2137 33.3388 83.201C31.4647 81.7532 29.394 80.5959 27.4355 79.2529C26.3255 78.5101 25.1816 77.744 24.0941 76.9276C22.6169 75.8466 21.0256 75.0447 19.4262 74.1441C17.8754 73.2819 16.3776 72.3527 14.8573 71.4269C13.6324 70.7173 12.3617 70.0023 11.0831 69.3689C10.9456 69.2927 10.775 69.2695 10.6449 69.2217C10.5327 69.5447 10.8102 69.6442 10.9456 69.812C12.0178 70.9288 13.3954 71.7631 14.6309 72.6718C16.6883 74.2084 18.7438 75.6993 20.8145 77.1823C24.1811 79.5964 27.5477 81.9369 30.899 84.3059C33.5579 86.2087 36.1783 88.1141 38.8014 90.0023C40.4107 91.155 41.9794 92.3507 43.5788 93.4875C43.6651 93.5512 43.7494 93.6506 43.841 93.7289C43.841 93.9146 43.7494 93.9146 43.6219 93.8257C41.9794 92.8183 40.3775 91.7651 38.7197 90.763C37.5479 90.0175 36.3669 89.3231 35.1951 88.583C33.5905 87.5298 32.0044 86.4561 30.4509 85.2908C29.5367 84.601 28.513 84.0592 27.5198 83.449C25.2433 82.1644 23.1241 80.6178 20.8881 79.282C19.6453 78.5518 18.4052 77.8143 17.1371 77.0914C15.5325 76.2339 13.9312 75.3485 12.4182 74.349C11.1395 73.4868 9.85354 72.7414 8.51911 72.0185C8.78666 72.624 9.33437 72.9397 9.80507 73.3542C11.3739 74.7151 13.1644 75.8194 14.7637 77.1345C14.9423 77.295 15.105 77.4423 15.3187 77.5113C16.2714 78.2136 17.2082 78.9869 18.1861 79.676C20.6206 81.4746 23.0398 83.2328 25.5055 84.9724C27.3618 86.2876 29.2134 87.5703 31.0982 88.8218C33.3647 90.318 35.547 91.9482 37.7677 93.4875C38.3101 93.8257 38.8319 94.1819 39.367 94.5201C39.375 94.6548 39.3265 94.7032 39.1884 94.6879C38.5903 94.4259 38.0731 94.0771 37.5101 93.7289C35.063 92.1869 32.6205 90.564 30.1833 89.0605C27.2801 87.2466 24.448 85.3591 21.4073 83.7229C19.5278 82.746 17.7705 81.5449 15.9906 80.3929C13.981 79.0851 11.8419 78.0093 9.7181 76.9077C8.99512 76.5284 8.31728 76.0933 7.54849 75.824C7.43629 75.7962 7.34999 75.7199 7.1641 75.8187C7.63546 76.2744 8.06567 76.7956 8.5596 77.2029C10.457 78.8105 12.4965 80.2736 14.544 81.7034C17.8289 84.0234 21.2115 86.1861 24.4885 88.4099C27.9852 90.763 31.464 93.0809 34.9581 95.4287C35.1519 95.5561 35.3398 95.6934 35.5337 95.828H34.0771C31.1048 94.1567 28.1279 92.4874 25.1689 90.8114C21.2931 88.5903 17.4093 86.3692 13.5335 84.156C12.3339 83.449 11.0658 82.9145 9.7898 82.4283C9.63445 82.3799 9.42532 82.2121 9.31844 82.4283C9.22151 82.5835 9.39213 82.746 9.55279 82.8356C10.37 83.4132 11.1979 83.9882 12.0231 84.5175C15.3413 86.6723 18.7438 88.6341 22.1104 90.692C24.8815 92.3713 27.6134 94.1116 30.3639 95.8286H27.3286C25.1895 94.534 22.8692 93.6102 20.6286 92.4834C18.7723 91.4939 16.9433 90.4327 15.0386 89.4684C13.0774 88.451 11.1216 87.4409 9.07944 86.5761C8.92408 86.5124 8.73023 86.342 8.60807 86.533C8.51911 86.7366 8.74815 86.8076 8.88292 86.9196C11.1395 88.591 13.5893 90.003 16.0238 91.4229C18.5273 92.9085 21.084 94.3742 23.6254 95.8293H20.8218C19.5457 95.1933 18.2804 94.5546 17.0269 93.9159C14.3328 92.5829 11.656 91.2677 8.99446 89.9678C8.81122 89.8763 8.60741 89.7668 8.3299 89.8153C8.65587 90.4055 9.21354 90.6927 9.7181 91.011C12.2774 92.6187 14.8673 94.227 17.5315 95.6867C17.6131 95.7351 17.6922 95.7809 17.7685 95.8293H14.9928C14.5446 95.5925 14.0992 95.3564 13.6504 95.1323C12.3339 94.4783 11.0094 93.8529 9.62914 93.3542C10.7139 94.2926 11.901 95.0945 13.1206 95.8293H6.6675C2.98487 95.8293 0 92.8475 0 89.1686V12.0007C0 8.32179 2.98487 5.33997 6.6675 5.33997H59.2128C62.8955 5.33997 65.8823 8.32179 65.8823 12.0007V20.7014C65.8571 20.4825 65.8286 20.2637 65.806 20.0422C65.8053 19.938 65.8359 19.747 65.6241 19.747Z" fill="url(#paint1_radial)"/>
<defs>
<radialGradient id="paint0_radial" cx="0" cy="0" r="1" gradientUnits="userSpaceOnUse" gradientTransform="translate(2.53996 10.391) scale(62.865 62.7988)">
<stop stop-color="#B6BD00"/>
<stop offset="1" stop-color="#63A70A"/>
</radialGradient>
<radialGradient id="paint1_radial" cx="0" cy="0" r="1" gradientUnits="userSpaceOnUse" gradientTransform="translate(2.54172 10.391) scale(62.8631 62.7988)">
<stop stop-color="#B6BD00"/>
<stop offset="1" stop-color="#63A70A"/>
</radialGradient>
</defs>
</svg>
