<svg width="238" height="64" viewBox="0 0 238 64" fill="none" xmlns="http://www.w3.org/2000/svg">
<path d="M84.2898 32.1546C84.1458 35.6644 84.0676 38.7451 84.0676 41.4016C84.0676 43.108 84.1001 44.7219 84.1787 46.2177C84.2569 47.7171 84.368 49.1169 84.4984 50.4232L82.5377 51.594C80.2566 49.1379 77.0923 45.3426 73.0331 40.2199C68.9867 35.0928 65.9529 31.3874 63.9523 29.0989C63.9659 34.2146 64.0441 39.6233 64.214 45.3106C64.2597 46.8205 64.286 47.7346 64.286 48.0737C64.286 49.4235 64.1552 50.3083 63.8935 50.7189C63.6256 51.14 63.1417 51.3404 62.4229 51.3404C61.9592 51.3404 61.4876 51.254 60.9716 51.0759C60.4679 50.8974 59.9779 50.6373 59.4747 50.3083C60.161 49.0559 60.6251 47.2381 60.9062 44.9C61.1872 42.5505 61.3246 38.4095 61.3246 32.4652C61.3246 29.677 61.1547 27.703 60.8346 26.5243C60.5202 25.35 59.9511 24.5354 59.1611 24.0757C59.7034 23.3611 60.1939 22.8584 60.6251 22.5439C61.0502 22.2478 61.4753 22.0978 61.9131 22.0978C62.2986 22.0978 62.6973 22.2294 63.0899 22.5154C63.4754 22.7865 63.9527 23.2796 64.5148 23.9897C64.6066 24.1082 64.8415 24.4078 65.2213 24.8859C70.02 31.0904 75.4 37.8199 81.3877 45.0461C81.407 43.0111 81.4531 41.2297 81.4597 39.6799C81.4856 38.1204 81.4856 36.7922 81.4856 35.6924C81.4856 32.0761 81.3618 29.3094 81.0939 27.4135C80.8322 25.5102 80.4006 23.9897 79.7994 22.8475C80.3619 22.5154 80.8845 22.2829 81.3359 22.1193C81.7869 21.9548 82.2247 21.8837 82.6172 21.8837C83.3361 21.8837 83.8397 22.1193 84.101 22.5615C84.3688 23.026 84.4993 24.0042 84.4993 25.5176C84.4988 26.4243 84.4338 28.6238 84.2898 32.1546ZM105.935 33.3868C109.433 42.908 111.851 48.3777 113.211 49.7911C112.74 50.3692 112.296 50.7693 111.89 51.0119C111.492 51.2545 111.073 51.3834 110.629 51.3834C109.367 51.3834 107.935 49.0563 106.327 44.3503C105.96 43.3186 105.686 42.5088 105.484 41.9158H95.3115C94.3051 44.2898 93.6056 46.1537 93.2196 47.5061C92.8209 48.8453 92.618 50.0021 92.618 50.9693L92.5987 51.2975C92.3177 51.3409 92.1086 51.3619 91.9773 51.3729C91.8333 51.3729 91.7288 51.383 91.6111 51.383C90.7878 51.383 90.1801 51.2045 89.748 50.8443C89.3229 50.4767 89.1007 49.9591 89.1007 49.2629C89.1007 48.5598 90.3236 45.5676 92.7493 40.2519C95.1938 34.9432 97.3121 29.9981 99.1296 25.4395C98.9268 25.125 98.7046 24.8293 98.4758 24.5359C98.2536 24.2398 97.998 23.9437 97.7438 23.6476C98.2075 23.015 98.633 22.5579 99.0049 22.2768C99.3909 21.9798 99.7764 21.8521 100.162 21.8521C100.705 21.8521 101.215 22.2228 101.738 22.9729C102.235 23.7331 102.836 25.0153 103.503 26.8244C104.098 28.3957 104.909 30.5802 105.935 33.3868ZM104.464 39.1276C103.829 37.2602 103.188 35.4648 102.548 33.747C101.914 32.012 101.274 30.3552 100.639 28.7453L99.7303 31.0303C98.2791 34.7186 97.2335 37.4142 96.567 39.128H104.464V39.1276ZM132.999 33.3868C136.477 42.908 138.896 48.3777 140.275 49.7911C139.798 50.3692 139.354 50.7693 138.955 51.0119C138.555 51.2545 138.131 51.3834 137.693 51.3834C136.425 51.3834 134.993 49.0563 133.378 44.3503C133.019 43.3186 132.744 42.5088 132.541 41.9158H122.363C121.363 44.2898 120.663 46.1537 120.278 47.5061C119.879 48.8453 119.676 50.0021 119.676 50.9693L119.656 51.2975C119.375 51.3409 119.159 51.3619 119.028 51.3729C118.891 51.3729 118.779 51.383 118.663 51.383C117.839 51.383 117.224 51.2045 116.799 50.8443C116.374 50.4767 116.165 49.9591 116.165 49.2629C116.165 48.5598 117.381 45.5676 119.812 40.2519C122.238 34.9432 124.376 29.9981 126.186 25.4395C125.99 25.125 125.768 24.8293 125.533 24.5359C125.303 24.2398 125.049 23.9437 124.787 23.6476C125.245 23.015 125.677 22.5579 126.056 22.2768C126.454 21.9798 126.827 21.8521 127.213 21.8521C127.749 21.8521 128.272 22.2228 128.782 22.9729C129.291 23.7331 129.88 25.0153 130.567 26.8244C131.149 28.3957 131.96 30.5802 132.999 33.3868ZM131.515 39.1276C130.887 37.2602 130.246 35.4648 129.606 33.747C128.959 32.012 128.325 30.3552 127.684 28.7453L126.788 31.0303C125.344 34.7186 124.292 37.4142 123.605 39.128H131.515V39.1276ZM162.476 47.0205C163.515 47.9601 164.423 48.5348 165.156 48.7593C164.79 49.813 164.417 50.5623 164.005 51.0229C163.613 51.4909 163.143 51.719 162.587 51.719C162.123 51.719 161.606 51.4909 161.044 51.0764C160.489 50.6553 159.835 49.9701 159.09 48.9883C158.514 48.2847 157.756 47.3065 156.795 46.0497C153.827 42.1583 151.474 40.2019 149.729 40.2019C149.513 40.2019 149.277 40.2203 148.984 40.2414C148.703 40.2523 148.336 40.2949 147.924 40.348C147.989 43.3831 148.127 45.6075 148.29 47.0205C148.473 48.4308 148.734 49.5165 149.101 50.3087C148.493 50.6553 147.944 50.9193 147.44 51.0908C146.93 51.2545 146.466 51.3409 146.028 51.3409C145.348 51.3409 144.878 51.1514 144.623 50.7689C144.381 50.3947 144.256 49.602 144.256 48.4198C144.256 48.0097 144.309 46.2177 144.433 43.0471C144.544 39.8694 144.609 36.8922 144.609 34.101C144.609 30.5087 144.524 27.8386 144.341 26.1107C144.164 24.3758 143.89 23.0655 143.504 22.1553C145.125 22.0982 146.812 22.0158 148.577 21.8907C150.342 21.7802 151.329 21.7197 151.532 21.7197C154.349 21.7197 156.566 22.4478 158.193 23.9117C159.821 25.368 160.632 27.342 160.632 29.831C160.632 32.0296 160.115 33.9044 159.089 35.4648C158.055 37.0141 156.54 38.2204 154.532 39.0921C155.454 39.4276 156.578 40.4309 157.938 42.0978C158.304 42.5299 158.578 42.8795 158.769 43.108C160.187 44.7864 161.423 46.0927 162.476 47.0205ZM154.801 35.8179C156.239 34.5041 156.952 32.6977 156.952 30.3811C156.952 28.6172 156.435 27.2429 155.376 26.2682C154.311 25.3075 152.827 24.8294 150.885 24.8294C150.473 24.8294 150.028 24.8429 149.591 24.9074C149.146 24.9719 148.695 25.0509 148.225 25.1465C148.126 27.421 148.035 29.6095 147.989 31.6909C147.944 33.7684 147.924 35.7854 147.924 37.7348C148.022 37.7348 148.165 37.7348 148.368 37.7568C148.544 37.7778 148.702 37.7778 148.799 37.7778C151.349 37.7778 153.369 37.1282 154.801 35.8179ZM188.801 38.7096C189.952 36.8606 191.455 34.4756 193.325 31.5554C196.365 26.7998 197.894 24.0762 197.894 23.3695C197.894 22.8905 197.764 22.5299 197.489 22.2838C197.221 22.0232 196.842 21.8982 196.358 21.8982C196.044 21.8982 195.678 21.9302 195.286 21.9767C194.914 22.0232 194.502 22.1197 194.083 22.2487C194.115 22.3268 194.148 22.4163 194.169 22.5202C194.188 22.6308 194.194 22.7448 194.194 22.8593C194.194 23.7226 193.685 25.1369 192.671 27.1003C191.658 29.0607 189.873 32.0449 187.336 36.0403C185.277 32.574 183.238 28.8822 181.198 24.9728C180.643 23.895 180.289 23.2664 180.166 23.0668C179.864 22.5878 179.583 22.2491 179.322 22.0636C179.054 21.8741 178.767 21.7741 178.433 21.7741C177.845 21.7741 177.335 22.0636 176.884 22.6483C176.427 23.2238 176.053 24.077 175.753 25.2084C176.524 25.2763 177.714 26.4901 179.322 28.8181C180.93 31.1601 182.924 34.6335 185.343 39.225C185.291 41.231 185.219 43.3199 185.121 45.4588C185.029 47.6114 184.977 48.7791 184.977 48.9712C184.977 49.9174 185.107 50.5851 185.356 50.9636C185.611 51.3347 186.049 51.5207 186.683 51.5207C187.173 51.5207 187.664 51.4492 188.173 51.2672C188.69 51.1097 189.246 50.857 189.847 50.5101C189.481 49.7424 189.187 48.6427 189.037 47.2218C188.846 45.7975 188.768 43.9016 188.768 41.528C188.768 41.2455 188.768 40.7779 188.782 40.1497C188.794 39.5167 188.801 39.0377 188.801 38.7096ZM212.727 33.3868C216.205 42.908 218.643 48.3777 219.997 49.7911C219.533 50.3692 219.088 50.7693 218.689 51.0119C218.284 51.2545 217.872 51.3834 217.428 51.3834C216.153 51.3834 214.722 49.0563 213.12 44.3503C212.767 43.3186 212.479 42.5088 212.283 41.9158H202.098C201.104 44.2898 200.404 46.1537 200.006 47.5061C199.62 48.8453 199.417 50.0021 199.417 50.9693L199.391 51.2975C199.104 51.3409 198.895 51.3619 198.764 51.3729C198.627 51.3729 198.509 51.383 198.398 51.383C197.587 51.383 196.953 51.2045 196.535 50.8443C196.11 50.4767 195.9 49.9591 195.9 49.2629C195.9 48.5598 197.11 45.5676 199.542 40.2519C201.974 34.9432 204.098 29.9981 205.915 25.4395C205.719 25.125 205.504 24.8293 205.275 24.5359C205.046 24.2398 204.791 23.9437 204.529 23.6476C204.994 23.015 205.418 22.5579 205.791 22.2768C206.17 21.9798 206.569 21.8521 206.954 21.8521C207.497 21.8521 208.013 22.2228 208.517 22.9729C209.027 23.7331 209.628 25.0153 210.295 26.8244C210.89 28.3957 211.701 30.5802 212.727 33.3868ZM210.772 39.1276C210.132 37.2602 209.498 35.4648 208.857 33.747C208.223 32.012 207.583 30.3552 206.948 28.7453L206.026 31.0303C204.595 34.7186 203.53 37.4142 202.856 39.128H210.772V39.1276ZM237.268 46.9885C236.589 47.3885 235.745 47.6745 234.693 47.8526C233.647 48.0312 232.228 48.1066 230.424 48.1066C229.914 48.1066 229.391 48.0921 228.881 48.0742C228.358 48.0417 227.828 48.0097 227.305 47.9456V44.2363C227.305 39.0416 227.417 33.5254 227.645 27.6851C227.704 26.1603 227.737 25.2255 227.737 24.8715C227.737 23.6577 227.619 22.8584 227.351 22.465C227.095 22.0759 226.619 21.8837 225.919 21.8837C225.422 21.8837 224.925 21.9758 224.402 22.1553C223.879 22.3263 223.33 22.5799 222.761 22.926C223.179 23.7866 223.481 25.1895 223.677 27.1354C223.86 29.0848 223.945 31.8769 223.945 35.5288C223.945 39.4132 223.846 43.5081 223.624 47.8316C223.559 48.9699 223.527 49.6735 223.527 49.9591C223.527 50.4978 223.611 50.8877 223.782 51.0983C223.958 51.319 224.259 51.4229 224.678 51.4229C224.711 51.4229 225.24 51.3944 226.318 51.3413C227.403 51.2909 228.469 51.2549 229.535 51.2549C230.299 51.2549 231.267 51.2909 232.463 51.3194C233.646 51.3624 234.457 51.3839 234.882 51.3839C236.091 51.3839 236.908 51.2553 237.34 51.0057C237.778 50.7412 238 50.2776 238 49.624C238 49.1919 237.942 48.7598 237.83 48.3286C237.7 47.9061 237.53 47.4526 237.268 46.9885ZM172.922 27.8671C172.974 26.3353 173 25.3965 173 25.0509C173 23.8296 172.876 23.0374 172.628 22.6474C172.366 22.2513 171.889 22.0627 171.189 22.0627C170.699 22.0627 170.196 22.1557 169.673 22.3268C169.163 22.5053 168.607 22.7689 168.032 23.1019C168.463 23.9617 168.758 25.3685 168.954 27.3078C169.143 29.2673 169.228 32.0594 169.228 35.7078C169.228 39.5992 169.13 43.7011 168.895 48.0105C168.836 49.1598 168.797 49.856 168.797 50.1416C168.797 50.6667 168.881 51.0558 169.065 51.2663C169.228 51.4913 169.541 51.6054 169.96 51.6054C169.973 51.6054 170.522 51.5839 171.595 51.5199C172.673 51.4668 171.798 51.4913 172.856 51.4913C173.608 51.4909 172.699 33.7048 172.922 27.8671ZM170.745 15.3182C169.13 15.3182 167.81 16.5965 167.81 18.1603C167.81 19.7457 169.13 21.0125 170.745 21.0125C172.366 21.0125 173.668 19.7452 173.668 18.1603C173.667 16.5965 172.366 15.3182 170.745 15.3182Z" fill="#626161"/>
<path d="M47.8465 0.0403571C47.8746 0.0671156 47.8886 0.0986994 47.8886 0.135986V0.66984C47.8886 0.706688 47.8746 0.73871 47.8465 0.765469C47.8184 0.792227 47.7854 0.805826 47.7472 0.805826H46.8264V3.3878C46.8264 3.42465 46.8128 3.45667 46.7847 3.48343C46.7566 3.51019 46.7237 3.52379 46.685 3.52379H45.9996C45.9614 3.52379 45.928 3.51063 45.8999 3.48343C45.8718 3.45667 45.8582 3.42465 45.8582 3.3878V0.805387H44.9373C44.8991 0.805387 44.8658 0.792227 44.8381 0.76503C44.81 0.738271 44.7964 0.706688 44.7964 0.669401V0.135986C44.7964 0.0991381 44.81 0.0675543 44.8381 0.0403571C44.8658 0.0135986 44.8987 0 44.9373 0H47.7472C47.7854 0 47.8184 0.0135986 47.8465 0.0403571Z" fill="#525252"/>
<path d="M49.1436 1.72132V3.38736C49.1436 3.42465 49.1295 3.45623 49.1019 3.48343C49.0738 3.51019 49.0408 3.52379 49.0026 3.52379H48.3167C48.2785 3.52379 48.2452 3.51019 48.2175 3.48343C48.1894 3.45667 48.1758 3.42465 48.1758 3.38736V0.135986C48.1758 0.0991381 48.1894 0.0671156 48.2175 0.0403571C48.2452 0.0135986 48.2785 0 48.3163 0H48.9236C49.0211 0 49.0962 0.0451824 49.1484 0.135986L49.9963 1.53006L50.8443 0.135986C50.8965 0.0451824 50.9716 0 51.0691 0H51.6764C51.7146 0 51.748 0.0135986 51.7756 0.0403571C51.8037 0.0671156 51.8173 0.0986994 51.8173 0.135986V3.38736C51.8173 3.42465 51.8037 3.45623 51.7756 3.48343C51.7475 3.51019 51.7146 3.52379 51.6764 3.52379H50.9909C50.9527 3.52379 50.9194 3.51019 50.8917 3.48343C50.8636 3.45667 50.85 3.42465 50.85 3.38736V1.72132L50.3582 2.55171C50.3336 2.58856 50.3064 2.61882 50.2769 2.64251C50.2475 2.6662 50.2097 2.6776 50.1645 2.6776H49.8295C49.7842 2.6776 49.7465 2.6662 49.7171 2.64251C49.6876 2.61926 49.6604 2.58856 49.6358 2.55171L49.1436 1.72132Z" fill="#525252"/>
<path d="M43.4048 24.8082C43.2046 23.8927 43.3306 22.9825 43.3425 22.099C43.3679 20.5005 43.4992 18.9121 43.5748 17.3136V23.383C43.5497 23.8493 43.5093 24.3204 43.4048 24.8082Z" fill="url(#paint0_radial)"/>
<path d="M43.405 13.0612C43.3057 13.0612 43.2855 13.1875 43.2855 13.2748C43.1626 14.1429 43.0331 14.9997 42.9637 15.8814C42.8003 17.4614 42.6655 19.0551 42.5377 20.6584C42.5009 21.2576 42.5342 21.8801 42.5009 22.4942C42.3322 21.3467 42.3625 20.2075 42.4552 19.0683C42.5781 17.2105 42.6572 15.3563 42.5123 13.4933C42.5004 13.4564 42.4754 13.4328 42.4179 13.3033C41.5133 16.3876 41.7574 19.5008 41.5049 22.5767C41.4782 22.1512 41.4206 21.7169 41.4022 21.3147C41.3868 20.8536 41.3868 20.4128 41.3868 19.9653V15.1106C41.3868 14.8045 41.3565 14.5149 41.3363 14.2188C41.3363 14.143 41.3078 14.0793 41.2503 14.0657C41.1594 14.0473 41.1071 14.0842 41.0852 14.1583C41.0382 14.2877 40.9723 14.3956 40.9556 14.525C40.8665 15.3712 40.7585 16.1977 40.7132 17.0438C40.639 18.3967 40.5986 19.7614 40.538 21.1177C40.538 21.1646 40.5262 21.2068 40.4893 21.2572C40.181 18.3901 40.3628 15.4905 40.1542 12.5997C39.9825 12.6151 40.0058 12.7344 39.9825 12.8186C39.7265 13.9157 39.6286 15.0396 39.6036 16.174C39.5768 17.7172 39.6036 19.26 39.6036 20.8014C39.6897 21.2068 39.6291 21.6292 39.6374 22.0481C39.6374 22.0986 39.6036 22.1407 39.5298 22.1354C39.2299 20.2812 39.2216 18.437 39.1978 16.5925C39.1794 15.4111 39.0933 14.2601 39.0494 13.0656C39.0358 12.9713 39.0648 12.8234 38.9383 12.8182C38.7697 12.8182 38.8356 12.9866 38.8018 13.0792C38.4579 15.026 38.5155 16.9829 38.4834 18.92C38.4834 19.3709 38.4312 19.8035 38.3605 20.2544C38.1989 17.8413 38.3367 15.4317 37.8853 13.0524C37.6596 13.4345 37.6851 13.8552 37.6596 14.2877C37.52 16.5696 37.52 18.8731 37.6596 21.1835C37.7387 22.5447 37.902 23.901 38.2155 25.2403C38.3367 25.718 38.3706 26.2431 38.4312 26.7361C38.4478 26.8708 38.5523 27.034 38.3605 27.1164C38.2257 26.4988 38.0944 25.8443 37.9714 25.2403C37.7136 23.8637 37.4945 22.4942 37.2166 21.1462C36.9 19.5442 36.6659 17.9304 36.3708 16.2999C36.258 15.6691 36.1284 15.0361 35.8957 14.4272C35.8773 14.3482 35.8417 14.2184 35.7271 14.2605C35.6327 14.2873 35.6107 14.3798 35.616 14.4693C35.7271 16.5087 35.8584 18.5261 36.1921 20.5238C36.3067 21.3147 36.3708 22.1358 36.46 22.9031C36.4955 23.0377 36.5847 23.2044 36.3809 23.297C36.1284 22.0617 35.8773 20.8216 35.5892 19.5631C35.2963 18.2927 34.9156 17.0574 34.3966 15.8024C34.2569 16.0397 34.3224 16.213 34.3224 16.3696C34.3224 17.2294 34.4554 18.076 34.5937 18.9204C34.9156 20.9984 35.5233 23.0062 35.7728 25.0859C35.8149 25.4175 35.9295 25.7053 35.9212 26.05C35.9295 26.0667 35.9295 26.0957 35.9295 26.0957C35.9041 26.1426 35.8773 26.1277 35.8421 26.1141C35.5523 24.9161 35.2796 23.7111 34.9731 22.5184C34.4831 20.5479 33.9777 18.5642 33.4639 16.6122C33.171 15.4124 32.829 14.2193 32.4583 13.0331C32.428 12.9138 32.3942 12.7923 32.2243 12.6897C32.2023 13.3038 32.1417 13.8846 32.273 14.4382C32.5225 15.4594 32.6015 16.5095 32.7648 17.5408C32.9045 18.3502 33.0309 19.163 33.2316 19.957C33.5886 21.2862 33.9865 22.6289 34.2627 23.9721C34.6399 25.6917 35.1132 27.3963 35.5277 29.1058C35.5532 29.2554 35.5734 29.4221 35.605 29.5721C35.6437 29.6646 35.659 29.7388 35.5058 29.7388C34.7224 27.5178 33.892 25.3302 33.1811 23.0667C32.8105 21.8805 32.5058 20.6821 32.1417 19.4723C31.9279 18.6831 31.6095 17.9308 31.3114 17.1553C31.1226 16.728 30.9241 16.2635 30.8736 15.784C30.8582 15.6357 30.7792 15.4914 30.5653 15.4541C30.6224 16.8947 30.9021 18.2743 31.2121 19.725C31.0031 19.6508 30.9847 19.5012 30.9394 19.3714C30.6228 18.3971 30.2707 17.4329 29.8799 16.4771C29.7736 16.2481 29.6507 16.0125 29.6709 15.7467C29.6709 15.6405 29.6507 15.5059 29.5093 15.5195C29.3626 15.5195 29.4131 15.6691 29.4201 15.7704C29.6072 16.699 29.7973 17.6145 30.0098 18.5401C30.2962 19.7096 30.5658 20.8672 30.8841 22.02C31.1353 22.9035 31.4703 23.7769 31.7211 24.6687C31.9924 25.5285 32.3376 26.365 32.5062 27.2616C32.6731 28.1736 33.1175 29.0185 33.4073 29.8866C33.4815 30.0967 33.5469 30.3055 33.633 30.5091C33.633 30.6486 33.5706 30.6486 33.4815 30.588C32.9137 29.1611 32.385 27.731 31.7935 26.2904C31.1502 24.6683 30.5017 23.0277 29.688 21.4528C29.3358 20.7663 29.0851 20.0123 28.8238 19.2604C28.4413 18.1076 28.0558 16.9451 27.7137 15.7704C27.7036 15.7283 27.6496 15.6963 27.557 15.5905C27.5385 16.07 27.488 16.4587 27.5837 16.8627C27.7994 17.647 28.0286 18.4511 28.2644 19.2503C28.3316 19.4403 28.3605 19.6271 28.404 19.8122C28.6012 20.8352 29.0306 21.7608 29.3253 22.7351C29.5426 23.3865 29.7227 24.041 29.9435 24.702C30.1758 25.3298 30.3783 25.9184 30.6409 26.533C30.6777 26.6475 30.7353 26.7638 30.7418 26.9032C30.7757 26.9822 30.7252 26.9923 30.6593 26.9822C29.9905 25.6781 29.4667 24.3252 28.862 22.9908C28.5775 22.3916 28.2472 21.7643 28.0013 21.1651C27.6105 20.1943 27.2434 19.2231 27.0076 18.2102C26.9014 17.7172 26.605 17.3268 26.3793 16.8355C26.2427 17.1553 26.3002 17.4057 26.3639 17.6198C26.8408 19.3867 27.3326 21.123 27.8463 22.8899C28.1261 23.8642 28.5775 24.8082 28.8721 25.7842C29.0508 26.3747 29.2897 26.9353 29.4719 27.5441C29.3775 27.62 29.3169 27.4884 29.2427 27.47C28.2086 25.1749 26.9519 23.0241 25.8993 20.7663C25.5726 20.0597 25.3298 19.3244 25.0589 18.6059C24.8836 18.0185 24.5284 17.4803 24.3664 16.8947C24.3563 16.8122 24.2772 16.7451 24.2197 16.6995C24.1929 16.6407 24.1508 16.5701 24.07 16.6122C23.9672 16.6578 24.001 16.7451 24.0243 16.8122C24.2096 17.5694 24.4252 18.3502 24.6557 19.0871C25.2033 20.822 25.9511 22.4241 26.4565 24.1169C26.4702 24.1572 26.4429 24.2041 26.4381 24.3678C26.2089 23.9269 26.0372 23.6106 25.8703 23.2755C25.2117 21.9749 24.5447 20.6589 23.9062 19.3244C23.7362 19.0047 23.6449 18.6801 23.5018 18.3502C23.4614 18.2423 23.399 18.108 23.2506 18.1585C23.1311 18.2107 23.19 18.3502 23.2168 18.4379C23.5588 19.4727 23.7775 20.5562 24.2443 21.5744C24.4801 22.0911 24.6369 22.6293 24.834 23.1307C25.292 24.2362 25.7386 25.357 26.2084 26.4488C26.9009 27.9631 27.5341 29.5098 28.1827 31.0359C28.2688 31.2346 28.3597 31.4719 28.4541 31.6939C28.4879 31.7729 28.4506 31.7829 28.3597 31.7829C27.856 30.8407 27.3321 29.9103 26.8201 28.9711C25.8615 27.191 24.91 25.4171 23.9128 23.6655C23.2506 22.4806 22.508 21.3419 21.7787 20.1939C21.5464 19.8504 21.4638 19.3946 21.0981 19.1235C20.9496 19.2126 21.0072 19.3236 21.0322 19.4398C21.3119 20.2342 21.7146 21.0199 22.0127 21.8055C22.4777 22.9816 23.0367 24.1059 23.5487 25.2583C24.0423 26.4093 24.6013 27.5029 25.1252 28.6219C25.4857 29.3892 25.8611 30.1415 26.2084 30.9039C26.5773 31.693 26.9413 32.4418 27.3321 33.209C27.7651 34.0219 28.1506 34.8532 28.5568 35.6761C28.5063 35.698 28.4879 35.7265 28.4405 35.6844C26.9009 33.0138 25.3851 30.3047 23.8285 27.6327C23.089 26.3742 22.2837 25.1657 21.5459 23.9256C21.0322 23.0658 20.5303 22.2227 19.9256 21.4015C19.8584 21.3142 19.8229 21.198 19.6916 21.23C19.5449 21.2857 19.6547 21.4015 19.6749 21.4941C19.7135 21.8055 19.9261 22.0477 20.0288 22.3354C20.6286 23.9796 21.5749 25.4671 22.2437 27.0805C22.5875 27.878 23.0758 28.6083 23.4732 29.3892C23.8588 30.1836 24.3088 30.9271 24.6909 31.6978C25.245 32.8186 25.8699 33.8684 26.4561 34.9505C26.5084 35.0348 26.5387 35.1089 26.5773 35.1979C26.5874 35.3462 26.5268 35.3462 26.4377 35.262C24.8863 32.7243 23.3081 30.1937 21.686 27.6968C20.6436 26.0663 19.685 24.3888 18.3527 22.9632C18.2768 22.8706 18.2197 22.7395 18.0159 22.721C18.0967 22.9768 18.1134 23.2461 18.228 23.4461C18.6355 24.1024 18.9556 24.8073 19.1985 25.5276C19.3398 26.0022 19.6178 26.3773 19.8589 26.7962C20.511 27.8411 20.9505 28.9786 21.5754 30.0068C22.1581 30.914 22.6991 31.861 23.2515 32.7713C23.4618 33.1196 23.5883 33.4832 23.7788 33.8214C24.2017 34.5518 24.5956 35.2905 25.0487 36.0055C25.0891 36.0981 25.126 36.1871 25.1634 36.2981C25.1634 36.4275 25.0891 36.4275 24.9798 36.3872C24.3936 35.5173 23.7788 34.6154 23.1825 33.7468C22.62 32.9796 22.0505 32.1751 21.488 31.4246C20.3257 29.7787 19.2257 28.1333 17.961 26.5852C17.5452 26.0654 17.1913 25.4947 16.7214 25.0438C16.6674 24.9968 16.6371 24.9143 16.4975 24.9494C16.5243 25.3868 16.8092 25.7351 17.0262 26.1036C17.4657 26.8138 17.9307 27.502 18.2526 28.2692C18.4647 28.7557 18.8019 29.1224 19.0882 29.5414C19.804 30.5946 20.3955 31.7422 21.0572 32.8208C21.8323 34.0627 22.6104 35.2892 23.3885 36.5346C23.5755 36.8491 23.7929 37.1671 23.9646 37.5053C24.4599 38.4949 25.1923 39.3174 25.7399 40.2514C26.338 41.2796 27.0169 42.2824 27.672 43.2531C28.098 43.9129 28.494 44.5858 28.9823 45.1951C29.363 45.6829 29.6344 46.2654 29.9593 46.78C29.9137 47.0037 29.843 46.8405 29.774 46.7936C29.1136 45.9386 28.4181 45.0889 27.7664 44.2156C26.8856 43.0158 25.9472 41.8683 25.0378 40.697C23.8232 39.1222 22.6104 37.5654 21.3707 36.0042C20.168 34.461 18.9385 32.923 17.7375 31.3767C16.7759 30.1818 15.7971 29.0159 14.7546 27.892C14.4209 27.5152 14.0841 27.1064 13.6713 26.7664C13.5585 26.916 13.6393 27.0173 13.6933 27.1063C14.2527 28.0688 14.7647 29.0768 15.3962 30.0007C15.9942 30.8569 16.5181 31.7808 17.121 32.6357C17.9988 33.8859 18.8726 35.1497 19.7469 36.3951C20.2137 37.0548 20.702 37.701 21.1889 38.3471C22.1256 39.5872 23.2523 40.74 24.0256 42.1012C24.3997 42.7658 24.9789 43.2439 25.4238 43.8581C25.9524 44.5647 26.5286 45.2464 26.9598 46.0053C26.9431 46.0926 26.8856 46.1216 26.8113 46.0926C25.6846 44.8472 24.6197 43.5418 23.5316 42.2543C22.1352 40.6084 20.6629 39.0538 19.1673 37.5058C17.5149 35.7691 15.8761 34.0157 14.2066 32.2642C13.5194 31.5439 12.7562 30.8657 11.9496 30.2753C11.8622 30.1963 11.7726 30.1358 11.6229 30.1358C11.7542 30.5077 12.0286 30.7635 12.2394 31.0613C13.0043 32.0409 13.7671 33.0419 14.5118 34.0447C15.4972 35.3453 16.5787 36.5451 17.6734 37.7668C18.3439 38.5156 18.9956 39.2845 19.6073 40.1176C19.9423 40.5448 20.4108 40.9085 20.7424 41.3441C21.416 42.2828 22.1958 43.104 22.8984 44.0195C23.6212 44.9771 24.3672 45.9211 25.2464 46.7756C25.5529 47.0599 25.797 47.427 26.0666 47.7565C26.1307 47.817 26.1777 47.8995 26.1237 48.0205C25.8998 47.9802 25.8137 47.785 25.6841 47.6486C24.4915 46.5651 23.4741 45.2978 22.3118 44.1686C21.5301 43.4115 20.7485 42.6122 19.9889 41.8178C19.3153 41.1581 18.5556 40.5203 17.9237 39.8004C17.6154 39.4705 17.2044 39.2012 16.9247 38.8849C16.2239 38.0352 15.2385 37.5053 14.5026 36.6973C13.7833 35.8827 13.0034 35.1256 12.2302 34.3869C11.8376 34.0149 11.3998 33.6903 10.9721 33.3367C10.9335 33.3836 10.9049 33.3836 10.8795 33.4293C11.038 33.6446 11.1776 33.8986 11.3344 34.1359C12.3803 35.6603 13.6388 37.0118 14.9123 38.341C15.379 38.8055 15.8537 39.2565 16.3152 39.7394C17.1693 40.6027 17.9878 41.4928 18.8353 42.3324C20.0178 43.4953 21.0822 44.7402 22.1958 45.9382C24.0774 47.9876 26.0381 49.9818 27.9381 52.0027C28.0562 52.1089 28.184 52.2014 28.1792 52.4199C27.8037 52.2751 27.5846 51.9926 27.3607 51.7316C25.9476 50.3012 24.3993 49.0106 22.9458 47.6209C22.1256 46.8081 21.2293 46.0865 20.3652 45.3289C19.8598 44.9201 19.422 44.4739 18.9385 44.0519C17.9887 43.2005 17.0046 42.3556 16.0483 41.4928C14.9232 40.4562 13.6195 39.6789 12.5112 38.6573C11.5965 37.8023 10.6278 37.0403 9.64116 36.2863C9.59418 36.2494 9.54675 36.1854 9.49801 36.1753C9.4238 36.1297 9.3329 36.0963 9.27714 36.1617C9.19283 36.2358 9.30568 36.2863 9.34125 36.3385C9.64116 36.653 9.92922 36.9693 10.2221 37.2825C12.3817 39.5254 14.6725 41.6068 16.9581 43.7085C19.1076 45.6737 21.2434 47.6714 23.327 49.7243C25.0132 51.3601 26.7582 52.9954 28.4795 54.6224C28.6025 54.747 28.7136 54.9067 28.8247 55.0313C28.8247 55.1708 28.7606 55.1475 28.6763 55.1001C27.9333 54.5246 27.3339 53.7894 26.5892 53.2323C24.888 51.9654 23.3266 50.5652 21.7497 49.1584C20.4359 47.9872 18.9284 47.0164 17.6313 45.8167C17.0753 45.2969 16.5177 44.7985 15.9047 44.3494C14.7946 43.5922 13.7016 42.8197 12.5916 42.0762C11.9311 41.6068 11.3098 41.0817 10.6546 40.6071C10.1325 40.2185 9.57134 39.8868 9.01718 39.5587C9.09139 39.8684 9.33203 40.0364 9.53753 40.2268C11.2676 41.7564 12.9938 43.2523 14.7173 44.745C16.8448 46.6028 18.9855 48.4386 21.0994 50.288C22.5243 51.5417 23.951 52.8287 25.3473 54.0741C25.5985 54.3062 25.8089 54.5487 26.0381 54.7808C26.0113 54.8211 25.9792 54.8211 25.952 54.7808C25.5529 54.7303 25.2411 54.4882 24.9666 54.2557C24.0015 53.3722 22.9116 52.652 21.9618 51.7685C21.7699 51.597 21.5306 51.4671 21.3132 51.3276C19.4619 50.1327 17.7828 48.6505 15.9991 47.338C15.0809 46.6734 14.1227 46.0457 13.2283 45.3289C11.8622 44.2467 10.4017 43.2895 8.96844 42.31C8.86744 42.253 8.81168 42.1788 8.67863 42.2341C8.64174 42.3907 8.75108 42.4899 8.86042 42.6008C9.38604 43.1812 9.9099 43.7686 10.508 44.302C12.0629 45.7325 13.742 47.0349 15.3624 48.396C16.0478 48.9952 16.7302 49.6041 17.4596 50.1612C18.8138 51.1978 20.1039 52.2896 21.4397 53.3718C23.067 54.6694 24.679 56.0069 26.2892 57.3176C27.4885 58.2971 28.6763 59.2745 29.8803 60.2558C29.9795 60.3382 30.1214 60.4207 30.1767 60.6023C29.72 60.454 29.4206 60.1395 29.0851 59.9004C27.5996 58.9529 26.075 58.0361 24.7141 56.9491C23.8601 56.2573 22.9287 55.7007 22.0509 55.0308C20.8113 54.0732 19.4417 53.3078 18.1463 52.4195C17.4121 51.9282 16.6555 51.4215 15.9363 50.8815C14.9593 50.1665 13.9067 49.6361 12.8489 49.0404C11.8231 48.4702 10.8325 47.8556 9.82691 47.2432C9.01674 46.7739 8.17628 46.301 7.33055 45.882C7.23965 45.8316 7.1268 45.8162 7.04073 45.7847C6.96653 45.9983 7.15007 46.0641 7.23965 46.1751C7.94882 46.9138 8.85998 47.4656 9.67717 48.0666C11.038 49.083 12.3975 50.0691 13.7671 51.0499C15.9938 52.6467 18.2205 54.1947 20.4372 55.7616C22.1958 57.0202 23.929 58.2804 25.6639 59.5293C26.7284 60.2917 27.766 61.0826 28.8238 61.8345C28.8809 61.8766 28.9367 61.9424 28.9973 61.9942C28.9973 62.117 28.9367 62.117 28.8523 62.0582C27.766 61.3919 26.7064 60.6953 25.6099 60.0325C24.8349 59.5394 24.0537 59.0801 23.2787 58.5906C22.2174 57.894 21.1683 57.1838 20.1408 56.4131C19.5361 55.9568 18.859 55.5985 18.2021 55.1949C16.6964 54.3452 15.2947 53.3222 13.8158 52.4388C12.9938 51.9558 12.1735 51.468 11.3348 50.9899C10.2735 50.4227 9.21434 49.837 8.2136 49.176C7.36787 48.6057 6.51731 48.1127 5.6347 47.6345C5.81166 48.035 6.17393 48.2438 6.48526 48.518C7.52288 49.4181 8.70717 50.1485 9.76499 51.0184C9.88311 51.1245 9.99069 51.2219 10.1321 51.2675C10.7622 51.7321 11.3818 52.2436 12.0286 52.6993C13.6388 53.889 15.239 55.0519 16.8698 56.2025C18.0976 57.0724 19.3223 57.9207 20.5689 58.7485C22.0681 59.7381 23.5114 60.8164 24.9802 61.8345C25.339 62.0582 25.6841 62.2938 26.0381 62.5175C26.0433 62.6066 26.0113 62.6386 25.92 62.6285C25.5243 62.4552 25.1822 62.2245 24.8099 61.9942C23.1913 60.9743 21.5758 59.9009 19.9638 58.9064C18.0436 57.7067 16.1703 56.4582 14.1592 55.3761C12.9161 54.7299 11.7537 53.9355 10.5765 53.1735C9.24728 52.3085 7.83246 51.597 6.42773 50.8683C5.94954 50.6174 5.50121 50.3297 4.99271 50.1516C4.9185 50.1331 4.86142 50.0827 4.73847 50.1481C5.05024 50.4494 5.33478 50.7942 5.66148 51.0635C6.91647 52.1269 8.26542 53.0946 9.61965 54.0403C11.7924 55.5748 14.0297 57.0053 16.1971 58.4761C18.5099 60.0325 20.8109 61.5656 23.1219 63.1185C23.2501 63.2027 23.3744 63.2935 23.5026 63.3826H22.5392C20.5733 62.2771 18.6043 61.173 16.6472 60.0645C14.0837 58.5954 11.5149 57.1263 8.95131 55.6625C8.15784 55.1949 7.31913 54.8413 6.47516 54.5198C6.37241 54.4878 6.23408 54.3768 6.16339 54.5198C6.09928 54.6224 6.21213 54.7299 6.31839 54.7891C6.85894 55.1712 7.40652 55.5515 7.95233 55.9016C10.147 57.3268 12.3975 58.6244 14.6242 59.9855C16.4571 61.0962 18.264 62.2473 20.0833 63.383H18.0756C16.6608 62.5267 15.1261 61.9157 13.6441 61.1704C12.4164 60.5159 11.2066 59.814 9.94678 59.1762C8.64964 58.5033 7.35602 57.8352 6.00531 57.2632C5.90255 57.2211 5.77433 57.1083 5.69354 57.2347C5.6347 57.3694 5.78619 57.4163 5.87533 57.4904C7.36787 58.5959 8.9882 59.5298 10.5984 60.4689C12.2543 61.4516 13.9453 62.421 15.6263 63.3834H13.7719C12.9279 62.9628 12.091 62.5403 11.2619 62.1179C9.48001 61.2362 7.7095 60.3663 5.9491 59.5065C5.82791 59.446 5.6931 59.3736 5.50955 59.4056C5.72515 59.796 6.09401 59.986 6.42773 60.1965C8.12051 61.2599 9.83349 62.3236 11.5957 63.2891C11.6497 63.3211 11.7019 63.3514 11.7524 63.3834H9.91648C9.62008 63.2268 9.32544 63.0707 9.0286 62.9224C8.15784 62.4899 7.28181 62.0762 6.36889 61.7463C7.0864 62.367 7.87154 62.8974 8.67819 63.3834H4.41001C1.97425 63.3834 0 61.4112 0 58.9779V7.93761C0 5.50434 1.97425 3.5321 4.41001 3.5321H39.1645C41.6002 3.5321 43.5758 5.50434 43.5758 7.93761V13.6924C43.5591 13.5477 43.5402 13.4029 43.5253 13.2564C43.5249 13.1875 43.5451 13.0612 43.405 13.0612Z" fill="url(#paint1_radial)"/>
<defs>
<radialGradient id="paint0_radial" cx="0" cy="0" r="1" gradientUnits="userSpaceOnUse" gradientTransform="translate(1.67974 6.87295) scale(41.5801 41.5363)">
<stop stop-color="#B6BD00"/>
<stop offset="1" stop-color="#63A70A"/>
</radialGradient>
<radialGradient id="paint1_radial" cx="0" cy="0" r="1" gradientUnits="userSpaceOnUse" gradientTransform="translate(1.68114 6.87297) scale(41.5788 41.5363)">
<stop stop-color="#B6BD00"/>
<stop offset="1" stop-color="#63A70A"/>
</radialGradient>
</defs>
</svg>
