<svg width="20" height="16" viewBox="0 0 20 16" fill="none" xmlns="http://www.w3.org/2000/svg">
<path fill-rule="evenodd" clip-rule="evenodd" d="M0 14.2289C1.47283 14.3393 2.95072 14.0915 4.30148 13.5077C4.91929 13.244 5.49938 12.903 6.02717 12.4933C5.40628 12.4805 4.79628 12.3315 4.24231 12.0574C3.33283 11.6081 2.63023 10.8406 2.2747 9.9078C2.18707 9.6935 2.18707 9.6935 2.42899 9.70813C2.93418 9.79101 3.45213 9.75922 3.94272 9.61524C3.60465 9.53227 3.278 9.40999 2.96977 9.25101C2.32079 8.92111 1.77266 8.42953 1.38095 7.8261C0.989234 7.22267 0.767857 6.52884 0.739259 5.81493C0.724279 5.63647 0.77596 5.61526 0.943735 5.69352C1.44523 5.94684 1.99624 6.09295 2.56007 6.12212C2.29717 5.89392 2.07023 5.70814 1.86575 5.50774C1.30442 4.89667 0.942569 4.13596 0.826486 3.32293C0.710404 2.50991 0.845372 1.68156 1.21412 0.943862C1.31674 0.744192 1.35344 0.74419 1.49275 0.901439C3.325 3.018 5.88303 4.41162 8.68985 4.82243C8.98271 4.87948 9.30403 4.87948 9.60438 4.94384C9.80885 4.97236 9.83057 4.87948 9.80136 4.72954C9.65161 3.89466 9.77499 3.03492 10.154 2.27239C10.533 1.50987 11.1484 0.883295 11.9127 0.481643C12.6771 0.0799915 13.5516 -0.076331 14.4121 0.0348678C15.2726 0.146066 16.0753 0.519134 16.7064 1.10111C16.7654 1.15674 16.8387 1.19597 16.9184 1.21475C16.9982 1.23352 17.0817 1.23116 17.1603 1.2079C17.9261 1.03963 18.6612 0.75795 19.3398 0.372644C19.4068 0.352256 19.4672 0.315205 19.5151 0.26513C19.2315 1.18987 18.6127 1.98209 17.7744 2.49368C18.5382 2.40391 19.2862 2.21425 19.9982 1.92978C20.0124 2.02266 19.939 2.07972 19.8956 2.15797C19.413 2.80509 18.8364 3.38014 18.1841 3.86504C18.1305 3.89952 18.0878 3.94788 18.0607 4.0047C18.0335 4.06152 18.0231 4.12459 18.0306 4.18685C18.1033 7.06243 17.0905 9.86369 15.1851 12.0574C13.4391 14.0963 10.9874 15.4384 8.29513 15.8291C5.45653 16.3137 2.53463 15.7593 0.088381 14.272L0 14.2289Z" fill="white"/>
</svg>
